AcariSans-MediumItalic.ufo
<glyph name="quotedbl" format="2">
  <advance width="935"/>
  <unicode hex="0022"/>
  <outline>
    <contour>
      <point x="488" y="929" type="line"/>
      <point x="321" y="929" type="line"/>
      <point x="433" y="1413" type="line"/>
      <point x="600" y="1413" type="line"/>
    </contour>
    <contour>
      <point x="812" y="929" type="line"/>
      <point x="644" y="929" type="line"/>
      <point x="756" y="1413" type="line"/>
      <point x="924" y="1413" type="line"/>
    </contour>
  </outline>
</glyph>
<glyph name="numbersign" format="2">
  <advance width="1379"/>
  <unicode hex="0023"/>
  <outline>
    <contour>
      <point x="719" y="0" type="line"/>
      <point x="564" y="0" type="line"/>
      <point x="756" y="436" type="line"/>
      <point x="471" y="436" type="line"/>
      <point x="280" y="0" type="line"/>
      <point x="125" y="0" type="line"/>
      <point x="314" y="427" type="line"/>
      <point x="78" y="427" type="line"/>
      <point x="111" y="567" type="line"/>
      <point x="376" y="567" type="line"/>
      <point x="507" y="867" type="line"/>
      <point x="261" y="867" type="line"/>
      <point x="296" y="1010" type="line"/>
      <point x="569" y="1010" type="line"/>
      <point x="761" y="1434" type="line"/>
      <point x="918" y="1434" type="line"/>
      <point x="722" y="997" type="line"/>
      <point x="1006" y="997" type="line"/>
      <point x="1200" y="1434" type="line"/>
      <point x="1356" y="1434" type="line"/>
      <point x="1164" y="1007" type="line"/>
      <point x="1400" y="1007" type="line"/>
      <point x="1367" y="867" type="line"/>
      <point x="1103" y="867" type="line"/>
      <point x="972" y="567" type="line"/>
      <point x="1217" y="567" type="line"/>
      <point x="1182" y="425" type="line"/>
      <point x="909" y="425" type="line"/>
    </contour>
    <contour>
      <point x="816" y="567" type="line"/>
      <point x="947" y="867" type="line"/>
      <point x="662" y="867" type="line"/>
      <point x="531" y="567" type="line"/>
    </contour>
  </outline>
</glyph>
<glyph name="dollar" format="2">
  <advance width="1114"/>
  <unicode hex="0024"/>
  <outline>
    <contour>
      <point x="465" y="-246" type="line"/>
      <point x="313" y="-246" type="line"/>
      <point x="374" y="-11" type="line"/>
      <point x="280" y="3"/>
      <point x="129" y="93"/>
      <point x="39" y="245"/>
      <point x="39" y="350" type="qcurve"/>
      <point x="40" y="384" type="line"/>
      <point x="241" y="414" type="line"/>
      <point x="239" y="401"/>
      <point x="239" y="376" type="qcurve" smooth="yes"/>
      <point x="239" y="303"/>
      <point x="304" y="212"/>
      <point x="417" y="169"/>
      <point x="490" y="169" type="qcurve" smooth="yes"/>
      <point x="611" y="169"/>
      <point x="789" y="286"/>
      <point x="820" y="410" type="qcurve"/>
      <point x="825" y="435"/>
      <point x="825" y="451" type="qcurve" smooth="yes"/>
      <point x="825" y="504"/>
      <point x="762" y="581"/>
      <point x="668" y="635"/>
      <point x="588" y="672" type="qcurve" smooth="yes"/>
      <point x="487" y="719"/>
      <point x="366" y="798"/>
      <point x="327" y="854" type="qcurve"/>
      <point x="284" y="913"/>
      <point x="284" y="997" type="qcurve" smooth="yes"/>
      <point x="284" y="1060"/>
      <point x="329" y="1191"/>
      <point x="374" y="1248" type="qcurve" smooth="yes"/>
      <point x="435" y="1324"/>
      <point x="601" y="1415"/>
      <point x="694" y="1430" type="qcurve"/>
      <point x="754" y="1659" type="line"/>
      <point x="905" y="1659" type="line"/>
      <point x="845" y="1430" type="line"/>
      <point x="949" y="1418"/>
      <point x="1101" y="1304"/>
      <point x="1137" y="1197" type="qcurve"/>
      <point x="961" y="1114" type="line"/>
      <point x="937" y="1189"/>
      <point x="826" y="1256"/>
      <point x="754" y="1256" type="qcurve" smooth="yes"/>
      <point x="666" y="1256"/>
      <point x="514" y="1148"/>
      <point x="491" y="1059" type="qcurve" smooth="yes"/>
      <point x="487" y="1042"/>
      <point x="487" y="1022" type="qcurve" smooth="yes"/>
      <point x="487" y="974"/>
      <point x="546" y="903"/>
      <point x="635" y="853"/>
      <point x="713" y="817" type="qcurve" smooth="yes"/>
      <point x="816" y="770"/>
      <point x="942" y="688"/>
      <point x="983" y="630" type="qcurve" smooth="yes"/>
      <point x="1027" y="567"/>
      <point x="1027" y="477" type="qcurve" smooth="yes"/>
      <point x="1027" y="410"/>
      <point x="972" y="251"/>
      <point x="918" y="183" type="qcurve"/>
      <point x="841" y="91"/>
      <point x="636" y="-9"/>
      <point x="524" y="-17" type="qcurve"/>
    </contour>
  </outline>
</glyph>
<glyph name="percent" format="2">
  <advance width="1564"/>
  <unicode hex="0025"/>
  <outline>
    <contour>
      <point x="452" y="787" type="qcurve" smooth="yes"/>
      <point x="339" y="787"/>
      <point x="240" y="923"/>
      <point x="240" y="1025" type="qcurve" smooth="yes"/>
      <point x="240" y="1084"/>
      <point x="280" y="1226"/>
      <point x="361" y="1353"/>
      <point x="485" y="1436"/>
      <point x="570" y="1436" type="qcurve" smooth="yes"/>
      <point x="675" y="1436"/>
      <point x="779" y="1300"/>
      <point x="779" y="1195" type="qcurve" smooth="yes"/>
      <point x="779" y="1094"/>
      <point x="695" y="907"/>
      <point x="547" y="787"/>
    </contour>
    <contour>
      <point x="361" y="-8" type="line"/>
      <point x="186" y="-8" type="line"/>
      <point x="1288" y="1429" type="line"/>
      <point x="1462" y="1429" type="line"/>
    </contour>
    <contour>
      <point x="454" y="921" type="qcurve" smooth="yes"/>
      <point x="509" y="921"/>
      <point x="593" y="1015"/>
      <point x="640" y="1144"/>
      <point x="640" y="1197" type="qcurve" smooth="yes"/>
      <point x="640" y="1241"/>
      <point x="604" y="1300"/>
      <point x="563" y="1300" type="qcurve" smooth="yes"/>
      <point x="507" y="1300"/>
      <point x="422" y="1208"/>
      <point x="374" y="1080"/>
      <point x="374" y="1025" type="qcurve" smooth="yes"/>
      <point x="374" y="980"/>
      <point x="411" y="921"/>
    </contour>
    <contour>
      <point x="1096" y="-3" type="qcurve" smooth="yes"/>
      <point x="985" y="-3"/>
      <point x="885" y="134"/>
      <point x="885" y="235" type="qcurve" smooth="yes"/>
      <point x="885" y="293"/>
      <point x="924" y="435"/>
      <point x="1005" y="564"/>
      <point x="1130" y="648"/>
      <point x="1216" y="648" type="qcurve" smooth="yes"/>
      <point x="1321" y="648"/>
      <point x="1424" y="513"/>
      <point x="1424" y="408" type="qcurve" smooth="yes"/>
      <point x="1424" y="306"/>
      <point x="1341" y="118"/>
      <point x="1193" y="-3"/>
    </contour>
    <contour>
      <point x="1101" y="130" type="qcurve" smooth="yes"/>
      <point x="1155" y="130"/>
      <point x="1239" y="225"/>
      <point x="1286" y="355"/>
      <point x="1286" y="409" type="qcurve" smooth="yes"/>
      <point x="1286" y="454"/>
      <point x="1251" y="513"/>
      <point x="1210" y="513" type="qcurve" smooth="yes"/>
      <point x="1154" y="513"/>
      <point x="1068" y="421"/>
      <point x="1020" y="292"/>
      <point x="1020" y="236" type="qcurve" smooth="yes"/>
      <point x="1020" y="190"/>
      <point x="1057" y="130"/>
    </contour>
  </outline>
</glyph>
<glyph name="quotesingle" format="2">
  <advance width="611"/>
  <unicode hex="0027"/>
  <outline>
    <contour>
      <point x="495" y="958" type="line"/>
      <point x="328" y="958" type="line"/>
      <point x="439" y="1442" type="line"/>
      <point x="606" y="1442" type="line"/>
    </contour>
  </outline>
</glyph>
<glyph name="parenleft" format="2">
  <advance width="570"/>
  <unicode hex="0028"/>
  <outline>
    <contour>
      <point x="388" y="-82" type="qcurve"/>
      <point x="232" y="-69" type="line"/>
      <point x="179" y="8"/>
      <point x="130" y="246"/>
      <point x="130" y="381" type="qcurve" smooth="yes"/>
      <point x="130" y="788"/>
      <point x="329" y="1159" type="qcurve" smooth="yes"/>
      <point x="436" y="1360"/>
      <point x="580" y="1492" type="qcurve"/>
      <point x="758" y="1479" type="line"/>
      <point x="417" y="1141"/>
      <point x="314" y="684" type="qcurve"/>
      <point x="275" y="515"/>
      <point x="275" y="370" type="qcurve" smooth="yes"/>
      <point x="275" y="129"/>
    </contour>
  </outline>
</glyph>
<glyph name="plus" format="2">
  <advance width="1265"/>
  <unicode hex="002B"/>
  <outline>
    <contour>
      <point x="706" y="106" type="line"/>
      <point x="559" y="106" type="line"/>
      <point x="559" y="552" type="line"/>
      <point x="102" y="552" type="line"/>
      <point x="102" y="699" type="line"/>
      <point x="559" y="699" type="line"/>
      <point x="559" y="1143" type="line"/>
      <point x="706" y="1143" type="line"/>
      <point x="706" y="699" type="line"/>
      <point x="1162" y="699" type="line"/>
      <point x="1162" y="552" type="line"/>
      <point x="706" y="552" type="line"/>
    </contour>
  </outline>
</glyph>
<glyph name="comma" format="2">
  <advance width="631"/>
  <unicode hex="002C"/>
  <outline>
    <contour>
      <point x="131" y="-225" type="line"/>
      <point x="4" y="-225" type="line"/>
      <point x="218" y="264" type="line"/>
      <point x="455" y="264" type="line"/>
    </contour>
  </outline>
</glyph>
<glyph name="hyphen" format="2">
  <advance width="852"/>
  <unicode hex="002D"/>
  <outline>
    <contour>
      <point x="718" y="579" type="line"/>
      <point x="171" y="579" type="line"/>
      <point x="204" y="726" type="line"/>
      <point x="751" y="726" type="line"/>
    </contour>
  </outline>
</glyph>
<glyph name="slash" format="2">
  <advance width="936"/>
  <unicode hex="002F"/>
  <outline>
    <contour>
      <point x="-34" y="-430" type="line"/>
      <point x="-226" y="-430" type="line"/>
      <point x="990" y="1516" type="line"/>
      <point x="1181" y="1516" type="line"/>
    </contour>
  </outline>
</glyph>
<glyph name="zero" format="2">
  <advance width="1200"/>
  <unicode hex="0030"/>
  <outline>
    <contour>
      <point x="499" y="-20" type="qcurve" smooth="yes"/>
      <point x="349" y="-20"/>
      <point x="163" y="116"/>
      <point x="83" y="338"/>
      <point x="83" y="475" type="qcurve" smooth="yes"/>
      <point x="83" y="767"/>
      <point x="239" y="1056" type="qcurve" smooth="yes"/>
      <point x="327" y="1218"/>
      <point x="611" y="1436"/>
      <point x="797" y="1436" type="qcurve" smooth="yes"/>
      <point x="940" y="1436"/>
      <point x="1123" y="1301"/>
      <point x="1211" y="1071"/>
      <point x="1211" y="928" type="qcurve" smooth="yes"/>
      <point x="1211" y="698"/>
      <point x="1004" y="226"/>
      <point x="808" y="81" type="qcurve"/>
      <point x="667" y="-20"/>
    </contour>
    <contour>
      <point x="513" y="169" type="qcurve" smooth="yes"/>
      <point x="629" y="169"/>
      <point x="819" y="339"/>
      <point x="943" y="579"/>
      <point x="1005" y="833"/>
      <point x="1005" y="933" type="qcurve" smooth="yes"/>
      <point x="1005" y="1070"/>
      <point x="897" y="1242"/>
      <point x="777" y="1242" type="qcurve" smooth="yes"/>
      <point x="657" y="1242"/>
      <point x="560" y="1160" type="qcurve"/>
      <point x="458" y="1070"/>
      <point x="331" y="820"/>
      <point x="303" y="688" type="qcurve"/>
      <point x="277" y="578"/>
      <point x="277" y="482" type="qcurve" smooth="yes"/>
      <point x="277" y="344"/>
      <point x="389" y="169"/>
    </contour>
  </outline>
</glyph>
<glyph name="one" format="2">
  <advance width="1200"/>
  <unicode hex="0031"/>
  <outline>
    <contour>
      <point x="670" y="0" type="line"/>
      <point x="468" y="0" type="line"/>
      <point x="712" y="1057" type="line"/>
      <point x="388" y="1057" type="line"/>
      <point x="424" y="1217" type="line"/>
      <point x="590" y="1217" type="line" smooth="yes"/>
      <point x="671" y="1217"/>
      <point x="784" y="1315"/>
      <point x="802" y="1389" type="qcurve"/>
      <point x="806" y="1413" type="line"/>
      <point x="996" y="1413" type="line"/>
    </contour>
  </outline>
</glyph>
<glyph name="three" format="2">
  <advance width="1200"/>
  <unicode hex="0033"/>
  <outline>
    <contour>
      <point x="479" y="-20" type="qcurve" smooth="yes"/>
      <point x="365" y="-20"/>
      <point x="171" y="55"/>
      <point x="113" y="135" type="qcurve" smooth="yes"/>
      <point x="59" y="211"/>
      <point x="59" y="319" type="qcurve" smooth="yes"/>
      <point x="59" y="374"/>
      <point x="71" y="430" type="qcurve"/>
      <point x="261" y="427" type="line"/>
      <point x="253" y="390"/>
      <point x="253" y="362" type="qcurve" smooth="yes"/>
      <point x="253" y="295"/>
      <point x="317" y="207"/>
      <point x="428" y="163"/>
      <point x="497" y="163" type="qcurve" smooth="yes"/>
      <point x="622" y="163"/>
      <point x="844" y="301"/>
      <point x="879" y="434" type="qcurve"/>
      <point x="885" y="463"/>
      <point x="885" y="492" type="qcurve" smooth="yes"/>
      <point x="885" y="550"/>
      <point x="824" y="624"/>
      <point x="718" y="660"/>
      <point x="649" y="660" type="qcurve" smooth="yes"/>
      <point x="523" y="660" type="line"/>
      <point x="565" y="840" type="line"/>
      <point x="677" y="840" type="line" smooth="yes"/>
      <point x="770" y="840"/>
      <point x="918" y="951"/>
      <point x="945" y="1058" type="qcurve" smooth="yes"/>
      <point x="951" y="1084"/>
      <point x="951" y="1105" type="qcurve" smooth="yes"/>
      <point x="951" y="1176"/>
      <point x="848" y="1249"/>
      <point x="769" y="1249" type="qcurve" smooth="yes"/>
      <point x="666" y="1249"/>
      <point x="491" y="1123"/>
      <point x="463" y="1015" type="qcurve"/>
      <point x="283" y="1048" type="line"/>
      <point x="332" y="1238"/>
      <point x="617" y="1434"/>
      <point x="787" y="1434" type="qcurve" smooth="yes"/>
      <point x="888" y="1434"/>
      <point x="1051" y="1363"/>
      <point x="1145" y="1228"/>
      <point x="1145" y="1133" type="qcurve" smooth="yes"/>
      <point x="1145" y="1085"/>
      <point x="1133" y="1040" type="qcurve"/>
      <point x="1096" y="869"/>
      <point x="921" y="756" type="qcurve"/>
      <point x="1000" y="719"/>
      <point x="1071" y="584"/>
      <point x="1071" y="498" type="qcurve" smooth="yes"/>
      <point x="1071" y="384"/>
      <point x="983" y="198"/>
      <point x="833" y="64"/>
      <point x="736" y="27" type="qcurve" smooth="yes"/>
      <point x="615" y="-20"/>
    </contour>
  </outline>
</glyph>
<glyph name="six" format="2">
  <advance width="1200"/>
  <unicode hex="0036"/>
  <outline>
    <contour>
      <point x="493" y="-20" type="qcurve" smooth="yes"/>
      <point x="369" y="-20"/>
      <point x="190" y="83"/>
      <point x="93" y="257"/>
      <point x="93" y="365" type="qcurve" smooth="yes"/>
      <point x="93" y="552"/>
      <point x="227" y="713" type="qcurve" smooth="yes"/>
      <point x="809" y="1413" type="line"/>
      <point x="1041" y="1413" type="line"/>
      <point x="611" y="917" type="line"/>
      <point x="653" y="923"/>
      <point x="687" y="923" type="qcurve" smooth="yes"/>
      <point x="868" y="923"/>
      <point x="1091" y="713"/>
      <point x="1091" y="553" type="qcurve" smooth="yes"/>
      <point x="1091" y="498"/>
      <point x="1077" y="445" type="qcurve"/>
      <point x="1047" y="318"/>
      <point x="875" y="108"/>
      <point x="629" y="-20"/>
    </contour>
    <contour>
      <point x="511" y="167" type="qcurve" smooth="yes"/>
      <point x="598" y="167"/>
      <point x="757" y="254"/>
      <point x="868" y="395"/>
      <point x="887" y="479" type="qcurve" smooth="yes"/>
      <point x="895" y="514"/>
      <point x="895" y="542" type="qcurve" smooth="yes"/>
      <point x="895" y="639"/>
      <point x="767" y="755"/>
      <point x="671" y="755" type="qcurve" smooth="yes"/>
      <point x="582" y="755"/>
      <point x="425" y="667"/>
      <point x="315" y="526"/>
      <point x="295" y="443" type="qcurve"/>
      <point x="287" y="414"/>
      <point x="287" y="382" type="qcurve" smooth="yes"/>
      <point x="287" y="292"/>
      <point x="408" y="167"/>
    </contour>
  </outline>
</glyph>
<glyph name="seven" format="2">
  <advance width="1200"/>
  <unicode hex="0037"/>
  <outline>
    <contour>
      <point x="358" y="0" type="line"/>
      <point x="130" y="0" type="line"/>
      <point x="1014" y="1231" type="line"/>
      <point x="280" y="1231" type="line"/>
      <point x="322" y="1413" type="line"/>
      <point x="1300" y="1413" type="line"/>
      <point x="1276" y="1311" type="line"/>
    </contour>
  </outline>
</glyph>
<glyph name="nine" format="2">
  <advance width="1200"/>
  <unicode hex="0039"/>
  <outline>
    <contour>
      <point x="486" y="0" type="line"/>
      <point x="254" y="0" type="line"/>
      <point x="684" y="496" type="line"/>
      <point x="644" y="490"/>
      <point x="608" y="490" type="qcurve" smooth="yes"/>
      <point x="484" y="490"/>
      <point x="303" y="587"/>
      <point x="204" y="755"/>
      <point x="204" y="860" type="qcurve" smooth="yes"/>
      <point x="204" y="944"/>
      <point x="271" y="1122"/>
      <point x="332" y="1199" type="qcurve" smooth="yes"/>
      <point x="416" y="1303"/>
      <point x="662" y="1434"/>
      <point x="804" y="1434" type="qcurve" smooth="yes"/>
      <point x="927" y="1434"/>
      <point x="1105" y="1330"/>
      <point x="1202" y="1156"/>
      <point x="1202" y="1050" type="qcurve" smooth="yes"/>
      <point x="1202" y="994"/>
      <point x="1188" y="938" type="qcurve"/>
      <point x="1160" y="808"/>
      <point x="1070" y="700" type="qcurve" smooth="yes"/>
    </contour>
    <contour>
      <point x="622" y="658" type="qcurve" smooth="yes"/>
      <point x="709" y="658"/>
      <point x="866" y="743"/>
      <point x="979" y="884"/>
      <point x="1000" y="970" type="qcurve" smooth="yes"/>
      <point x="1008" y="1005"/>
      <point x="1008" y="1033" type="qcurve" smooth="yes"/>
      <point x="1008" y="1124"/>
      <point x="884" y="1247"/>
      <point x="782" y="1247" type="qcurve" smooth="yes"/>
      <point x="694" y="1247"/>
      <point x="535" y="1158"/>
      <point x="425" y="1016"/>
      <point x="406" y="934" type="qcurve"/>
      <point x="398" y="905"/>
      <point x="398" y="873" type="qcurve" smooth="yes"/>
      <point x="398" y="783"/>
      <point x="519" y="658"/>
    </contour>
  </outline>
</glyph>
<glyph name="semicolon" format="2">
  <advance width="659"/>
  <unicode hex="003B"/>
  <outline>
    <contour>
      <point x="536" y="728" type="line"/>
      <point x="307" y="728" type="line"/>
      <point x="360" y="954" type="line"/>
      <point x="589" y="954" type="line"/>
    </contour>
    <contour>
      <point x="145" y="-225" type="line"/>
      <point x="17" y="-225" type="line"/>
      <point x="231" y="264" type="line"/>
      <point x="469" y="264" type="line"/>
    </contour>
  </outline>
</glyph>
<glyph name="greater" format="2">
  <advance width="1228"/>
  <unicode hex="003E"/>
  <outline>
    <contour>
      <point x="211" y="161" type="line"/>
      <point x="127" y="307" type="line"/>
      <point x="832" y="674" type="line"/>
      <point x="127" y="1040" type="line"/>
      <point x="211" y="1186" type="line"/>
      <point x="1150" y="674" type="line"/>
    </contour>
  </outline>
</glyph>
<glyph name="at" format="2">
  <advance width="2035"/>
  <unicode hex="0040"/>
  <outline>
    <contour>
      <point x="825" y="-348" type="qcurve" smooth="yes"/>
      <point x="623" y="-348"/>
      <point x="293" y="-197"/>
      <point x="195" y="-41" type="qcurve" smooth="yes"/>
      <point x="103" y="107"/>
      <point x="103" y="310" type="qcurve" smooth="yes"/>
      <point x="103" y="492"/>
      <point x="235" y="846"/>
      <point x="347" y="991" type="qcurve" smooth="yes"/>
      <point x="448" y="1122"/>
      <point x="719" y="1320"/>
      <point x="1046" y="1432"/>
      <point x="1230" y="1432" type="qcurve" smooth="yes"/>
      <point x="1406" y="1432"/>
      <point x="1674" y="1328"/>
      <point x="1857" y="1144"/>
      <point x="1950" y="897"/>
      <point x="1950" y="754" type="qcurve" smooth="yes"/>
      <point x="1950" y="629"/>
      <point x="1878" y="364"/>
      <point x="1807" y="242" type="qcurve" smooth="yes"/>
      <point x="1727" y="105"/>
      <point x="1488" y="-64"/>
      <point x="1341" y="-64" type="qcurve" smooth="yes"/>
      <point x="1225" y="-64"/>
      <point x="1109" y="39"/>
      <point x="1109" y="120" type="qcurve" smooth="yes"/>
      <point x="1109" y="154"/>
      <point x="1120" y="195" type="qcurve"/>
      <point x="1042" y="121"/>
      <point x="870" y="55"/>
      <point x="790" y="55" type="qcurve" smooth="yes"/>
      <point x="701" y="55"/>
      <point x="587" y="128"/>
      <point x="533" y="254"/>
      <point x="533" y="334" type="qcurve" smooth="yes"/>
      <point x="533" y="493"/>
      <point x="724" y="843"/>
      <point x="881" y="959" type="qcurve"/>
      <point x="1007" y="1049"/>
      <point x="1145" y="1049" type="qcurve" smooth="yes"/>
      <point x="1249" y="1049"/>
      <point x="1369" y="951"/>
      <point x="1379" y="876" type="qcurve"/>
      <point x="1433" y="1000" type="line"/>
      <point x="1604" y="991" type="line"/>
      <point x="1570" y="914"/>
      <point x="1504" y="772" type="qcurve"/>
      <point x="1416" y="587"/>
      <point x="1352" y="440" type="qcurve" smooth="yes"/>
      <point x="1316" y="355"/>
      <point x="1269" y="204"/>
      <point x="1269" y="167" type="qcurve" smooth="yes"/>
      <point x="1269" y="111"/>
      <point x="1338" y="111" type="qcurve" smooth="yes"/>
      <point x="1350" y="111" type="line" smooth="yes"/>
      <point x="1459" y="111"/>
      <point x="1545" y="180" type="qcurve"/>
      <point x="1633" y="253"/>
      <point x="1742" y="462"/>
      <point x="1767" y="574" type="qcurve"/>
      <point x="1787" y="658"/>
      <point x="1787" y="746" type="qcurve" smooth="yes"/>
      <point x="1787" y="891"/>
      <point x="1661" y="1130"/>
      <point x="1527" y="1203" type="qcurve"/>
      <point x="1398" y="1270"/>
      <point x="1217" y="1270" type="qcurve" smooth="yes"/>
      <point x="1042" y="1270"/>
      <point x="735" y="1149"/>
      <point x="491" y="937"/>
      <point x="325" y="661"/>
      <point x="288" y="504" type="qcurve" smooth="yes"/>
      <point x="266" y="412"/>
      <point x="266" y="327" type="qcurve" smooth="yes"/>
      <point x="266" y="164"/>
      <point x="416" y="-61"/>
      <point x="676" y="-177"/>
      <point x="841" y="-177" type="qcurve" smooth="yes"/>
      <point x="908" y="-177"/>
      <point x="1031" y="-156"/>
      <point x="1101" y="-135" type="qcurve"/>
      <point x="1137" y="-299" type="line"/>
      <point x="989" y="-348"/>
    </contour>
    <contour>
      <point x="823" y="225" type="qcurve" smooth="yes"/>
      <point x="908" y="225"/>
      <point x="1058" y="311"/>
      <point x="1179" y="448"/>
      <point x="1262" y="610"/>
      <point x="1280" y="688" type="qcurve" smooth="yes"/>
      <point x="1290" y="733"/>
      <point x="1290" y="762" type="qcurve" smooth="yes"/>
      <point x="1290" y="878"/>
      <point x="1157" y="878" type="qcurve" smooth="yes"/>
      <point x="1048" y="878"/>
      <point x="952" y="808" type="qcurve"/>
      <point x="850" y="731"/>
      <point x="721" y="522"/>
      <point x="698" y="419" type="qcurve" smooth="yes"/>
      <point x="689" y="379"/>
      <point x="689" y="346" type="qcurve" smooth="yes"/>
      <point x="689" y="225"/>
    </contour>
  </outline>
</glyph>
<glyph name="C" format="2">
  <advance width="1431"/>
  <unicode hex="0043"/>
  <outline>
    <contour>
      <point x="658" y="-20" type="qcurve" smooth="yes"/>
      <point x="478" y="-20"/>
      <point x="245" y="113"/>
      <point x="132" y="347"/>
      <point x="132" y="498" type="qcurve" smooth="yes"/>
      <point x="132" y="633"/>
      <point x="222" y="945"/>
      <point x="313" y="1084" type="qcurve" smooth="yes"/>
      <point x="420" y="1245"/>
      <point x="754" y="1436"/>
      <point x="967" y="1436" type="qcurve" smooth="yes"/>
      <point x="1100" y="1436"/>
      <point x="1323" y="1348"/>
      <point x="1396" y="1255" type="qcurve"/>
      <point x="1464" y="1165"/>
      <point x="1481" y="1037" type="qcurve"/>
      <point x="1282" y="978" type="line"/>
      <point x="1272" y="1122"/>
      <point x="1093" y="1256"/>
      <point x="946" y="1256" type="qcurve" smooth="yes"/>
      <point x="787" y="1256"/>
      <point x="547" y="1104"/>
      <point x="390" y="852"/>
      <point x="355" y="699" type="qcurve" smooth="yes"/>
      <point x="332" y="601"/>
      <point x="332" y="515" type="qcurve" smooth="yes"/>
      <point x="332" y="356"/>
      <point x="500" y="171"/>
      <point x="677" y="171" type="qcurve" smooth="yes"/>
      <point x="835" y="171"/>
      <point x="1073" y="316"/>
      <point x="1160" y="459" type="qcurve"/>
      <point x="1331" y="363" type="line"/>
      <point x="1200" y="167"/>
      <point x="850" y="-20"/>
    </contour>
  </outline>
</glyph>
<glyph name="D" format="2">
  <advance width="1411"/>
  <unicode hex="0044"/>
  <outline>
    <contour>
      <point x="472" y="0" type="qcurve" smooth="yes"/>
      <point x="85" y="0" type="line"/>
      <point x="411" y="1413" type="line"/>
      <point x="788" y="1413" type="line" smooth="yes"/>
      <point x="989" y="1413"/>
      <point x="1250" y="1291"/>
      <point x="1377" y="1065"/>
      <point x="1377" y="910" type="qcurve" smooth="yes"/>
      <point x="1377" y="806"/>
      <point x="1348" y="678" type="qcurve"/>
      <point x="1269" y="347"/>
      <point x="816" y="0"/>
    </contour>
    <contour>
      <point x="479" y="186" type="line" smooth="yes"/>
      <point x="644" y="186"/>
      <point x="918" y="299"/>
      <point x="1110" y="537"/>
      <point x="1155" y="725" type="qcurve"/>
      <point x="1178" y="826"/>
      <point x="1178" y="904" type="qcurve" smooth="yes"/>
      <point x="1178" y="1075"/>
      <point x="963" y="1228"/>
      <point x="753" y="1228" type="qcurve" smooth="yes"/>
      <point x="572" y="1228" type="line"/>
      <point x="331" y="186" type="line"/>
    </contour>
  </outline>
</glyph>
<glyph name="F" format="2">
  <advance width="1218"/>
  <unicode hex="0046"/>
  <outline>
    <contour>
      <point x="288" y="0" type="line"/>
      <point x="85" y="0" type="line"/>
      <point x="411" y="1413" type="line"/>
      <point x="1362" y="1413" type="line"/>
      <point x="1320" y="1231" type="line"/>
      <point x="572" y="1231" type="line"/>
      <point x="472" y="797" type="line"/>
      <point x="1131" y="797" type="line"/>
      <point x="1089" y="617" type="line"/>
      <point x="430" y="617" type="line"/>
    </contour>
  </outline>
</glyph>
<glyph name="H" format="2">
  <advance width="1475"/>
  <unicode hex="0048"/>
  <outline>
    <contour>
      <point x="1161" y="0" type="line"/>
      <point x="957" y="0" type="line"/>
      <point x="1099" y="617" type="line"/>
      <point x="430" y="617" type="line"/>
      <point x="288" y="0" type="line"/>
      <point x="85" y="0" type="line"/>
      <point x="411" y="1413" type="line"/>
      <point x="614" y="1413" type="line"/>
      <point x="472" y="797" type="line"/>
      <point x="1141" y="797" type="line"/>
      <point x="1283" y="1413" type="line"/>
      <point x="1487" y="1413" type="line"/>
    </contour>
  </outline>
</glyph>
<glyph name="I" format="2">
  <advance width="603"/>
  <unicode hex="0049"/>
  <outline>
    <contour>
      <point x="288" y="0" type="line"/>
      <point x="85" y="0" type="line"/>
      <point x="411" y="1413" type="line"/>
      <point x="614" y="1413" type="line"/>
    </contour>
  </outline>
</glyph>
<glyph name="L" format="2">
  <advance width="1052"/>
  <unicode hex="004C"/>
  <outline>
    <contour>
      <point x="893" y="0" type="line"/>
      <point x="85" y="0" type="line"/>
      <point x="411" y="1413" type="line"/>
      <point x="614" y="1413" type="line"/>
      <point x="332" y="189" type="line"/>
      <point x="936" y="189" type="line"/>
    </contour>
  </outline>
</glyph>
<glyph name="N" format="2">
  <advance width="1438"/>
  <unicode hex="004E"/>
  <outline>
    <contour>
      <point x="1124" y="0" type="line"/>
      <point x="887" y="0" type="line"/>
      <point x="544" y="1118" type="line"/>
      <point x="283" y="0" type="line"/>
      <point x="85" y="0" type="line"/>
      <point x="411" y="1413" type="line"/>
      <point x="645" y="1413" type="line"/>
      <point x="992" y="297" type="line"/>
      <point x="1252" y="1413" type="line"/>
      <point x="1450" y="1413" type="line"/>
    </contour>
  </outline>
</glyph>
<glyph name="O" format="2">
  <advance width="1526"/>
  <unicode hex="004F"/>
  <outline>
    <contour>
      <point x="655" y="-20" type="qcurve" smooth="yes"/>
      <point x="476" y="-20"/>
      <point x="244" y="114"/>
      <point x="132" y="349"/>
      <point x="132" y="500" type="qcurve" smooth="yes"/>
      <point x="132" y="642"/>
      <point x="223" y="948"/>
      <point x="312" y="1082" type="qcurve" smooth="yes"/>
      <point x="420" y="1243"/>
      <point x="754" y="1434"/>
      <point x="966" y="1434" type="qcurve" smooth="yes"/>
      <point x="1146" y="1434"/>
      <point x="1379" y="1300"/>
      <point x="1491" y="1064"/>
      <point x="1491" y="912" type="qcurve" smooth="yes"/>
      <point x="1491" y="770"/>
      <point x="1399" y="465"/>
      <point x="1310" y="332" type="qcurve" smooth="yes"/>
      <point x="1202" y="171"/>
      <point x="867" y="-20"/>
    </contour>
    <contour>
      <point x="672" y="163" type="qcurve" smooth="yes"/>
      <point x="831" y="163"/>
      <point x="953" y="240" type="qcurve"/>
      <point x="1078" y="321"/>
      <point x="1231" y="574"/>
      <point x="1265" y="725" type="qcurve"/>
      <point x="1288" y="820"/>
      <point x="1288" y="906" type="qcurve" smooth="yes"/>
      <point x="1288" y="1063"/>
      <point x="1123" y="1250"/>
      <point x="947" y="1250" type="qcurve" smooth="yes"/>
      <point x="790" y="1250"/>
      <point x="670" y="1174" type="qcurve"/>
      <point x="545" y="1092"/>
      <point x="392" y="839"/>
      <point x="358" y="688" type="qcurve" smooth="yes"/>
      <point x="336" y="591"/>
      <point x="336" y="508" type="qcurve" smooth="yes"/>
      <point x="336" y="351"/>
      <point x="498" y="163"/>
    </contour>
  </outline>
</glyph>
<glyph name="P" format="2">
  <advance width="1161"/>
  <unicode hex="0050"/>
  <outline>
    <contour>
      <point x="287" y="0" type="line"/>
      <point x="85" y="0" type="line"/>
      <point x="411" y="1413" type="line"/>
      <point x="822" y="1413" type="line" smooth="yes"/>
      <point x="941" y="1413"/>
      <point x="1119" y="1340"/>
      <point x="1218" y="1199"/>
      <point x="1218" y="1098" type="qcurve" smooth="yes"/>
      <point x="1218" y="1045"/>
      <point x="1205" y="992" type="qcurve" smooth="yes"/>
      <point x="1160" y="806"/>
      <point x="861" y="614"/>
      <point x="650" y="614" type="qcurve" smooth="yes"/>
      <point x="429" y="614" type="line"/>
    </contour>
    <contour>
      <point x="681" y="800" type="line" smooth="yes"/>
      <point x="813" y="800"/>
      <point x="985" y="912"/>
      <point x="1012" y="1028" type="qcurve" smooth="yes"/>
      <point x="1019" y="1061"/>
      <point x="1019" y="1081" type="qcurve" smooth="yes"/>
      <point x="1019" y="1225"/>
      <point x="792" y="1227" type="qcurve"/>
      <point x="570" y="1227" type="line"/>
      <point x="470" y="800" type="line"/>
    </contour>
  </outline>
</glyph>
<glyph name="Q" format="2">
  <advance width="1563"/>
  <unicode hex="0051"/>
  <outline>
    <contour>
      <point x="1206" y="-107" type="line"/>
      <point x="1055" y="88" type="line"/>
      <point x="884" y="-20"/>
      <point x="655" y="-20" type="qcurve" smooth="yes"/>
      <point x="476" y="-20"/>
      <point x="244" y="114"/>
      <point x="132" y="349"/>
      <point x="132" y="500" type="qcurve" smooth="yes"/>
      <point x="132" y="642"/>
      <point x="223" y="948"/>
      <point x="312" y="1082" type="qcurve" smooth="yes"/>
      <point x="420" y="1243"/>
      <point x="754" y="1434"/>
      <point x="966" y="1434" type="qcurve" smooth="yes"/>
      <point x="1147" y="1434"/>
      <point x="1379" y="1299"/>
      <point x="1491" y="1063"/>
      <point x="1491" y="911" type="qcurve" smooth="yes"/>
      <point x="1491" y="721"/>
      <point x="1339" y="340"/>
      <point x="1205" y="204" type="qcurve"/>
      <point x="1359" y="16" type="line"/>
    </contour>
    <contour>
      <point x="674" y="169" type="qcurve" smooth="yes"/>
      <point x="815" y="169"/>
      <point x="939" y="235" type="qcurve"/>
      <point x="789" y="422" type="line"/>
      <point x="939" y="544" type="line"/>
      <point x="1093" y="362" type="line"/>
      <point x="1218" y="508"/>
      <point x="1269" y="725" type="qcurve" smooth="yes"/>
      <point x="1290" y="815"/>
      <point x="1290" y="899" type="qcurve" smooth="yes"/>
      <point x="1290" y="1056"/>
      <point x="1124" y="1244"/>
      <point x="947" y="1244" type="qcurve" smooth="yes"/>
      <point x="785" y="1244"/>
      <point x="545" y="1093"/>
      <point x="389" y="842"/>
      <point x="354" y="688" type="qcurve" smooth="yes"/>
      <point x="332" y="592"/>
      <point x="332" y="512" type="qcurve" smooth="yes"/>
      <point x="332" y="355"/>
      <point x="498" y="169"/>
    </contour>
  </outline>
</glyph>
<glyph name="S" format="2">
  <advance width="1126"/>
  <unicode hex="0053"/>
  <outline>
    <contour>
      <point x="504" y="-16" type="qcurve" smooth="yes"/>
      <point x="382" y="-16"/>
      <point x="171" y="73"/>
      <point x="41" y="252"/>
      <point x="41" y="388" type="qcurve"/>
      <point x="246" y="424" type="line"/>
      <point x="246" y="296"/>
      <point x="398" y="170"/>
      <point x="522" y="170" type="qcurve" smooth="yes"/>
      <point x="661" y="170"/>
      <point x="822" y="310"/>
      <point x="822" y="416" type="qcurve" smooth="yes"/>
      <point x="822" y="484"/>
      <point x="756" y="580"/>
      <point x="658" y="643"/>
      <point x="574" y="685" type="qcurve" smooth="yes"/>
      <point x="478" y="733"/>
      <point x="361" y="815"/>
      <point x="324" y="875" type="qcurve"/>
      <point x="283" y="938"/>
      <point x="283" y="1031" type="qcurve" smooth="yes"/>
      <point x="283" y="1151"/>
      <point x="410" y="1333"/>
      <point x="620" y="1434"/>
      <point x="744" y="1434" type="qcurve" smooth="yes"/>
      <point x="879" y="1434"/>
      <point x="1095" y="1312"/>
      <point x="1139" y="1192" type="qcurve"/>
      <point x="968" y="1109" type="line"/>
      <point x="945" y="1183"/>
      <point x="819" y="1261"/>
      <point x="741" y="1261" type="qcurve" smooth="yes"/>
      <point x="676" y="1261"/>
      <point x="561" y="1208"/>
      <point x="489" y="1112"/>
      <point x="489" y="1048" type="qcurve" smooth="yes"/>
      <point x="489" y="991"/>
      <point x="550" y="908"/>
      <point x="639" y="851"/>
      <point x="719" y="809" type="qcurve" smooth="yes"/>
      <point x="821" y="757"/>
      <point x="944" y="667"/>
      <point x="985" y="603" type="qcurve"/>
      <point x="1028" y="533"/>
      <point x="1028" y="433" type="qcurve" smooth="yes"/>
      <point x="1028" y="298"/>
      <point x="882" y="96"/>
      <point x="644" y="-16"/>
    </contour>
  </outline>
</glyph>
<glyph name="U" format="2">
  <advance width="1367"/>
  <unicode hex="0055"/>
  <outline>
    <contour>
      <point x="576" y="-20" type="qcurve" smooth="yes"/>
      <point x="363" y="-20"/>
      <point x="157" y="187"/>
      <point x="157" y="364" type="qcurve" smooth="yes"/>
      <point x="157" y="445"/>
      <point x="179" y="542" type="qcurve" smooth="yes"/>
      <point x="380" y="1413" type="line"/>
      <point x="583" y="1413" type="line"/>
      <point x="387" y="562" type="line" smooth="yes"/>
      <point x="363" y="458"/>
      <point x="363" y="387" type="qcurve" smooth="yes"/>
      <point x="363" y="278"/>
      <point x="478" y="175"/>
      <point x="596" y="175" type="qcurve" smooth="yes"/>
      <point x="772" y="175"/>
      <point x="970" y="387"/>
      <point x="1014" y="579" type="qcurve" smooth="yes"/>
      <point x="1207" y="1413" type="line"/>
      <point x="1410" y="1413" type="line"/>
      <point x="1208" y="535" type="line" smooth="yes"/>
      <point x="1149" y="279"/>
      <point x="833" y="-20"/>
    </contour>
  </outline>
</glyph>
<glyph name="bracketright" format="2">
  <advance width="641"/>
  <unicode hex="005D"/>
  <outline>
    <contour>
      <point x="303" y="-126" type="line"/>
      <point x="-91" y="-126" type="line"/>
      <point x="-61" y="0" type="line"/>
      <point x="174" y="0" type="line"/>
      <point x="500" y="1412" type="line"/>
      <point x="265" y="1412" type="line"/>
      <point x="293" y="1536" type="line"/>
      <point x="687" y="1536" type="line"/>
    </contour>
  </outline>
</glyph>
<glyph name="b" format="2">
  <advance width="1153"/>
  <unicode hex="0062"/>
  <outline>
    <contour>
      <point x="549" y="-20" type="qcurve" smooth="yes"/>
      <point x="447" y="-20"/>
      <point x="309" y="59"/>
      <point x="275" y="127" type="qcurve"/>
      <point x="243" y="0" type="line"/>
      <point x="46" y="0" type="line"/>
      <point x="371" y="1412" type="line"/>
      <point x="569" y="1412" type="line"/>
      <point x="443" y="886" type="line"/>
      <point x="577" y="1021"/>
      <point x="761" y="1021" type="qcurve" smooth="yes"/>
      <point x="870" y="1021"/>
      <point x="1015" y="925"/>
      <point x="1087" y="758"/>
      <point x="1087" y="651" type="qcurve" smooth="yes"/>
      <point x="1087" y="551"/>
      <point x="1025" y="328"/>
      <point x="962" y="229" type="qcurve" smooth="yes"/>
      <point x="891" y="118"/>
      <point x="681" y="-20"/>
    </contour>
    <contour>
      <point x="515" y="155" type="qcurve" smooth="yes"/>
      <point x="610" y="155"/>
      <point x="758" y="253"/>
      <point x="857" y="417"/>
      <point x="879" y="518" type="qcurve" smooth="yes"/>
      <point x="893" y="580"/>
      <point x="893" y="634" type="qcurve" smooth="yes"/>
      <point x="893" y="696"/>
      <point x="854" y="792"/>
      <point x="768" y="847"/>
      <point x="699" y="847" type="qcurve" smooth="yes"/>
      <point x="605" y="847"/>
      <point x="459" y="748"/>
      <point x="360" y="583"/>
      <point x="337" y="482" type="qcurve" smooth="yes"/>
      <point x="322" y="419"/>
      <point x="322" y="364" type="qcurve" smooth="yes"/>
      <point x="322" y="303"/>
      <point x="361" y="209"/>
      <point x="447" y="155"/>
    </contour>
  </outline>
</glyph>
<glyph name="g" format="2">
  <advance width="1150"/>
  <unicode hex="0067"/>
  <outline>
    <contour>
      <point x="341" y="-436" type="qcurve" smooth="yes"/>
      <point x="194" y="-436"/>
      <point x="8" y="-322"/>
      <point x="-37" y="-223" type="qcurve"/>
      <point x="128" y="-130" type="line"/>
      <point x="150" y="-194"/>
      <point x="264" y="-267"/>
      <point x="357" y="-267" type="qcurve" smooth="yes"/>
      <point x="487" y="-267"/>
      <point x="652" y="-116"/>
      <point x="681" y="8" type="qcurve"/>
      <point x="711" y="125" type="line"/>
      <point x="645" y="57"/>
      <point x="484" y="-9"/>
      <point x="396" y="-9" type="qcurve" smooth="yes"/>
      <point x="285" y="-9"/>
      <point x="139" y="87"/>
      <point x="67" y="253"/>
      <point x="67" y="358" type="qcurve" smooth="yes"/>
      <point x="67" y="459"/>
      <point x="130" y="677"/>
      <point x="191" y="773" type="qcurve" smooth="yes"/>
      <point x="261" y="883"/>
      <point x="472" y="1020"/>
      <point x="606" y="1020" type="qcurve" smooth="yes"/>
      <point x="701" y="1020"/>
      <point x="842" y="942"/>
      <point x="877" y="873" type="qcurve"/>
      <point x="909" y="999" type="line"/>
      <point x="1104" y="999" type="line"/>
      <point x="871" y="-8" type="line" smooth="yes"/>
      <point x="841" y="-138"/>
      <point x="701" y="-330"/>
      <point x="485" y="-436"/>
    </contour>
    <contour>
      <point x="457" y="167" type="qcurve" smooth="yes"/>
      <point x="551" y="167"/>
      <point x="696" y="263"/>
      <point x="793" y="424"/>
      <point x="816" y="524" type="qcurve" smooth="yes"/>
      <point x="830" y="586"/>
      <point x="830" y="638" type="qcurve" smooth="yes"/>
      <point x="830" y="699"/>
      <point x="791" y="793"/>
      <point x="707" y="846"/>
      <point x="638" y="846" type="qcurve" smooth="yes"/>
      <point x="543" y="846"/>
      <point x="396" y="747"/>
      <point x="299" y="585"/>
      <point x="277" y="487" type="qcurve" smooth="yes"/>
      <point x="262" y="420"/>
      <point x="262" y="373" type="qcurve" smooth="yes"/>
      <point x="262" y="313"/>
      <point x="302" y="220"/>
      <point x="388" y="167"/>
    </contour>
  </outline>
</glyph>
<glyph name="h" format="2">
  <advance width="1145"/>
  <unicode hex="0068"/>
  <outline>
    <contour>
      <point x="899" y="0" type="line"/>
      <point x="702" y="0" type="line"/>
      <point x="838" y="590" type="line" smooth="yes"/>
      <point x="853" y="655"/>
      <point x="853" y="701" type="qcurve" smooth="yes"/>
      <point x="853" y="835"/>
      <point x="721" y="835" type="qcurve" smooth="yes"/>
      <point x="637" y="835"/>
      <point x="486" y="747"/>
      <point x="380" y="612"/>
      <point x="363" y="538" type="qcurve" smooth="yes"/>
      <point x="239" y="0" type="line"/>
      <point x="45" y="0" type="line"/>
      <point x="370" y="1413" type="line"/>
      <point x="565" y="1413" type="line"/>
      <point x="435" y="865" type="line"/>
      <point x="509" y="943"/>
      <point x="686" y="1016"/>
      <point x="769" y="1016" type="qcurve" smooth="yes"/>
      <point x="913" y="1016"/>
      <point x="1052" y="857"/>
      <point x="1052" y="729" type="qcurve" smooth="yes"/>
      <point x="1052" y="670"/>
      <point x="1036" y="600" type="qcurve" smooth="yes"/>
    </contour>
  </outline>
</glyph>
<glyph name="i" format="2">
  <advance width="511"/>
  <unicode hex="0069"/>
  <outline>
    <contour>
      <point x="525" y="1205" type="line"/>
      <point x="314" y="1205" type="line"/>
      <point x="362" y="1413" type="line"/>
      <point x="573" y="1413" type="line"/>
    </contour>
    <contour>
      <point x="238" y="0" type="line"/>
      <point x="44" y="0" type="line"/>
      <point x="273" y="999" type="line"/>
      <point x="467" y="999" type="line"/>
    </contour>
  </outline>
</glyph>
<glyph name="j" format="2">
  <advance width="518"/>
  <unicode hex="006A"/>
  <outline>
    <contour>
      <point x="529" y="1198" type="line"/>
      <point x="316" y="1198" type="line"/>
      <point x="367" y="1416" type="line"/>
      <point x="580" y="1416" type="line"/>
    </contour>
    <contour>
      <point x="-118" y="-438" type="qcurve" smooth="yes"/>
      <point x="-202" y="-438"/>
      <point x="-280" y="-403" type="qcurve"/>
      <point x="-210" y="-251" type="line"/>
      <point x="-164" y="-268"/>
      <point x="-117" y="-268" type="qcurve" smooth="yes"/>
      <point x="-64" y="-268"/>
      <point x="1" y="-195"/>
      <point x="13" y="-143" type="qcurve" smooth="yes"/>
      <point x="276" y="999" type="line"/>
      <point x="473" y="999" type="line"/>
      <point x="210" y="-140" type="line" smooth="yes"/>
      <point x="190" y="-228"/>
      <point x="106" y="-361"/>
      <point x="-26" y="-438"/>
    </contour>
  </outline>
</glyph>
<glyph name="k" format="2">
  <advance width="1083"/>
  <unicode hex="006B"/>
  <outline>
    <contour>
      <point x="952" y="0" type="line"/>
      <point x="728" y="0" type="line"/>
      <point x="544" y="499" type="line"/>
      <point x="310" y="293" type="line"/>
      <point x="240" y="0" type="line"/>
      <point x="46" y="0" type="line"/>
      <point x="371" y="1413" type="line"/>
      <point x="566" y="1413" type="line"/>
      <point x="356" y="518" type="line"/>
      <point x="881" y="999" type="line"/>
      <point x="1133" y="999" type="line"/>
      <point x="696" y="623" type="line"/>
    </contour>
  </outline>
</glyph>
<glyph name="l" format="2">
  <advance width="547"/>
  <unicode hex="006C"/>
  <outline>
    <contour>
      <point x="235" y="-20" type="qcurve" smooth="yes"/>
      <point x="155" y="-20"/>
      <point x="75" y="47"/>
      <point x="75" y="120" type="qcurve" smooth="yes"/>
      <point x="75" y="160"/>
      <point x="87" y="209" type="qcurve"/>
      <point x="366" y="1413" type="line"/>
      <point x="560" y="1413" type="line"/>
      <point x="281" y="210" type="line" smooth="yes"/>
      <point x="278" y="198"/>
      <point x="278" y="188" type="qcurve" smooth="yes"/>
      <point x="278" y="149"/>
      <point x="328" y="149" type="qcurve" smooth="yes"/>
      <point x="354" y="149"/>
      <point x="406" y="161" type="qcurve"/>
      <point x="411" y="162" type="line"/>
      <point x="386" y="-2" type="line"/>
      <point x="307" y="-20"/>
    </contour>
  </outline>
</glyph>
<glyph name="m" format="2">
  <advance width="1721"/>
  <unicode hex="006D"/>
  <outline>
    <contour>
      <point x="1474" y="0" type="line"/>
      <point x="1278" y="0" type="line"/>
      <point x="1413" y="590" type="line" smooth="yes"/>
      <point x="1428" y="655"/>
      <point x="1428" y="703" type="qcurve" smooth="yes"/>
      <point x="1428" y="844"/>
      <point x="1294" y="844" type="qcurve" smooth="yes"/>
      <point x="1218" y="844"/>
      <point x="1088" y="760"/>
      <point x="999" y="628"/>
      <point x="982" y="552" type="qcurve" smooth="yes"/>
      <point x="856" y="0" type="line"/>
      <point x="659" y="0" type="line"/>
      <point x="796" y="594" type="line" smooth="yes"/>
      <point x="811" y="659"/>
      <point x="811" y="706" type="qcurve" smooth="yes"/>
      <point x="811" y="772"/>
      <point x="749" y="844"/>
      <point x="678" y="844" type="qcurve" smooth="yes"/>
      <point x="601" y="844"/>
      <point x="472" y="760"/>
      <point x="383" y="628"/>
      <point x="365" y="552" type="qcurve" smooth="yes"/>
      <point x="239" y="0" type="line"/>
      <point x="44" y="0" type="line"/>
      <point x="273" y="999" type="line"/>
      <point x="468" y="999" type="line"/>
      <point x="436" y="867" type="line"/>
      <point x="495" y="944"/>
      <point x="646" y="1018"/>
      <point x="721" y="1018" type="qcurve" smooth="yes"/>
      <point x="832" y="1018"/>
      <point x="963" y="921"/>
      <point x="982" y="838" type="qcurve"/>
      <point x="1130" y="1016"/>
      <point x="1338" y="1016" type="qcurve" smooth="yes"/>
      <point x="1485" y="1016"/>
      <point x="1627" y="854"/>
      <point x="1627" y="724" type="qcurve" smooth="yes"/>
      <point x="1627" y="665"/>
      <point x="1611" y="595" type="qcurve" smooth="yes"/>
    </contour>
  </outline>
</glyph>
<glyph name="n" format="2">
  <advance width="1145"/>
  <unicode hex="006E"/>
  <outline>
    <contour>
      <point x="897" y="0" type="line"/>
      <point x="701" y="0" type="line"/>
      <point x="837" y="590" type="line" smooth="yes"/>
      <point x="851" y="651"/>
      <point x="851" y="700" type="qcurve" smooth="yes"/>
      <point x="851" y="766"/>
      <point x="788" y="834"/>
      <point x="718" y="834" type="qcurve" smooth="yes"/>
      <point x="637" y="834"/>
      <point x="487" y="750"/>
      <point x="383" y="621"/>
      <point x="366" y="550" type="qcurve" smooth="yes"/>
      <point x="239" y="0" type="line"/>
      <point x="44" y="0" type="line"/>
      <point x="273" y="999" type="line"/>
      <point x="469" y="999" type="line"/>
      <point x="436" y="868" type="line"/>
      <point x="509" y="944"/>
      <point x="682" y="1016"/>
      <point x="763" y="1016" type="qcurve" smooth="yes"/>
      <point x="910" y="1016"/>
      <point x="1050" y="857"/>
      <point x="1050" y="727" type="qcurve" smooth="yes"/>
      <point x="1050" y="667"/>
      <point x="1034" y="595" type="qcurve" smooth="yes"/>
    </contour>
  </outline>
</glyph>
<glyph name="o" format="2">
  <advance width="1127"/>
  <unicode hex="006F"/>
  <outline>
    <contour>
      <point x="455" y="-20" type="qcurve" smooth="yes"/>
      <point x="328" y="-20"/>
      <point x="151" y="84"/>
      <point x="58" y="264"/>
      <point x="58" y="378" type="qcurve" smooth="yes"/>
      <point x="58" y="499"/>
      <point x="148" y="718"/>
      <point x="303" y="891"/>
      <point x="404" y="946" type="qcurve" smooth="yes"/>
      <point x="528" y="1012"/>
      <point x="668" y="1012" type="qcurve" smooth="yes"/>
      <point x="795" y="1012"/>
      <point x="973" y="907"/>
      <point x="1065" y="727"/>
      <point x="1065" y="614" type="qcurve" smooth="yes"/>
      <point x="1065" y="492"/>
      <point x="975" y="273"/>
      <point x="820" y="101"/>
      <point x="720" y="47" type="qcurve" smooth="yes"/>
      <point x="595" y="-20"/>
    </contour>
    <contour>
      <point x="470" y="149" type="qcurve" smooth="yes"/>
      <point x="573" y="149"/>
      <point x="726" y="248"/>
      <point x="826" y="413"/>
      <point x="850" y="514" type="qcurve" smooth="yes"/>
      <point x="864" y="576"/>
      <point x="864" y="629" type="qcurve" smooth="yes"/>
      <point x="864" y="727"/>
      <point x="763" y="843"/>
      <point x="653" y="843" type="qcurve" smooth="yes"/>
      <point x="551" y="843"/>
      <point x="398" y="743"/>
      <point x="297" y="578"/>
      <point x="274" y="477" type="qcurve" smooth="yes"/>
      <point x="260" y="415"/>
      <point x="260" y="362" type="qcurve" smooth="yes"/>
      <point x="260" y="265"/>
      <point x="361" y="149"/>
    </contour>
  </outline>
</glyph>
<glyph name="q" format="2">
  <advance width="1150"/>
  <unicode hex="0071"/>
  <outline>
    <contour>
      <point x="773" y="-438" type="line"/>
      <point x="577" y="-438" type="line"/>
      <point x="709" y="113" type="line"/>
      <point x="575" y="-20"/>
      <point x="390" y="-20" type="qcurve" smooth="yes"/>
      <point x="281" y="-20"/>
      <point x="137" y="76"/>
      <point x="65" y="242"/>
      <point x="65" y="349" type="qcurve" smooth="yes"/>
      <point x="65" y="448"/>
      <point x="127" y="670"/>
      <point x="191" y="771" type="qcurve" smooth="yes"/>
      <point x="261" y="882"/>
      <point x="471" y="1020"/>
      <point x="603" y="1020" type="qcurve" smooth="yes"/>
      <point x="704" y="1020"/>
      <point x="842" y="942"/>
      <point x="877" y="873" type="qcurve"/>
      <point x="913" y="999" type="line"/>
      <point x="1104" y="999" type="line"/>
    </contour>
    <contour>
      <point x="453" y="155" type="qcurve" smooth="yes"/>
      <point x="548" y="155"/>
      <point x="693" y="251"/>
      <point x="791" y="415"/>
      <point x="814" y="518" type="qcurve" smooth="yes"/>
      <point x="829" y="581"/>
      <point x="829" y="639" type="qcurve" smooth="yes"/>
      <point x="829" y="700"/>
      <point x="790" y="793"/>
      <point x="706" y="846"/>
      <point x="638" y="846" type="qcurve" smooth="yes"/>
      <point x="542" y="846"/>
      <point x="395" y="746"/>
      <point x="298" y="581"/>
      <point x="276" y="482" type="qcurve" smooth="yes"/>
      <point x="261" y="419"/>
      <point x="261" y="363" type="qcurve" smooth="yes"/>
      <point x="261" y="302"/>
      <point x="300" y="208"/>
      <point x="385" y="155"/>
    </contour>
  </outline>
</glyph>
<glyph name="r" format="2">
  <advance width="808"/>
  <unicode hex="0072"/>
  <outline>
    <contour>
      <point x="234" y="0" type="line"/>
      <point x="44" y="0" type="line"/>
      <point x="273" y="999" type="line"/>
      <point x="462" y="999" type="line"/>
      <point x="425" y="826" type="line"/>
      <point x="479" y="924"/>
      <point x="647" y="1014"/>
      <point x="721" y="1014" type="qcurve" smooth="yes"/>
      <point x="769" y="1014"/>
      <point x="870" y="982"/>
      <point x="903" y="953" type="qcurve"/>
      <point x="798" y="804" type="line"/>
      <point x="748" y="841"/>
      <point x="681" y="841" type="qcurve" smooth="yes"/>
      <point x="560" y="841"/>
      <point x="377" y="617"/>
      <point x="334" y="434" type="qcurve" smooth="yes"/>
    </contour>
  </outline>
</glyph>
<glyph name="s" format="2">
  <advance width="891"/>
  <unicode hex="0073"/>
  <outline>
    <contour>
      <point x="368" y="-20" type="qcurve" smooth="yes"/>
      <point x="259" y="-20"/>
      <point x="100" y="59"/>
      <point x="9" y="182"/>
      <point x="1" y="251" type="qcurve"/>
      <point x="169" y="309" type="line"/>
      <point x="177" y="241"/>
      <point x="282" y="146"/>
      <point x="375" y="146" type="qcurve" smooth="yes"/>
      <point x="439" y="146"/>
      <point x="533" y="195"/>
      <point x="584" y="272"/>
      <point x="584" y="314" type="qcurve" smooth="yes"/>
      <point x="584" y="355"/>
      <point x="537" y="407"/>
      <point x="466" y="436"/>
      <point x="405" y="454" type="qcurve" smooth="yes"/>
      <point x="322" y="478"/>
      <point x="221" y="530"/>
      <point x="188" y="575" type="qcurve" smooth="yes"/>
      <point x="152" y="623"/>
      <point x="152" y="704" type="qcurve" smooth="yes"/>
      <point x="152" y="803"/>
      <point x="254" y="941"/>
      <point x="423" y="1014"/>
      <point x="523" y="1014" type="qcurve" smooth="yes"/>
      <point x="656" y="1014"/>
      <point x="836" y="896"/>
      <point x="868" y="804" type="qcurve"/>
      <point x="707" y="737" type="line"/>
      <point x="690" y="792"/>
      <point x="594" y="860"/>
      <point x="516" y="860" type="qcurve" smooth="yes"/>
      <point x="441" y="860"/>
      <point x="339" y="791"/>
      <point x="339" y="725" type="qcurve" smooth="yes"/>
      <point x="339" y="686"/>
      <point x="385" y="636"/>
      <point x="453" y="607"/>
      <point x="515" y="587" type="qcurve" smooth="yes"/>
      <point x="600" y="561"/>
      <point x="705" y="505"/>
      <point x="739" y="459" type="qcurve" smooth="yes"/>
      <point x="776" y="408"/>
      <point x="776" y="325" type="qcurve" smooth="yes"/>
      <point x="776" y="226"/>
      <point x="663" y="70"/>
      <point x="477" y="-20"/>
    </contour>
  </outline>
</glyph>
<glyph name="v" format="2">
  <advance width="977"/>
  <unicode hex="0076"/>
  <outline>
    <contour>
      <point x="457" y="0" type="line"/>
      <point x="293" y="0" type="line"/>
      <point x="134" y="999" type="line"/>
      <point x="342" y="999" type="line"/>
      <point x="427" y="251" type="line"/>
      <point x="864" y="999" type="line"/>
      <point x="1076" y="999" type="line"/>
    </contour>
  </outline>
</glyph>
<glyph name="w" format="2">
  <advance width="1445"/>
  <unicode hex="0077"/>
  <outline>
    <contour>
      <point x="391" y="-2" type="line"/>
      <point x="211" y="-2" type="line"/>
      <point x="150" y="999" type="line"/>
      <point x="354" y="999" type="line"/>
      <point x="374" y="280" type="line"/>
      <point x="751" y="999" type="line"/>
      <point x="923" y="999" type="line"/>
      <point x="965" y="282" type="line"/>
      <point x="1321" y="999" type="line"/>
      <point x="1530" y="999" type="line"/>
      <point x="1006" y="0" type="line"/>
      <point x="825" y="0" type="line"/>
      <point x="782" y="738" type="line"/>
    </contour>
  </outline>
</glyph>
<glyph name="z" format="2">
  <advance width="968"/>
  <unicode hex="007A"/>
  <outline>
    <contour>
      <point x="777" y="0" type="line"/>
      <point x="-53" y="0" type="line"/>
      <point x="-24" y="136" type="line"/>
      <point x="725" y="838" type="line"/>
      <point x="169" y="838" type="line"/>
      <point x="205" y="999" type="line"/>
      <point x="1007" y="999" type="line"/>
      <point x="976" y="852" type="line"/>
      <point x="246" y="164" type="line"/>
      <point x="815" y="164" type="line"/>
    </contour>
  </outline>
</glyph>
<glyph name="braceleft" format="2">
  <advance width="611"/>
  <unicode hex="007B"/>
  <outline>
    <contour>
      <point x="338" y="-136" type="line"/>
      <point x="266" y="-136" type="line" smooth="yes"/>
      <point x="156" y="-136"/>
      <point x="122" y="-29" type="qcurve"/>
      <point x="104" y="-8"/>
      <point x="104" y="37" type="qcurve" smooth="yes"/>
      <point x="104" y="75"/>
      <point x="116" y="124" type="qcurve" smooth="yes"/>
      <point x="200" y="488" type="line" smooth="yes"/>
      <point x="202" y="495"/>
      <point x="202" y="506" type="qcurve" smooth="yes"/>
      <point x="202" y="537"/>
      <point x="153" y="576"/>
      <point x="100" y="597" type="qcurve"/>
      <point x="120" y="733" type="line"/>
      <point x="269" y="775"/>
      <point x="292" y="886" type="qcurve"/>
      <point x="391" y="1313" type="line"/>
      <point x="417" y="1432"/>
      <point x="548" y="1539"/>
      <point x="662" y="1539" type="qcurve" smooth="yes"/>
      <point x="758" y="1539"/>
      <point x="779" y="1537" type="qcurve"/>
      <point x="763" y="1414" type="line"/>
      <point x="726" y="1422"/>
      <point x="689" y="1422" type="qcurve" smooth="yes"/>
      <point x="635" y="1422"/>
      <point x="577" y="1390"/>
      <point x="571" y="1364" type="qcurve" smooth="yes"/>
      <point x="455" y="856" type="line"/>
      <point x="430" y="721"/>
      <point x="245" y="648" type="qcurve"/>
      <point x="301" y="626"/>
      <point x="369" y="553"/>
      <point x="369" y="505" type="qcurve" smooth="yes"/>
      <point x="369" y="490"/>
      <point x="366" y="475" type="qcurve" smooth="yes"/>
      <point x="282" y="113" type="line" smooth="yes"/>
      <point x="275" y="84"/>
      <point x="275" y="58" type="qcurve" smooth="yes"/>
      <point x="275" y="-18"/>
      <point x="358" y="-18" type="qcurve" smooth="yes"/>
      <point x="386" y="-18"/>
      <point x="423" y="-7" type="qcurve"/>
      <point x="406" y="-134" type="line"/>
    </contour>
  </outline>
</glyph>
<glyph name="exclamdown" format="2">
  <advance width="635"/>
  <unicode hex="00A1"/>
  <outline>
    <contour>
      <point x="495" y="773" type="line"/>
      <point x="266" y="773" type="line"/>
      <point x="317" y="999" type="line"/>
      <point x="546" y="999" type="line"/>
    </contour>
    <contour>
      <point x="203" y="-435" type="line"/>
      <point x="-1" y="-435" type="line"/>
      <point x="266" y="597" type="line"/>
      <point x="413" y="597" type="line"/>
    </contour>
  </outline>
</glyph>
<glyph name="cent" format="2">
  <advance width="1131"/>
  <unicode hex="00A2"/>
  <outline>
    <contour>
      <point x="504" y="-205" type="line"/>
      <point x="359" y="-205" type="line"/>
      <point x="411" y="-17" type="line"/>
      <point x="313" y="-1"/>
      <point x="187" y="102"/>
      <point x="128" y="259"/>
      <point x="128" y="353" type="qcurve" smooth="yes"/>
      <point x="128" y="445"/>
      <point x="184" y="651"/>
      <point x="242" y="746" type="qcurve" smooth="yes"/>
      <point x="304" y="849"/>
      <point x="503" y="994"/>
      <point x="636" y="1015" type="qcurve"/>
      <point x="685" y="1200" type="line"/>
      <point x="828" y="1200" type="line"/>
      <point x="779" y="1013" type="line"/>
      <point x="899" y="993"/>
      <point x="1036" y="845"/>
      <point x="1060" y="731" type="qcurve"/>
      <point x="871" y="676" type="line"/>
      <point x="864" y="851"/>
      <point x="690" y="851" type="qcurve" smooth="yes"/>
      <point x="594" y="851"/>
      <point x="448" y="746"/>
      <point x="352" y="577"/>
      <point x="329" y="479" type="qcurve"/>
      <point x="314" y="409"/>
      <point x="314" y="355" type="qcurve" smooth="yes"/>
      <point x="314" y="260"/>
      <point x="404" y="144"/>
      <point x="503" y="144" type="qcurve" smooth="yes"/>
      <point x="599" y="144"/>
      <point x="746" y="250"/>
      <point x="789" y="336" type="qcurve"/>
      <point x="941" y="251" type="line"/>
      <point x="802" y="16"/>
      <point x="551" y="-20" type="qcurve"/>
    </contour>
  </outline>
</glyph>
<glyph name="sterling" format="2">
  <advance width="1224"/>
  <unicode hex="00A3"/>
  <outline>
    <contour>
      <point x="1064" y="0" type="line"/>
      <point x="36" y="0" type="line"/>
      <point x="71" y="151" type="line"/>
      <point x="305" y="282"/>
      <point x="368" y="433" type="qcurve"/>
      <point x="405" y="516"/>
      <point x="405" y="627" type="qcurve"/>
      <point x="182" y="627" type="line"/>
      <point x="221" y="785" type="line"/>
      <point x="405" y="785" type="line"/>
      <point x="396" y="841"/>
      <point x="396" y="896" type="qcurve" smooth="yes"/>
      <point x="396" y="1035"/>
      <point x="514" y="1285"/>
      <point x="631" y="1365" type="qcurve"/>
      <point x="742" y="1439"/>
      <point x="885" y="1439" type="qcurve" smooth="yes"/>
      <point x="984" y="1439"/>
      <point x="1132" y="1354"/>
      <point x="1222" y="1216"/>
      <point x="1234" y="1133" type="qcurve"/>
      <point x="1072" y="1093" type="line"/>
      <point x="1058" y="1180"/>
      <point x="946" y="1272"/>
      <point x="871" y="1272" type="qcurve" smooth="yes"/>
      <point x="771" y="1272"/>
      <point x="630" y="1162"/>
      <point x="556" y="985"/>
      <point x="556" y="884" type="qcurve" smooth="yes"/>
      <point x="556" y="835"/>
      <point x="565" y="785" type="qcurve"/>
      <point x="1044" y="785" type="line"/>
      <point x="1005" y="627" type="line"/>
      <point x="565" y="627" type="line"/>
      <point x="565" y="478"/>
      <point x="457" y="232"/>
      <point x="336" y="162" type="qcurve"/>
      <point x="1102" y="167" type="line"/>
    </contour>
  </outline>
</glyph>
<glyph name="currency" format="2">
  <advance width="1152"/>
  <unicode hex="00A4"/>
  <outline>
    <contour>
      <point x="870" y="149" type="line"/>
      <point x="787" y="251" type="line"/>
      <point x="656" y="170"/>
      <point x="517" y="170" type="qcurve" smooth="yes"/>
      <point x="446" y="170"/>
      <point x="315" y="215"/>
      <point x="263" y="261" type="qcurve"/>
      <point x="128" y="149" type="line"/>
      <point x="41" y="264" type="line"/>
      <point x="176" y="374" type="line"/>
      <point x="138" y="452"/>
      <point x="138" y="542" type="qcurve" smooth="yes"/>
      <point x="138" y="633"/>
      <point x="216" y="820"/>
      <point x="293" y="900" type="qcurve"/>
      <point x="213" y="995" type="line"/>
      <point x="345" y="1111" type="line"/>
      <point x="425" y="1009" type="line"/>
      <point x="556" y="1091"/>
      <point x="697" y="1091" type="qcurve" smooth="yes"/>
      <point x="768" y="1091"/>
      <point x="898" y="1046"/>
      <point x="950" y="1000" type="qcurve"/>
      <point x="1082" y="1109" type="line"/>
      <point x="1171" y="999" type="line"/>
      <point x="1039" y="889" type="line"/>
      <point x="1076" y="814"/>
      <point x="1076" y="721" type="qcurve" smooth="yes"/>
      <point x="1076" y="630"/>
      <point x="999" y="441"/>
      <point x="922" y="359" type="qcurve"/>
      <point x="1003" y="264" type="line"/>
    </contour>
    <contour>
      <point x="525" y="328" type="qcurve" smooth="yes"/>
      <point x="650" y="328"/>
      <point x="782" y="430" type="qcurve"/>
      <point x="853" y="488"/>
      <point x="928" y="639"/>
      <point x="928" y="711" type="qcurve" smooth="yes"/>
      <point x="928" y="781"/>
      <point x="866" y="880"/>
      <point x="762" y="933"/>
      <point x="698" y="933" type="qcurve" smooth="yes"/>
      <point x="605" y="933"/>
      <point x="393" y="811"/>
      <point x="333" y="701" type="qcurve"/>
      <point x="294" y="624"/>
      <point x="294" y="548" type="qcurve" smooth="yes"/>
      <point x="294" y="445"/>
      <point x="427" y="328"/>
    </contour>
  </outline>
</glyph>
<glyph name="yen" format="2">
  <advance width="1317"/>
  <unicode hex="00A5"/>
  <outline>
    <contour>
      <point x="631" y="0" type="line"/>
      <point x="457" y="0" type="line"/>
      <point x="514" y="249" type="line"/>
      <point x="215" y="249" type="line"/>
      <point x="248" y="397" type="line"/>
      <point x="547" y="397" type="line"/>
      <point x="576" y="515" type="line"/>
      <point x="277" y="515" type="line"/>
      <point x="311" y="664" type="line"/>
      <point x="543" y="664" type="line"/>
      <point x="241" y="1413" type="line"/>
      <point x="443" y="1413" type="line"/>
      <point x="707" y="727" type="line"/>
      <point x="1292" y="1413" type="line"/>
      <point x="1502" y="1413" type="line"/>
      <point x="856" y="663" type="line"/>
      <point x="1083" y="663" type="line"/>
      <point x="1050" y="515" type="line"/>
      <point x="750" y="515" type="line"/>
      <point x="721" y="397" type="line"/>
      <point x="1021" y="397" type="line"/>
      <point x="988" y="249" type="line"/>
      <point x="688" y="249" type="line"/>
    </contour>
  </outline>
</glyph>
<glyph name="section" format="2">
  <advance width="1119"/>
  <unicode hex="00A7"/>
  <outline>
    <contour>
      <point x="459" y="-18" type="qcurve" smooth="yes"/>
      <point x="360" y="-18"/>
      <point x="194" y="45"/>
      <point x="95" y="177"/>
      <point x="93" y="279" type="qcurve"/>
      <point x="284" y="319" type="line"/>
      <point x="284" y="227"/>
      <point x="379" y="143"/>
      <point x="481" y="143" type="qcurve" smooth="yes"/>
      <point x="579" y="143"/>
      <point x="726" y="220"/>
      <point x="744" y="302" type="qcurve" smooth="yes"/>
      <point x="747" y="314"/>
      <point x="747" y="325" type="qcurve" smooth="yes"/>
      <point x="747" y="361"/>
      <point x="693" y="406"/>
      <point x="612" y="431"/>
      <point x="540" y="447" type="qcurve" smooth="yes"/>
      <point x="440" y="470"/>
      <point x="320" y="517"/>
      <point x="282" y="558" type="qcurve"/>
      <point x="239" y="602"/>
      <point x="239" y="676" type="qcurve" smooth="yes"/>
      <point x="239" y="739"/>
      <point x="309" y="884"/>
      <point x="391" y="952" type="qcurve"/>
      <point x="337" y="1005"/>
      <point x="337" y="1087" type="qcurve" smooth="yes"/>
      <point x="337" y="1161"/>
      <point x="403" y="1284"/>
      <point x="514" y="1375"/>
      <point x="583" y="1401" type="qcurve" smooth="yes"/>
      <point x="672" y="1434"/>
      <point x="765" y="1434" type="qcurve" smooth="yes"/>
      <point x="905" y="1434"/>
      <point x="1074" y="1305"/>
      <point x="1096" y="1204" type="qcurve"/>
      <point x="921" y="1144" type="line"/>
      <point x="911" y="1277"/>
      <point x="747" y="1277" type="qcurve" smooth="yes"/>
      <point x="658" y="1277"/>
      <point x="519" y="1186"/>
      <point x="500" y="1110" type="qcurve" smooth="yes"/>
      <point x="498" y="1103"/>
      <point x="498" y="1089" type="qcurve" smooth="yes"/>
      <point x="498" y="1056"/>
      <point x="550" y="1015"/>
      <point x="626" y="993"/>
      <point x="696" y="978" type="qcurve" smooth="yes"/>
      <point x="796" y="957"/>
      <point x="920" y="910"/>
      <point x="962" y="867" type="qcurve" smooth="yes"/>
      <point x="1006" y="821"/>
      <point x="1006" y="743" type="qcurve" smooth="yes"/>
      <point x="1006" y="711"/>
      <point x="997" y="670" type="qcurve"/>
      <point x="968" y="552"/>
      <point x="860" y="466" type="qcurve"/>
      <point x="911" y="419"/>
      <point x="911" y="335" type="qcurve" smooth="yes"/>
      <point x="911" y="253"/>
      <point x="841" y="123"/>
      <point x="723" y="34"/>
      <point x="651" y="11" type="qcurve" smooth="yes"/>
      <point x="558" y="-18"/>
    </contour>
    <contour>
      <point x="692" y="552" type="line"/>
      <point x="815" y="598"/>
      <point x="838" y="706" type="qcurve" smooth="yes"/>
      <point x="841" y="720"/>
      <point x="841" y="731" type="qcurve" smooth="yes"/>
      <point x="841" y="773"/>
      <point x="780" y="823"/>
      <point x="695" y="848"/>
      <point x="623" y="863" type="qcurve" smooth="yes"/>
      <point x="558" y="877" type="line"/>
      <point x="497" y="853"/>
      <point x="421" y="765"/>
      <point x="408" y="714" type="qcurve" smooth="yes"/>
      <point x="406" y="707"/>
      <point x="406" y="693" type="qcurve" smooth="yes"/>
      <point x="406" y="624"/>
      <point x="512" y="594" type="qcurve"/>
      <point x="554" y="581"/>
      <point x="625" y="567" type="qcurve"/>
    </contour>
  </outline>
</glyph>
<glyph name="guillemotleft" format="2">
  <advance width="964"/>
  <unicode hex="00AB"/>
  <outline>
    <contour>
      <point x="367" y="171" type="line"/>
      <point x="47" y="511" type="line"/>
      <point x="520" y="851" type="line"/>
      <point x="481" y="666" type="line"/>
      <point x="257" y="511" type="line"/>
      <point x="406" y="356" type="line"/>
    </contour>
    <contour>
      <point x="731" y="171" type="line"/>
      <point x="410" y="511" type="line"/>
      <point x="884" y="851" type="line"/>
      <point x="845" y="666" type="line"/>
      <point x="619" y="511" type="line"/>
      <point x="770" y="356" type="line"/>
    </contour>
  </outline>
</glyph>
<glyph name="sfthyphen" format="2">
  <advance width="995"/>
  <unicode hex="00AD"/>
  <outline>
    <contour>
      <point x="853" y="545" type="line"/>
      <point x="163" y="545" type="line"/>
      <point x="198" y="692" type="line"/>
      <point x="887" y="692" type="line"/>
    </contour>
  </outline>
</glyph>
<glyph name="twosuperior" format="2">
  <advance width="809"/>
  <unicode hex="00B2"/>
  <outline>
    <contour>
      <point x="660" y="486" type="line"/>
      <point x="-24" y="486" type="line"/>
      <point x="0" y="618" type="line"/>
      <point x="223" y="735"/>
      <point x="389" y="870" type="qcurve"/>
      <point x="596" y="1020"/>
      <point x="631" y="1164" type="qcurve" smooth="yes"/>
      <point x="636" y="1184"/>
      <point x="636" y="1208" type="qcurve" smooth="yes"/>
      <point x="636" y="1253"/>
      <point x="580" y="1304"/>
      <point x="524" y="1304" type="qcurve" smooth="yes"/>
      <point x="463" y="1304"/>
      <point x="369" y="1247"/>
      <point x="304" y="1152"/>
      <point x="287" y="1092" type="qcurve"/>
      <point x="159" y="1112" type="line"/>
      <point x="182" y="1207"/>
      <point x="289" y="1355"/>
      <point x="446" y="1441"/>
      <point x="544" y="1441" type="qcurve" smooth="yes"/>
      <point x="662" y="1441"/>
      <point x="790" y="1323"/>
      <point x="790" y="1231" type="qcurve" smooth="yes"/>
      <point x="790" y="1117"/>
      <point x="620" y="895"/>
      <point x="467" y="775" type="qcurve"/>
      <point x="338" y="680"/>
      <point x="214" y="617" type="qcurve"/>
      <point x="690" y="621" type="line"/>
    </contour>
  </outline>
</glyph>
<glyph name="mu" format="2">
  <advance width="1300"/>
  <unicode hex="00B5"/>
  <outline>
    <contour>
      <point x="232" y="-266" type="line"/>
      <point x="64" y="-266" type="line"/>
      <point x="355" y="999" type="line"/>
      <point x="545" y="999" type="line"/>
      <point x="408" y="401" type="line"/>
      <point x="392" y="337"/>
      <point x="392" y="287" type="qcurve" smooth="yes"/>
      <point x="392" y="151"/>
      <point x="526" y="151" type="qcurve" smooth="yes"/>
      <point x="608" y="151"/>
      <point x="761" y="237"/>
      <point x="869" y="370"/>
      <point x="887" y="443" type="qcurve"/>
      <point x="1014" y="999" type="line"/>
      <point x="1204" y="999" type="line"/>
      <point x="975" y="0" type="line"/>
      <point x="785" y="0" type="line"/>
      <point x="817" y="128" type="line"/>
      <point x="761" y="66"/>
      <point x="589" y="-23"/>
      <point x="494" y="-23" type="qcurve" smooth="yes"/>
      <point x="398" y="-23"/>
      <point x="324" y="23" type="qcurve"/>
    </contour>
  </outline>
</glyph>
<glyph name="questiondown" format="2">
  <advance width="1012"/>
  <unicode hex="00BF"/>
  <outline>
    <contour>
      <point x="690" y="773" type="line"/>
      <point x="461" y="773" type="line"/>
      <point x="512" y="999" type="line"/>
      <point x="741" y="999" type="line"/>
    </contour>
    <contour>
      <point x="319" y="-434" type="qcurve" smooth="yes"/>
      <point x="216" y="-434"/>
      <point x="51" y="-366"/>
      <point x="-46" y="-233"/>
      <point x="-46" y="-134" type="qcurve" smooth="yes"/>
      <point x="-46" y="-70"/>
      <point x="-3" y="69"/>
      <point x="33" y="119" type="qcurve" smooth="yes"/>
      <point x="75" y="176"/>
      <point x="179" y="248"/>
      <point x="255" y="284" type="qcurve" smooth="yes"/>
      <point x="326" y="318"/>
      <point x="402" y="377"/>
      <point x="413" y="422" type="qcurve" smooth="yes"/>
      <point x="454" y="601" type="line"/>
      <point x="624" y="601" type="line"/>
      <point x="578" y="403" type="line"/>
      <point x="545" y="266"/>
      <point x="450" y="205" type="qcurve" smooth="yes"/>
      <point x="403" y="174"/>
      <point x="339" y="142" type="qcurve" smooth="yes"/>
      <point x="284" y="114"/>
      <point x="246" y="90" type="qcurve" smooth="yes"/>
      <point x="161" y="37"/>
      <point x="134" y="-76" type="qcurve" smooth="yes"/>
      <point x="127" y="-104"/>
      <point x="127" y="-130" type="qcurve" smooth="yes"/>
      <point x="127" y="-203"/>
      <point x="237" y="-269"/>
      <point x="324" y="-269" type="qcurve" smooth="yes"/>
      <point x="433" y="-269"/>
      <point x="610" y="-146"/>
      <point x="641" y="-33" type="qcurve"/>
      <point x="815" y="-50" type="line"/>
      <point x="767" y="-236"/>
      <point x="486" y="-434"/>
    </contour>
  </outline>
</glyph>
<glyph name="Aring" format="2">
  <advance width="1329"/>
  <unicode hex="00C5"/>
  <outline>
    <contour>
      <point x="1170" y="0" type="line"/>
      <point x="963" y="0" type="line"/>
      <point x="925" y="307" type="line"/>
      <point x="329" y="307" type="line"/>
      <point x="150" y="0" type="line"/>
      <point x="-75" y="0" type="line"/>
      <point x="754" y="1336" type="line"/>
      <point x="682" y="1387"/>
      <point x="682" y="1482" type="qcurve" smooth="yes"/>
      <point x="682" y="1555"/>
      <point x="759" y="1669"/>
      <point x="875" y="1734"/>
      <point x="935" y="1734" type="qcurve" smooth="yes"/>
      <point x="1017" y="1734"/>
      <point x="1120" y="1630"/>
      <point x="1120" y="1554" type="qcurve" smooth="yes"/>
      <point x="1120" y="1533"/>
      <point x="1113" y="1500" type="qcurve"/>
      <point x="1079" y="1382"/>
      <point x="969" y="1328" type="qcurve"/>
    </contour>
    <contour>
      <point x="876" y="1411" type="qcurve" smooth="yes"/>
      <point x="932" y="1411"/>
      <point x="1008" y="1495"/>
      <point x="1008" y="1543" type="qcurve" smooth="yes"/>
      <point x="1008" y="1578"/>
      <point x="964" y="1624"/>
      <point x="922" y="1624" type="qcurve" smooth="yes"/>
      <point x="881" y="1624"/>
      <point x="823" y="1583"/>
      <point x="792" y="1522"/>
      <point x="792" y="1492" type="qcurve" smooth="yes"/>
      <point x="792" y="1455"/>
      <point x="839" y="1411"/>
    </contour>
    <contour>
      <point x="898" y="486" type="line"/>
      <point x="819" y="1126" type="line"/>
      <point x="440" y="486" type="line"/>
    </contour>
  </outline>
</glyph>
<glyph name="Ccedilla" format="2">
  <advance width="1431"/>
  <unicode hex="00C7"/>
  <outline>
    <contour>
      <point x="534" y="-513" type="qcurve" smooth="yes"/>
      <point x="465" y="-513"/>
      <point x="376" y="-434"/>
      <point x="365" y="-378" type="qcurve"/>
      <point x="488" y="-341" type="line"/>
      <point x="493" y="-393"/>
      <point x="544" y="-393" type="qcurve" smooth="yes"/>
      <point x="590" y="-393"/>
      <point x="624" y="-362" type="qcurve" smooth="yes"/>
      <point x="665" y="-325"/>
      <point x="672" y="-271" type="qcurve"/>
      <point x="672" y="-236"/>
      <point x="601" y="-187"/>
      <point x="527" y="-187" type="qcurve" smooth="yes"/>
      <point x="465" y="-187" type="line"/>
      <point x="598" y="-18" type="line"/>
      <point x="438" y="-5"/>
      <point x="232" y="132"/>
      <point x="132" y="356"/>
      <point x="132" y="498" type="qcurve" smooth="yes"/>
      <point x="132" y="638"/>
      <point x="224" y="948"/>
      <point x="313" y="1084" type="qcurve" smooth="yes"/>
      <point x="420" y="1245"/>
      <point x="754" y="1436"/>
      <point x="967" y="1436" type="qcurve" smooth="yes"/>
      <point x="1100" y="1436"/>
      <point x="1323" y="1348"/>
      <point x="1396" y="1255" type="qcurve"/>
      <point x="1464" y="1165"/>
      <point x="1481" y="1037" type="qcurve"/>
      <point x="1282" y="978" type="line"/>
      <point x="1272" y="1122"/>
      <point x="1093" y="1256"/>
      <point x="946" y="1256" type="qcurve" smooth="yes"/>
      <point x="787" y="1256"/>
      <point x="547" y="1104"/>
      <point x="390" y="852"/>
      <point x="355" y="699" type="qcurve" smooth="yes"/>
      <point x="332" y="601"/>
      <point x="332" y="515" type="qcurve" smooth="yes"/>
      <point x="332" y="356"/>
      <point x="500" y="171"/>
      <point x="677" y="171" type="qcurve" smooth="yes"/>
      <point x="835" y="171"/>
      <point x="1073" y="316"/>
      <point x="1160" y="459" type="qcurve"/>
      <point x="1331" y="363" type="line"/>
      <point x="1211" y="184"/>
      <point x="903" y="-2"/>
      <point x="731" y="-17" type="qcurve"/>
      <point x="640" y="-110" type="line"/>
      <point x="718" y="-118"/>
      <point x="794" y="-201"/>
      <point x="794" y="-262" type="qcurve" smooth="yes"/>
      <point x="794" y="-325"/>
      <point x="726" y="-440"/>
      <point x="608" y="-513"/>
    </contour>
  </outline>
</glyph>
<glyph name="Oslash" format="2">
  <advance width="1526"/>
  <unicode hex="00D8"/>
  <outline>
    <contour>
      <point x="655" y="-20" type="qcurve" smooth="yes"/>
      <point x="477" y="-20"/>
      <point x="354" y="51" type="qcurve"/>
      <point x="312" y="0" type="line"/>
      <point x="153" y="0" type="line"/>
      <point x="258" y="128" type="line"/>
      <point x="193" y="199"/>
      <point x="132" y="390"/>
      <point x="132" y="500" type="qcurve" smooth="yes"/>
      <point x="132" y="642"/>
      <point x="223" y="948"/>
      <point x="312" y="1082" type="qcurve" smooth="yes"/>
      <point x="420" y="1243"/>
      <point x="754" y="1434"/>
      <point x="966" y="1434" type="qcurve" smooth="yes"/>
      <point x="1146" y="1434"/>
      <point x="1267" y="1364" type="qcurve"/>
      <point x="1307" y="1413" type="line"/>
      <point x="1465" y="1413" type="line"/>
      <point x="1363" y="1288" type="line"/>
      <point x="1491" y="1148"/>
      <point x="1491" y="912" type="qcurve" smooth="yes"/>
      <point x="1491" y="770"/>
      <point x="1399" y="465"/>
      <point x="1310" y="332" type="qcurve" smooth="yes"/>
      <point x="1202" y="171"/>
      <point x="867" y="-20"/>
    </contour>
    <contour>
      <point x="391" y="291" type="qcurve"/>
      <point x="1139" y="1207" type="line"/>
      <point x="1064" y="1250"/>
      <point x="947" y="1250" type="qcurve" smooth="yes"/>
      <point x="790" y="1250"/>
      <point x="670" y="1174" type="qcurve"/>
      <point x="545" y="1092"/>
      <point x="392" y="839"/>
      <point x="358" y="688" type="qcurve" smooth="yes"/>
      <point x="336" y="591"/>
      <point x="336" y="509" type="qcurve" smooth="yes"/>
      <point x="336" y="376"/>
    </contour>
    <contour>
      <point x="672" y="163" type="qcurve" smooth="yes"/>
      <point x="831" y="163"/>
      <point x="953" y="240" type="qcurve"/>
      <point x="1078" y="321"/>
      <point x="1231" y="574"/>
      <point x="1265" y="725" type="qcurve"/>
      <point x="1288" y="822"/>
      <point x="1288" y="906" type="qcurve" smooth="yes"/>
      <point x="1288" y="1039"/>
      <point x="1230" y="1125" type="qcurve"/>
      <point x="481" y="207" type="line"/>
      <point x="558" y="163"/>
    </contour>
  </outline>
</glyph>
<glyph name="Thorn" format="2">
  <advance width="1152"/>
  <unicode hex="00DE"/>
  <outline>
    <contour>
      <point x="278" y="0" type="line"/>
      <point x="85" y="0" type="line"/>
      <point x="411" y="1413" type="line"/>
      <point x="604" y="1413" type="line"/>
      <point x="558" y="1216" type="line"/>
      <point x="805" y="1216" type="line" smooth="yes"/>
      <point x="925" y="1216"/>
      <point x="1086" y="1140"/>
      <point x="1167" y="1005"/>
      <point x="1167" y="914" type="qcurve" smooth="yes"/>
      <point x="1167" y="835"/>
      <point x="1107" y="659"/>
      <point x="1047" y="590" type="qcurve"/>
      <point x="964" y="499"/>
      <point x="734" y="416"/>
      <point x="601" y="416" type="qcurve" smooth="yes"/>
      <point x="373" y="416" type="line"/>
    </contour>
    <contour>
      <point x="628" y="593" type="line" smooth="yes"/>
      <point x="761" y="593"/>
      <point x="937" y="712"/>
      <point x="967" y="832" type="qcurve" smooth="yes"/>
      <point x="974" y="860"/>
      <point x="974" y="889" type="qcurve" smooth="yes"/>
      <point x="974" y="1039"/>
      <point x="745" y="1041" type="qcurve"/>
      <point x="518" y="1041" type="line"/>
      <point x="414" y="593" type="line"/>
    </contour>
  </outline>
</glyph>
<glyph name="germandbls" format="2">
  <advance width="1184"/>
  <unicode hex="00DF"/>
  <outline>
    <contour>
      <point x="617" y="-18" type="qcurve" smooth="yes"/>
      <point x="558" y="-18"/>
      <point x="448" y="10"/>
      <point x="386" y="37" type="qcurve"/>
      <point x="487" y="202" type="line"/>
      <point x="553" y="164"/>
      <point x="631" y="164" type="qcurve" smooth="yes"/>
      <point x="684" y="164"/>
      <point x="784" y="217"/>
      <point x="849" y="305"/>
      <point x="849" y="358" type="qcurve" smooth="yes"/>
      <point x="849" y="399"/>
      <point x="802" y="471"/>
      <point x="753" y="519" type="qcurve" smooth="yes"/>
      <point x="698" y="574"/>
      <point x="638" y="667"/>
      <point x="638" y="729" type="qcurve" smooth="yes"/>
      <point x="638" y="842"/>
      <point x="728" y="908" type="qcurve" smooth="yes"/>
      <point x="756" y="929"/>
      <point x="799" y="954" type="qcurve" smooth="yes"/>
      <point x="862" y="991"/>
      <point x="934" y="1060"/>
      <point x="945" y="1113" type="qcurve" smooth="yes"/>
      <point x="949" y="1133"/>
      <point x="949" y="1143" type="qcurve" smooth="yes"/>
      <point x="949" y="1193"/>
      <point x="866" y="1263"/>
      <point x="777" y="1263" type="qcurve" smooth="yes"/>
      <point x="666" y="1263"/>
      <point x="495" y="1113"/>
      <point x="456" y="951" type="qcurve"/>
      <point x="238" y="0" type="line"/>
      <point x="46" y="0" type="line"/>
      <point x="269" y="969" type="line"/>
      <point x="307" y="1129"/>
      <point x="462" y="1335"/>
      <point x="669" y="1434"/>
      <point x="784" y="1434" type="qcurve" smooth="yes"/>
      <point x="877" y="1434"/>
      <point x="1038" y="1362"/>
      <point x="1137" y="1229"/>
      <point x="1137" y="1138" type="qcurve" smooth="yes"/>
      <point x="1137" y="1092"/>
      <point x="1111" y="1004"/>
      <point x="1060" y="933"/>
      <point x="992" y="882"/>
      <point x="941" y="854" type="qcurve" smooth="yes"/>
      <point x="885" y="823"/>
      <point x="830" y="774"/>
      <point x="823" y="742" type="qcurve"/>
      <point x="821" y="728" type="line"/>
      <point x="821" y="704"/>
      <point x="859" y="658"/>
      <point x="900" y="622" type="qcurve" smooth="yes"/>
      <point x="967" y="565"/>
      <point x="1044" y="453"/>
      <point x="1044" y="372" type="qcurve" smooth="yes"/>
      <point x="1044" y="314"/>
      <point x="999" y="189"/>
      <point x="952" y="134" type="qcurve" smooth="yes"/>
      <point x="890" y="63"/>
      <point x="716" y="-18"/>
    </contour>
  </outline>
</glyph>
<glyph name="ae" format="2">
  <advance width="1676"/>
  <unicode hex="00E6"/>
  <outline>
    <contour>
      <point x="292" y="-20" type="qcurve" smooth="yes"/>
      <point x="213" y="-20"/>
      <point x="84" y="38"/>
      <point x="8" y="148"/>
      <point x="8" y="227" type="qcurve" smooth="yes"/>
      <point x="8" y="262"/>
      <point x="17" y="301" type="qcurve" smooth="yes"/>
      <point x="51" y="450"/>
      <point x="280" y="581"/>
      <point x="458" y="583" type="qcurve"/>
      <point x="757" y="583" type="line"/>
      <point x="771" y="650"/>
      <point x="771" y="696" type="qcurve" smooth="yes"/>
      <point x="771" y="779"/>
      <point x="682" y="855"/>
      <point x="592" y="855" type="qcurve" smooth="yes"/>
      <point x="505" y="855"/>
      <point x="353" y="769"/>
      <point x="301" y="709" type="qcurve"/>
      <point x="177" y="823" type="line"/>
      <point x="278" y="925"/>
      <point x="489" y="1016"/>
      <point x="613" y="1016" type="qcurve" smooth="yes"/>
      <point x="738" y="1016"/>
      <point x="884" y="917"/>
      <point x="908" y="838" type="qcurve"/>
      <point x="1053" y="1012"/>
      <point x="1269" y="1012" type="qcurve" smooth="yes"/>
      <point x="1453" y="1012"/>
      <point x="1619" y="820"/>
      <point x="1619" y="664" type="qcurve" smooth="yes"/>
      <point x="1619" y="609"/>
      <point x="1596" y="461"/>
      <point x="1579" y="436" type="qcurve"/>
      <point x="886" y="436" type="line"/>
      <point x="879" y="392"/>
      <point x="879" y="364" type="qcurve" smooth="yes"/>
      <point x="879" y="275"/>
      <point x="975" y="165"/>
      <point x="1081" y="165" type="qcurve" smooth="yes"/>
      <point x="1177" y="165"/>
      <point x="1316" y="215"/>
      <point x="1379" y="269" type="qcurve"/>
      <point x="1493" y="144" type="line"/>
      <point x="1398" y="63"/>
      <point x="1193" y="-12"/>
      <point x="1067" y="-12" type="qcurve" smooth="yes"/>
      <point x="969" y="-12"/>
      <point x="835" y="46"/>
      <point x="757" y="147"/>
      <point x="744" y="214" type="qcurve"/>
      <point x="567" y="-20"/>
    </contour>
    <contour>
      <point x="1435" y="583" type="line"/>
      <point x="1442" y="624"/>
      <point x="1442" y="662" type="qcurve" smooth="yes"/>
      <point x="1442" y="845"/>
      <point x="1246" y="845" type="qcurve" smooth="yes"/>
      <point x="1165" y="845"/>
      <point x="1036" y="772"/>
      <point x="945" y="654"/>
      <point x="921" y="583" type="qcurve"/>
    </contour>
    <contour>
      <point x="344" y="142" type="qcurve" smooth="yes"/>
      <point x="431" y="142"/>
      <point x="591" y="233"/>
      <point x="703" y="367"/>
      <point x="723" y="436" type="qcurve"/>
      <point x="450" y="436" type="line"/>
      <point x="360" y="434"/>
      <point x="222" y="346"/>
      <point x="200" y="265" type="qcurve" smooth="yes"/>
      <point x="197" y="253"/>
      <point x="197" y="243" type="qcurve" smooth="yes"/>
      <point x="197" y="195"/>
      <point x="284" y="142"/>
    </contour>
  </outline>
</glyph>
<glyph name="ccedilla" format="2">
  <advance width="991"/>
  <unicode hex="00E7"/>
  <outline>
    <contour>
      <point x="277" y="-513" type="qcurve" smooth="yes"/>
      <point x="208" y="-513"/>
      <point x="119" y="-434"/>
      <point x="108" y="-378" type="qcurve"/>
      <point x="231" y="-341" type="line"/>
      <point x="236" y="-393"/>
      <point x="287" y="-393" type="qcurve" smooth="yes"/>
      <point x="333" y="-393"/>
      <point x="367" y="-362" type="qcurve" smooth="yes"/>
      <point x="408" y="-325"/>
      <point x="415" y="-271" type="qcurve"/>
      <point x="415" y="-236"/>
      <point x="344" y="-187"/>
      <point x="270" y="-187" type="qcurve" smooth="yes"/>
      <point x="208" y="-187" type="line"/>
      <point x="344" y="-13" type="line"/>
      <point x="198" y="15"/>
      <point x="62" y="220"/>
      <point x="62" y="360" type="qcurve" smooth="yes"/>
      <point x="62" y="455"/>
      <point x="124" y="666"/>
      <point x="188" y="763" type="qcurve" smooth="yes"/>
      <point x="236" y="836"/>
      <point x="370" y="950"/>
      <point x="539" y="1016"/>
      <point x="640" y="1016" type="qcurve" smooth="yes"/>
      <point x="739" y="1016"/>
      <point x="885" y="943"/>
      <point x="976" y="815"/>
      <point x="993" y="732" type="qcurve"/>
      <point x="800" y="675" type="line"/>
      <point x="797" y="759"/>
      <point x="699" y="840"/>
      <point x="624" y="840" type="qcurve" smooth="yes"/>
      <point x="529" y="840"/>
      <point x="385" y="737"/>
      <point x="291" y="573"/>
      <point x="269" y="479" type="qcurve" smooth="yes"/>
      <point x="255" y="417"/>
      <point x="255" y="361" type="qcurve" smooth="yes"/>
      <point x="255" y="268"/>
      <point x="343" y="155"/>
      <point x="440" y="155" type="qcurve" smooth="yes"/>
      <point x="531" y="155"/>
      <point x="679" y="258"/>
      <point x="719" y="338" type="qcurve"/>
      <point x="876" y="251" type="line"/>
      <point x="729" y="8"/>
      <point x="472" y="-18" type="qcurve"/>
      <point x="383" y="-110" type="line"/>
      <point x="461" y="-118"/>
      <point x="537" y="-201"/>
      <point x="537" y="-262" type="qcurve" smooth="yes"/>
      <point x="537" y="-325"/>
      <point x="469" y="-440"/>
      <point x="351" y="-513"/>
    </contour>
  </outline>
</glyph>
<glyph name="eth" format="2">
  <advance width="1170"/>
  <unicode hex="00F0"/>
  <outline>
    <contour>
      <point x="471" y="-16" type="qcurve" smooth="yes"/>
      <point x="338" y="-16"/>
      <point x="155" y="89"/>
      <point x="65" y="272"/>
      <point x="65" y="387" type="qcurve" smooth="yes"/>
      <point x="65" y="464"/>
      <point x="82" y="534" type="qcurve"/>
      <point x="113" y="670"/>
      <point x="275" y="891"/>
      <point x="513" y="1020"/>
      <point x="652" y="1020" type="qcurve" smooth="yes"/>
      <point x="745" y="1020"/>
      <point x="880" y="961"/>
      <point x="914" y="915" type="qcurve"/>
      <point x="914" y="918" type="line" smooth="yes"/>
      <point x="914" y="1122"/>
      <point x="722" y="1254" type="qcurve"/>
      <point x="604" y="1124" type="line"/>
      <point x="517" y="1186" type="line"/>
      <point x="628" y="1308" type="line"/>
      <point x="577" y="1334"/>
      <point x="490" y="1368" type="qcurve"/>
      <point x="607" y="1512" type="line"/>
      <point x="689" y="1477"/>
      <point x="750" y="1442" type="qcurve"/>
      <point x="839" y="1541" type="line"/>
      <point x="929" y="1482" type="line"/>
      <point x="840" y="1384" type="line"/>
      <point x="977" y="1284"/>
      <point x="1113" y="1012"/>
      <point x="1113" y="830" type="qcurve" smooth="yes"/>
      <point x="1113" y="694"/>
      <point x="1074" y="526" type="qcurve" smooth="yes"/>
      <point x="1037" y="365"/>
      <point x="868" y="120"/>
      <point x="621" y="-16"/>
    </contour>
    <contour>
      <point x="482" y="165" type="qcurve" smooth="yes"/>
      <point x="584" y="165"/>
      <point x="743" y="269"/>
      <point x="850" y="437"/>
      <point x="873" y="535" type="qcurve" smooth="yes"/>
      <point x="886" y="594"/>
      <point x="886" y="639" type="qcurve" smooth="yes"/>
      <point x="886" y="705"/>
      <point x="840" y="808"/>
      <point x="744" y="867"/>
      <point x="668" y="867" type="qcurve" smooth="yes"/>
      <point x="566" y="867"/>
      <point x="406" y="763"/>
      <point x="299" y="596"/>
      <point x="276" y="498" type="qcurve" smooth="yes"/>
      <point x="264" y="446"/>
      <point x="264" y="396" type="qcurve" smooth="yes"/>
      <point x="264" y="330"/>
      <point x="309" y="226"/>
      <point x="405" y="165"/>
    </contour>
  </outline>
</glyph>
<glyph name="divide" format="2">
  <advance width="1107"/>
  <unicode hex="00F7"/>
  <outline>
    <contour>
      <point x="666" y="870" type="line"/>
      <point x="437" y="870" type="line"/>
      <point x="437" y="1097" type="line"/>
      <point x="666" y="1097" type="line"/>
    </contour>
    <contour>
      <point x="995" y="555" type="line"/>
      <point x="108" y="555" type="line"/>
      <point x="108" y="702" type="line"/>
      <point x="995" y="702" type="line"/>
    </contour>
    <contour>
      <point x="666" y="142" type="line"/>
      <point x="437" y="142" type="line"/>
      <point x="437" y="369" type="line"/>
      <point x="666" y="369" type="line"/>
    </contour>
  </outline>
</glyph>
<glyph name="eogonek" format="2">
  <advance width="1051"/>
  <unicode hex="0119"/>
  <outline>
    <contour>
      <point x="477" y="-405" type="qcurve" smooth="yes"/>
      <point x="393" y="-405"/>
      <point x="295" y="-313"/>
      <point x="295" y="-237" type="qcurve" smooth="yes"/>
      <point x="295" y="-108"/>
      <point x="424" y="-12" type="qcurve"/>
      <point x="300" y="-8"/>
      <point x="139" y="88"/>
      <point x="60" y="254"/>
      <point x="60" y="360" type="qcurve" smooth="yes"/>
      <point x="60" y="456"/>
      <point x="121" y="664"/>
      <point x="184" y="759" type="qcurve" smooth="yes"/>
      <point x="232" y="832"/>
      <point x="367" y="946"/>
      <point x="535" y="1012"/>
      <point x="635" y="1012" type="qcurve" smooth="yes"/>
      <point x="824" y="1012"/>
      <point x="994" y="821"/>
      <point x="994" y="663" type="qcurve" smooth="yes"/>
      <point x="994" y="575"/>
      <point x="970" y="473" type="qcurve" smooth="yes"/>
      <point x="965" y="453"/>
      <point x="955" y="427" type="qcurve"/>
      <point x="261" y="427" type="line"/>
      <point x="254" y="392"/>
      <point x="254" y="357" type="qcurve" smooth="yes"/>
      <point x="254" y="272"/>
      <point x="351" y="165"/>
      <point x="456" y="165" type="qcurve" smooth="yes"/>
      <point x="551" y="165"/>
      <point x="690" y="215"/>
      <point x="753" y="269" type="qcurve"/>
      <point x="868" y="144" type="line"/>
      <point x="753" y="47"/>
      <point x="627" y="12" type="qcurve"/>
      <point x="451" y="-80"/>
      <point x="425" y="-194" type="qcurve" smooth="yes"/>
      <point x="421" y="-209"/>
      <point x="421" y="-223" type="qcurve" smooth="yes"/>
      <point x="421" y="-274"/>
      <point x="475" y="-274" type="qcurve" smooth="yes"/>
      <point x="549" y="-274"/>
      <point x="611" y="-207" type="qcurve"/>
      <point x="706" y="-295" type="line"/>
      <point x="611" y="-405"/>
    </contour>
    <contour>
      <point x="809" y="574" type="line"/>
      <point x="817" y="615"/>
      <point x="817" y="660" type="qcurve" smooth="yes"/>
      <point x="817" y="756"/>
      <point x="717" y="845"/>
      <point x="621" y="845" type="qcurve" smooth="yes"/>
      <point x="504" y="845"/>
      <point x="335" y="692"/>
      <point x="296" y="574" type="qcurve"/>
    </contour>
  </outline>
</glyph>
<glyph name="iogonek" format="2">
  <advance width="510"/>
  <unicode hex="012F"/>
  <outline>
    <contour>
      <point x="523" y="1205" type="line"/>
      <point x="312" y="1205" type="line"/>
      <point x="359" y="1413" type="line"/>
      <point x="571" y="1413" type="line"/>
    </contour>
    <contour>
      <point x="9" y="-451" type="qcurve" smooth="yes"/>
      <point x="-75" y="-451"/>
      <point x="-173" y="-359"/>
      <point x="-173" y="-283" type="qcurve" smooth="yes"/>
      <point x="-173" y="-191"/>
      <point x="-109" y="-118" type="qcurve"/>
      <point x="-30" y="-33"/>
      <point x="62" y="0" type="qcurve"/>
      <point x="48" y="0" type="line"/>
      <point x="278" y="999" type="line"/>
      <point x="462" y="999" type="line"/>
      <point x="232" y="0" type="line"/>
      <point x="168" y="0" type="line"/>
      <point x="232" y="-2" type="line"/>
      <point x="167" y="-26"/>
      <point x="-21" y="-146"/>
      <point x="-43" y="-240" type="qcurve" smooth="yes"/>
      <point x="-47" y="-255"/>
      <point x="-47" y="-269" type="qcurve" smooth="yes"/>
      <point x="-47" y="-320"/>
      <point x="7" y="-320" type="qcurve" smooth="yes"/>
      <point x="81" y="-320"/>
      <point x="143" y="-253" type="qcurve"/>
      <point x="238" y="-341" type="line"/>
      <point x="143" y="-451"/>
    </contour>
  </outline>
</glyph>
<glyph name="lcaron" format="2">
  <advance width="696"/>
  <unicode hex="013E"/>
  <outline>
    <contour>
      <point x="233" y="-20" type="qcurve" smooth="yes"/>
      <point x="154" y="-20"/>
      <point x="74" y="47"/>
      <point x="74" y="119" type="qcurve" smooth="yes"/>
      <point x="74" y="158"/>
      <point x="86" y="209" type="qcurve" smooth="yes"/>
      <point x="364" y="1413" type="line"/>
      <point x="558" y="1413" type="line"/>
      <point x="278" y="201"/>
      <point x="278" y="193" type="qcurve" smooth="yes"/>
      <point x="278" y="152"/>
      <point x="322" y="152" type="qcurve" smooth="yes"/>
      <point x="360" y="152"/>
      <point x="410" y="162" type="qcurve"/>
      <point x="384" y="-2" type="line"/>
      <point x="306" y="-20"/>
    </contour>
    <contour>
      <point x="719" y="990" type="line"/>
      <point x="591" y="990" type="line"/>
      <point x="797" y="1413" type="line"/>
      <point x="1033" y="1413" type="line"/>
    </contour>
  </outline>
</glyph>
<glyph name="lslash" format="2">
  <advance width="547"/>
  <unicode hex="0142"/>
  <outline>
    <contour>
      <point x="235" y="-20" type="qcurve" smooth="yes"/>
      <point x="155" y="-20"/>
      <point x="75" y="47"/>
      <point x="75" y="120" type="qcurve" smooth="yes"/>
      <point x="75" y="160"/>
      <point x="87" y="209" type="qcurve" smooth="yes"/>
      <point x="142" y="447" type="line"/>
      <point x="4" y="333" type="line"/>
      <point x="51" y="538" type="line"/>
      <point x="190" y="653" type="line"/>
      <point x="366" y="1413" type="line"/>
      <point x="560" y="1413" type="line"/>
      <point x="430" y="852" type="line"/>
      <point x="621" y="1010" type="line"/>
      <point x="574" y="805" type="line"/>
      <point x="382" y="646" type="line"/>
      <point x="281" y="210" type="line" smooth="yes"/>
      <point x="278" y="198"/>
      <point x="278" y="188" type="qcurve" smooth="yes"/>
      <point x="278" y="149"/>
      <point x="328" y="149" type="qcurve" smooth="yes"/>
      <point x="354" y="149"/>
      <point x="406" y="161" type="qcurve"/>
      <point x="411" y="162" type="line"/>
      <point x="386" y="-2" type="line"/>
      <point x="307" y="-20"/>
    </contour>
  </outline>
</glyph>
<glyph name="Eng" format="2">
  <advance width="1436"/>
  <unicode hex="014A"/>
  <outline>
    <contour>
      <point x="739" y="-369" type="qcurve" smooth="yes"/>
      <point x="634" y="-369" type="line"/>
      <point x="660" y="-230" type="line"/>
      <point x="678" y="-230" type="line" smooth="yes"/>
      <point x="739" y="-230"/>
      <point x="790" y="-212" type="qcurve" smooth="yes"/>
      <point x="847" y="-191"/>
      <point x="911" y="-117"/>
      <point x="911" y="-74" type="qcurve" smooth="yes"/>
      <point x="911" y="-59"/>
      <point x="909" y="-51" type="qcurve" smooth="yes"/>
      <point x="542" y="1120" type="line"/>
      <point x="282" y="0" type="line"/>
      <point x="83" y="0" type="line"/>
      <point x="409" y="1412" type="line"/>
      <point x="643" y="1412" type="line"/>
      <point x="989" y="293" type="line"/>
      <point x="1250" y="1412" type="line"/>
      <point x="1447" y="1412" type="line"/>
      <point x="1118" y="-8" type="line" smooth="yes"/>
      <point x="1084" y="-156"/>
      <point x="918" y="-369"/>
    </contour>
  </outline>
</glyph>
<glyph name="OE" format="2">
  <advance width="2253"/>
  <unicode hex="0152"/>
  <outline>
    <contour>
      <point x="657" y="-20" type="qcurve" smooth="yes"/>
      <point x="477" y="-20"/>
      <point x="244" y="114"/>
      <point x="132" y="349"/>
      <point x="132" y="500" type="qcurve" smooth="yes"/>
      <point x="132" y="642"/>
      <point x="223" y="948"/>
      <point x="312" y="1082" type="qcurve" smooth="yes"/>
      <point x="420" y="1243"/>
      <point x="754" y="1434"/>
      <point x="968" y="1434" type="qcurve" smooth="yes"/>
      <point x="1134" y="1434"/>
      <point x="1334" y="1309"/>
      <point x="1374" y="1201" type="qcurve"/>
      <point x="1427" y="1413" type="line"/>
      <point x="2346" y="1413" type="line"/>
      <point x="2304" y="1231" type="line"/>
      <point x="1589" y="1231" type="line"/>
      <point x="1488" y="797" type="line"/>
      <point x="2137" y="797" type="line"/>
      <point x="2095" y="617" type="line"/>
      <point x="1446" y="617" type="line"/>
      <point x="1348" y="189" type="line"/>
      <point x="2063" y="189" type="line"/>
      <point x="2020" y="0" type="line"/>
      <point x="1102" y="0" type="line"/>
      <point x="1151" y="198" type="line"/>
      <point x="963" y="-20"/>
    </contour>
    <contour>
      <point x="675" y="169" type="qcurve" smooth="yes"/>
      <point x="835" y="169"/>
      <point x="1076" y="319"/>
      <point x="1233" y="570"/>
      <point x="1269" y="725" type="qcurve" smooth="yes"/>
      <point x="1290" y="815"/>
      <point x="1290" y="899" type="qcurve" smooth="yes"/>
      <point x="1290" y="1056"/>
      <point x="1123" y="1244"/>
      <point x="948" y="1244" type="qcurve" smooth="yes"/>
      <point x="787" y="1244"/>
      <point x="545" y="1094"/>
      <point x="389" y="844"/>
      <point x="354" y="688" type="qcurve" smooth="yes"/>
      <point x="332" y="592"/>
      <point x="332" y="512" type="qcurve" smooth="yes"/>
      <point x="332" y="355"/>
      <point x="498" y="169"/>
    </contour>
  </outline>
</glyph>
<glyph name="scedilla" format="2">
  <advance width="891"/>
  <unicode hex="015F"/>
  <outline>
    <contour>
      <point x="227" y="-513" type="qcurve" smooth="yes"/>
      <point x="158" y="-513"/>
      <point x="69" y="-434"/>
      <point x="58" y="-378" type="qcurve"/>
      <point x="181" y="-341" type="line"/>
      <point x="186" y="-393"/>
      <point x="237" y="-393" type="qcurve" smooth="yes"/>
      <point x="283" y="-393"/>
      <point x="317" y="-362" type="qcurve" smooth="yes"/>
      <point x="358" y="-325"/>
      <point x="365" y="-271" type="qcurve"/>
      <point x="365" y="-236"/>
      <point x="294" y="-187"/>
      <point x="220" y="-187" type="qcurve" smooth="yes"/>
      <point x="158" y="-187" type="line"/>
      <point x="294" y="-14" type="line"/>
      <point x="161" y="10"/>
      <point x="12" y="159"/>
      <point x="1" y="251" type="qcurve"/>
      <point x="169" y="309" type="line"/>
      <point x="177" y="241"/>
      <point x="282" y="146"/>
      <point x="375" y="146" type="qcurve" smooth="yes"/>
      <point x="439" y="146"/>
      <point x="533" y="195"/>
      <point x="584" y="272"/>
      <point x="584" y="314" type="qcurve" smooth="yes"/>
      <point x="584" y="355"/>
      <point x="537" y="407"/>
      <point x="466" y="436"/>
      <point x="405" y="454" type="qcurve" smooth="yes"/>
      <point x="322" y="478"/>
      <point x="221" y="530"/>
      <point x="188" y="575" type="qcurve" smooth="yes"/>
      <point x="152" y="623"/>
      <point x="152" y="704" type="qcurve" smooth="yes"/>
      <point x="152" y="803"/>
      <point x="254" y="941"/>
      <point x="423" y="1014"/>
      <point x="523" y="1014" type="qcurve" smooth="yes"/>
      <point x="656" y="1014"/>
      <point x="836" y="896"/>
      <point x="868" y="804" type="qcurve"/>
      <point x="707" y="737" type="line"/>
      <point x="690" y="792"/>
      <point x="594" y="860"/>
      <point x="516" y="860" type="qcurve" smooth="yes"/>
      <point x="441" y="860"/>
      <point x="339" y="791"/>
      <point x="339" y="725" type="qcurve" smooth="yes"/>
      <point x="339" y="686"/>
      <point x="385" y="636"/>
      <point x="453" y="607"/>
      <point x="515" y="587" type="qcurve" smooth="yes"/>
      <point x="600" y="561"/>
      <point x="705" y="505"/>
      <point x="739" y="459" type="qcurve" smooth="yes"/>
      <point x="776" y="408"/>
      <point x="776" y="325" type="qcurve" smooth="yes"/>
      <point x="776" y="235"/>
      <point x="680" y="88"/>
      <point x="522" y="-6"/>
      <point x="424" y="-17" type="qcurve"/>
      <point x="333" y="-110" type="line"/>
      <point x="411" y="-118"/>
      <point x="487" y="-201"/>
      <point x="487" y="-262" type="qcurve" smooth="yes"/>
      <point x="487" y="-325"/>
      <point x="419" y="-440"/>
      <point x="301" y="-513"/>
    </contour>
  </outline>
</glyph>
<glyph name="tcaron" format="2">
  <advance width="715"/>
  <unicode hex="0165"/>
  <outline>
    <contour>
      <point x="766" y="1123" type="line"/>
      <point x="646" y="1123" type="line"/>
      <point x="868" y="1534" type="line"/>
      <point x="1096" y="1534" type="line"/>
    </contour>
    <contour>
      <point x="355" y="-20" type="qcurve" smooth="yes"/>
      <point x="237" y="-20"/>
      <point x="132" y="92"/>
      <point x="132" y="183" type="qcurve" smooth="yes"/>
      <point x="132" y="228"/>
      <point x="144" y="279" type="qcurve" smooth="yes"/>
      <point x="271" y="829" type="line"/>
      <point x="112" y="829" type="line"/>
      <point x="151" y="999" type="line"/>
      <point x="312" y="999" type="line"/>
      <point x="365" y="1235" type="line"/>
      <point x="588" y="1391" type="line"/>
      <point x="499" y="999" type="line"/>
      <point x="757" y="999" type="line"/>
      <point x="718" y="829" type="line"/>
      <point x="460" y="829" type="line"/>
      <point x="329" y="258" type="line" smooth="yes"/>
      <point x="323" y="231"/>
      <point x="323" y="211" type="qcurve" smooth="yes"/>
      <point x="323" y="178"/>
      <point x="358" y="150"/>
      <point x="392" y="150" type="qcurve" smooth="yes"/>
      <point x="459" y="150"/>
      <point x="549" y="180"/>
      <point x="549" y="181" type="qcurve"/>
      <point x="516" y="14" type="line"/>
      <point x="516" y="12"/>
      <point x="426" y="-20"/>
    </contour>
  </outline>
</glyph>
<glyph name="uogonek" format="2">
  <advance width="1143"/>
  <unicode hex="0173"/>
  <outline>
    <contour>
      <point x="647" y="-451" type="qcurve" smooth="yes"/>
      <point x="563" y="-451"/>
      <point x="465" y="-359"/>
      <point x="465" y="-283" type="qcurve" smooth="yes"/>
      <point x="465" y="-191"/>
      <point x="529" y="-118" type="qcurve"/>
      <point x="608" y="-33"/>
      <point x="700" y="0" type="qcurve"/>
      <point x="679" y="0" type="line"/>
      <point x="710" y="137" type="line"/>
      <point x="651" y="68"/>
      <point x="476" y="-23"/>
      <point x="379" y="-23" type="qcurve" smooth="yes"/>
      <point x="234" y="-23"/>
      <point x="95" y="142"/>
      <point x="95" y="277" type="qcurve" smooth="yes"/>
      <point x="95" y="344"/>
      <point x="112" y="418" type="qcurve" smooth="yes"/>
      <point x="246" y="999" type="line"/>
      <point x="441" y="999" type="line"/>
      <point x="305" y="403" type="line" smooth="yes"/>
      <point x="289" y="334"/>
      <point x="289" y="292" type="qcurve" smooth="yes"/>
      <point x="289" y="154"/>
      <point x="431" y="154" type="qcurve" smooth="yes"/>
      <point x="502" y="154"/>
      <point x="646" y="224"/>
      <point x="758" y="369"/>
      <point x="785" y="479" type="qcurve"/>
      <point x="904" y="999" type="line"/>
      <point x="1099" y="999" type="line"/>
      <point x="870" y="0" type="line"/>
      <point x="806" y="0" type="line"/>
      <point x="870" y="-2" type="line"/>
      <point x="805" y="-26"/>
      <point x="617" y="-146"/>
      <point x="595" y="-240" type="qcurve" smooth="yes"/>
      <point x="591" y="-255"/>
      <point x="591" y="-269" type="qcurve" smooth="yes"/>
      <point x="591" y="-320"/>
      <point x="645" y="-320" type="qcurve" smooth="yes"/>
      <point x="719" y="-320"/>
      <point x="781" y="-253" type="qcurve"/>
      <point x="876" y="-341" type="line"/>
      <point x="781" y="-451"/>
    </contour>
  </outline>
</glyph>
<glyph name="longs" format="2">
  <advance width="687"/>
  <unicode hex="017F"/>
  <outline>
    <contour>
      <point x="293" y="0" type="line"/>
      <point x="96" y="0" type="line"/>
      <point x="289" y="838" type="line"/>
      <point x="106" y="838" type="line"/>
      <point x="143" y="997" type="line"/>
      <point x="326" y="997" type="line"/>
      <point x="366" y="1168" type="line"/>
      <point x="400" y="1304"/>
      <point x="583" y="1434"/>
      <point x="710" y="1434" type="qcurve" smooth="yes"/>
      <point x="797" y="1434"/>
      <point x="878" y="1391" type="qcurve"/>
      <point x="790" y="1246" type="line"/>
      <point x="746" y="1270"/>
      <point x="698" y="1270" type="qcurve" smooth="yes"/>
      <point x="649" y="1270"/>
      <point x="573" y="1210"/>
      <point x="557" y="1147" type="qcurve"/>
    </contour>
  </outline>
</glyph>
<glyph name="aemacron" format="2">
  <advance width="1694"/>
  <unicode hex="01E3"/>
  <outline>
    <contour>
      <point x="1278" y="1173" type="line"/>
      <point x="733" y="1173" type="line"/>
      <point x="762" y="1302" type="line"/>
      <point x="1307" y="1302" type="line"/>
    </contour>
    <contour>
      <point x="319" y="-20" type="qcurve" smooth="yes"/>
      <point x="182" y="-20"/>
      <point x="27" y="118"/>
      <point x="27" y="227" type="qcurve" smooth="yes"/>
      <point x="27" y="263"/>
      <point x="36" y="302" type="qcurve" smooth="yes"/>
      <point x="69" y="452"/>
      <point x="302" y="584"/>
      <point x="475" y="584" type="qcurve"/>
      <point x="776" y="586" type="line"/>
      <point x="790" y="648"/>
      <point x="790" y="694" type="qcurve" smooth="yes"/>
      <point x="790" y="854"/>
      <point x="619" y="855" type="qcurve"/>
      <point x="449" y="855"/>
      <point x="317" y="709" type="qcurve"/>
      <point x="194" y="822" type="line"/>
      <point x="286" y="919"/>
      <point x="499" y="1016"/>
      <point x="626" y="1016" type="qcurve" smooth="yes"/>
      <point x="754" y="1016"/>
      <point x="901" y="920"/>
      <point x="926" y="838" type="qcurve"/>
      <point x="1074" y="1012"/>
      <point x="1295" y="1012" type="qcurve" smooth="yes"/>
      <point x="1481" y="1012"/>
      <point x="1632" y="824"/>
      <point x="1632" y="670" type="qcurve" smooth="yes"/>
      <point x="1632" y="582"/>
      <point x="1611" y="470" type="qcurve"/>
      <point x="1610" y="458"/>
      <point x="1597" y="433" type="qcurve"/>
      <point x="902" y="433" type="line"/>
      <point x="897" y="403"/>
      <point x="897" y="365" type="qcurve" smooth="yes"/>
      <point x="897" y="261"/>
      <point x="1008" y="164"/>
      <point x="1105" y="164" type="qcurve" smooth="yes"/>
      <point x="1194" y="164"/>
      <point x="1335" y="217"/>
      <point x="1397" y="271" type="qcurve"/>
      <point x="1511" y="145" type="line"/>
      <point x="1332" y="-12"/>
      <point x="1091" y="-12" type="qcurve" smooth="yes"/>
      <point x="811" y="-12"/>
      <point x="762" y="213" type="qcurve"/>
      <point x="677" y="103"/>
      <point x="452" y="-20"/>
    </contour>
    <contour>
      <point x="940" y="581" type="qcurve"/>
      <point x="1454" y="586" type="line"/>
      <point x="1461" y="632"/>
      <point x="1461" y="660" type="qcurve" smooth="yes"/>
      <point x="1461" y="747"/>
      <point x="1368" y="845"/>
      <point x="1268" y="845" type="qcurve" smooth="yes"/>
      <point x="1144" y="845"/>
      <point x="977" y="693"/>
    </contour>
    <contour>
      <point x="354" y="142" type="qcurve" smooth="yes"/>
      <point x="445" y="142"/>
      <point x="606" y="230"/>
      <point x="720" y="365"/>
      <point x="742" y="438" type="qcurve"/>
      <point x="467" y="436" type="line"/>
      <point x="371" y="436"/>
      <point x="234" y="336"/>
      <point x="218" y="266" type="qcurve" smooth="yes"/>
      <point x="216" y="259"/>
      <point x="216" y="245" type="qcurve" smooth="yes"/>
      <point x="216" y="196"/>
      <point x="299" y="142"/>
    </contour>
  </outline>
</glyph>
<glyph name="oogonek" format="2">
  <advance width="1127"/>
  <unicode hex="01EB"/>
  <outline>
    <contour>
      <point x="362" y="-451" type="qcurve" smooth="yes"/>
      <point x="278" y="-451"/>
      <point x="180" y="-359"/>
      <point x="180" y="-283" type="qcurve" smooth="yes"/>
      <point x="180" y="-235"/>
      <point x="219" y="-140"/>
      <point x="261" y="-99" type="qcurve" smooth="yes"/>
      <point x="317" y="-46"/>
      <point x="380" y="-15" type="qcurve"/>
      <point x="221" y="11"/>
      <point x="58" y="226"/>
      <point x="58" y="377" type="qcurve" smooth="yes"/>
      <point x="58" y="557"/>
      <point x="249" y="862"/>
      <point x="404" y="946" type="qcurve" smooth="yes"/>
      <point x="528" y="1012"/>
      <point x="668" y="1012" type="qcurve" smooth="yes"/>
      <point x="795" y="1012"/>
      <point x="973" y="907"/>
      <point x="1065" y="727"/>
      <point x="1065" y="614" type="qcurve" smooth="yes"/>
      <point x="1065" y="457"/>
      <point x="914" y="177"/>
      <point x="786" y="87" type="qcurve" smooth="yes"/>
      <point x="686" y="17"/>
      <point x="570" y="-8" type="qcurve"/>
      <point x="341" y="-102"/>
      <point x="310" y="-240" type="qcurve"/>
      <point x="306" y="-255"/>
      <point x="306" y="-269" type="qcurve" smooth="yes"/>
      <point x="306" y="-320"/>
      <point x="360" y="-320" type="qcurve" smooth="yes"/>
      <point x="434" y="-320"/>
      <point x="496" y="-253" type="qcurve"/>
      <point x="591" y="-341" type="line"/>
      <point x="496" y="-451"/>
    </contour>
    <contour>
      <point x="470" y="149" type="qcurve" smooth="yes"/>
      <point x="573" y="149"/>
      <point x="726" y="248"/>
      <point x="826" y="413"/>
      <point x="850" y="514" type="qcurve" smooth="yes"/>
      <point x="864" y="576"/>
      <point x="864" y="629" type="qcurve" smooth="yes"/>
      <point x="864" y="727"/>
      <point x="763" y="843"/>
      <point x="653" y="843" type="qcurve" smooth="yes"/>
      <point x="551" y="843"/>
      <point x="398" y="743"/>
      <point x="297" y="578"/>
      <point x="274" y="477" type="qcurve" smooth="yes"/>
      <point x="260" y="415"/>
      <point x="260" y="362" type="qcurve" smooth="yes"/>
      <point x="260" y="265"/>
      <point x="361" y="149"/>
    </contour>
  </outline>
</glyph>
<glyph name="aturned" format="2">
  <advance width="1079"/>
  <unicode hex="0250"/>
  <outline>
    <contour>
      <point x="461" y="-20" type="qcurve" smooth="yes"/>
      <point x="296" y="-20"/>
      <point x="125" y="143"/>
      <point x="125" y="278" type="qcurve" smooth="yes"/>
      <point x="125" y="336"/>
      <point x="139" y="393" type="qcurve"/>
      <point x="278" y="995" type="line"/>
      <point x="431" y="995" type="line"/>
      <point x="410" y="841" type="line"/>
      <point x="491" y="932"/>
      <point x="668" y="1016"/>
      <point x="784" y="1016" type="qcurve" smooth="yes"/>
      <point x="863" y="1016"/>
      <point x="992" y="956"/>
      <point x="1069" y="844"/>
      <point x="1069" y="764" type="qcurve" smooth="yes"/>
      <point x="1069" y="729"/>
      <point x="1060" y="690" type="qcurve" smooth="yes"/>
      <point x="995" y="412"/>
      <point x="616" y="412" type="qcurve"/>
      <point x="320" y="403" type="line"/>
      <point x="307" y="343"/>
      <point x="307" y="303" type="qcurve" smooth="yes"/>
      <point x="307" y="224"/>
      <point x="396" y="150"/>
      <point x="484" y="150" type="qcurve" smooth="yes"/>
      <point x="568" y="150"/>
      <point x="723" y="238"/>
      <point x="774" y="298" type="qcurve"/>
      <point x="898" y="176" type="line"/>
      <point x="799" y="72"/>
      <point x="586" y="-20"/>
    </contour>
    <contour>
      <point x="355" y="551" type="qcurve"/>
      <point x="624" y="560" type="line"/>
      <point x="711" y="560"/>
      <point x="848" y="650"/>
      <point x="869" y="727" type="qcurve"/>
      <point x="872" y="742"/>
      <point x="872" y="754" type="qcurve" smooth="yes"/>
      <point x="872" y="803"/>
      <point x="790" y="847"/>
      <point x="726" y="847" type="qcurve" smooth="yes"/>
      <point x="639" y="847"/>
      <point x="482" y="758"/>
      <point x="373" y="624"/>
    </contour>
  </outline>
</glyph>
<glyph name="oopen" format="2">
  <advance width="985"/>
  <unicode hex="0254"/>
  <outline>
    <contour>
      <point x="351" y="-20" type="qcurve" smooth="yes"/>
      <point x="250" y="-20"/>
      <point x="103" y="52"/>
      <point x="12" y="179"/>
      <point x="-5" y="263" type="qcurve"/>
      <point x="189" y="321" type="line"/>
      <point x="193" y="237"/>
      <point x="290" y="155"/>
      <point x="366" y="155" type="qcurve" smooth="yes"/>
      <point x="460" y="155"/>
      <point x="604" y="258"/>
      <point x="698" y="422"/>
      <point x="719" y="516" type="qcurve" smooth="yes"/>
      <point x="734" y="583"/>
      <point x="734" y="635" type="qcurve" smooth="yes"/>
      <point x="734" y="727"/>
      <point x="646" y="840"/>
      <point x="549" y="840" type="qcurve" smooth="yes"/>
      <point x="458" y="840"/>
      <point x="311" y="737"/>
      <point x="271" y="658" type="qcurve"/>
      <point x="114" y="744" type="line"/>
      <point x="196" y="882"/>
      <point x="431" y="1016"/>
      <point x="563" y="1016" type="qcurve" smooth="yes"/>
      <point x="687" y="1016"/>
      <point x="848" y="917"/>
      <point x="927" y="745"/>
      <point x="927" y="637" type="qcurve" smooth="yes"/>
      <point x="927" y="545"/>
      <point x="867" y="333"/>
      <point x="802" y="233" type="qcurve" smooth="yes"/>
      <point x="754" y="160"/>
      <point x="620" y="46"/>
      <point x="452" y="-20"/>
    </contour>
  </outline>
</glyph>
<glyph name="colontriangularmod" format="2">
  <advance width="518"/>
  <unicode hex="02D0"/>
  <outline>
    <contour>
      <point x="269" y="583" type="line"/>
      <point x="29" y="999" type="line"/>
      <point x="479" y="1019" type="line"/>
    </contour>
    <contour>
      <point x="39" y="-20" type="line"/>
      <point x="248" y="416" type="line"/>
      <point x="489" y="0" type="line"/>
    </contour>
  </outline>
</glyph>
<glyph name="uni02F6" format="2">
  <advance width="1147"/>
  <unicode hex="02F6"/>
  <outline>
    <contour>
      <point x="502" y="695" type="line"/>
      <point x="280" y="695" type="line"/>
      <point x="499" y="999" type="line"/>
      <point x="775" y="999" type="line"/>
    </contour>
  </outline>
</glyph>
<glyph name="gravecmb" format="2">
  <unicode hex="0300"/>
  <anchor x="-33" y="999" name="_t.ringcmb_1"/>
  <outline>
    <contour>
      <point x="88" y="1113" type="line"/>
      <point x="-72" y="1113" type="line"/>
      <point x="-284" y="1413" type="line"/>
      <point x="-64" y="1413" type="line"/>
    </contour>
  </outline>
</glyph>
<glyph name="circumflexcmb" format="2">
  <unicode hex="0302"/>
  <anchor x="-239" y="999" name="_t.ringcmb_1"/>
  <outline>
    <contour>
      <point x="104" y="1098" type="line"/>
      <point x="-64" y="1098" type="line"/>
      <point x="-173" y="1265" type="line"/>
      <point x="-362" y="1098" type="line"/>
      <point x="-542" y="1098" type="line"/>
      <point x="-139" y="1452" type="line"/>
    </contour>
  </outline>
</glyph>
<glyph name="brevecmb" format="2">
  <unicode hex="0306"/>
  <anchor x="-297" y="999" name="_t.ringcmb_1"/>
  <outline>
    <contour>
      <point x="-251" y="1143" type="qcurve" smooth="yes"/>
      <point x="-385" y="1143"/>
      <point x="-519" y="1253"/>
      <point x="-519" y="1344" type="qcurve" smooth="yes"/>
      <point x="-519" y="1376"/>
      <point x="-510" y="1413" type="qcurve"/>
      <point x="-361" y="1413" type="line"/>
      <point x="-366" y="1388"/>
      <point x="-366" y="1373" type="qcurve" smooth="yes"/>
      <point x="-366" y="1319"/>
      <point x="-299" y="1270"/>
      <point x="-246" y="1270" type="qcurve" smooth="yes"/>
      <point x="-172" y="1270"/>
      <point x="-57" y="1353"/>
      <point x="-41" y="1413" type="qcurve"/>
      <point x="108" y="1413" type="line"/>
      <point x="75" y="1273"/>
      <point x="-111" y="1143"/>
    </contour>
  </outline>
</glyph>
<glyph name="dotaccentcmb" format="2">
  <unicode hex="0307"/>
  <anchor x="-144" y="999" name="_t.ringcmb_1"/>
  <outline>
    <contour>
      <point x="9" y="1205" type="line"/>
      <point x="-202" y="1205" type="line"/>
      <point x="-155" y="1413" type="line"/>
      <point x="57" y="1413" type="line"/>
    </contour>
  </outline>
</glyph>
<glyph name="ringcmb" format="2">
  <unicode hex="030A"/>
  <anchor x="-203" y="999" name="_t.ringcmb_1"/>
  <outline>
    <contour>
      <point x="-172" y="1074" type="qcurve" smooth="yes"/>
      <point x="-258" y="1074"/>
      <point x="-354" y="1180"/>
      <point x="-354" y="1253" type="qcurve" smooth="yes"/>
      <point x="-354" y="1325"/>
      <point x="-279" y="1440"/>
      <point x="-163" y="1506"/>
      <point x="-100" y="1506" type="qcurve" smooth="yes"/>
      <point x="-17" y="1506"/>
      <point x="83" y="1400"/>
      <point x="83" y="1327" type="qcurve" smooth="yes"/>
      <point x="83" y="1229"/>
      <point x="-72" y="1074"/>
    </contour>
    <contour>
      <point x="-158" y="1191" type="qcurve"/>
      <point x="-103" y="1191"/>
      <point x="-34" y="1272"/>
      <point x="-34" y="1317" type="qcurve" smooth="yes"/>
      <point x="-34" y="1355"/>
      <point x="-80" y="1393"/>
      <point x="-114" y="1393" type="qcurve" smooth="yes"/>
      <point x="-171" y="1393"/>
      <point x="-236" y="1317"/>
      <point x="-236" y="1267" type="qcurve" smooth="yes"/>
      <point x="-236" y="1193"/>
    </contour>
  </outline>
</glyph>
<glyph name="caroncmb" format="2">
  <unicode hex="030C"/>
  <anchor x="-240" y="999" name="_t.ringcmb_1"/>
  <outline>
    <contour>
      <point x="-218" y="1080" type="line"/>
      <point x="-466" y="1412" type="line"/>
      <point x="-295" y="1412" type="line"/>
      <point x="-187" y="1252" type="line"/>
      <point x="3" y="1412" type="line"/>
      <point x="180" y="1412" type="line"/>
    </contour>
  </outline>
</glyph>
<glyph name="dblgravecmb" format="2">
  <unicode hex="030F"/>
  <anchor x="-216" y="999" name="_t.ringcmb_1"/>
  <outline>
    <contour>
      <point x="-265" y="1103" type="line"/>
      <point x="-435" y="1103" type="line"/>
      <point x="-644" y="1413" type="line"/>
      <point x="-415" y="1413" type="line"/>
    </contour>
    <contour>
      <point x="84" y="1103" type="line"/>
      <point x="-86" y="1103" type="line"/>
      <point x="-295" y="1413" type="line"/>
      <point x="-65" y="1413" type="line"/>
    </contour>
  </outline>
</glyph>
<glyph name="afii10051" format="2">
  <advance width="1621"/>
  <unicode hex="0402"/>
  <outline>
    <contour>
      <point x="1011" y="-19" type="qcurve" smooth="yes"/>
      <point x="918" y="-19"/>
      <point x="759" y="57"/>
      <point x="713" y="114" type="qcurve"/>
      <point x="846" y="240" type="line"/>
      <point x="895" y="170"/>
      <point x="1008" y="170" type="qcurve" smooth="yes"/>
      <point x="1120" y="170"/>
      <point x="1289" y="325"/>
      <point x="1319" y="454" type="qcurve" smooth="yes"/>
      <point x="1341" y="548"/>
      <point x="1341" y="611" type="qcurve" smooth="yes"/>
      <point x="1341" y="714"/>
      <point x="1223" y="806"/>
      <point x="1100" y="806" type="qcurve" smooth="yes"/>
      <point x="989" y="806"/>
      <point x="807" y="724"/>
      <point x="749" y="666" type="qcurve"/>
      <point x="592" y="0" type="line"/>
      <point x="388" y="0" type="line"/>
      <point x="673" y="1237" type="line"/>
      <point x="211" y="1237" type="line"/>
      <point x="252" y="1412" type="line"/>
      <point x="1378" y="1412" type="line"/>
      <point x="1337" y="1237" type="line"/>
      <point x="876" y="1237" type="line"/>
      <point x="794" y="905" type="line"/>
      <point x="951" y="1001"/>
      <point x="1121" y="1001" type="qcurve" smooth="yes"/>
      <point x="1339" y="1001"/>
      <point x="1543" y="805"/>
      <point x="1543" y="628" type="qcurve" smooth="yes"/>
      <point x="1543" y="516"/>
      <point x="1477" y="279"/>
      <point x="1412" y="187" type="qcurve"/>
      <point x="1335" y="84"/>
      <point x="1129" y="-19"/>
    </contour>
  </outline>
</glyph>
<glyph name="afii10060" format="2">
  <advance width="1642"/>
  <unicode hex="040B"/>
  <outline>
    <contour>
      <point x="1419" y="0" type="line"/>
      <point x="1216" y="0" type="line"/>
      <point x="1310" y="410" type="line" smooth="yes"/>
      <point x="1335" y="516"/>
      <point x="1335" y="592" type="qcurve" smooth="yes"/>
      <point x="1335" y="703"/>
      <point x="1219" y="806"/>
      <point x="1100" y="806" type="qcurve" smooth="yes"/>
      <point x="989" y="806"/>
      <point x="807" y="724"/>
      <point x="749" y="666" type="qcurve"/>
      <point x="592" y="0" type="line"/>
      <point x="388" y="0" type="line"/>
      <point x="673" y="1237" type="line"/>
      <point x="211" y="1237" type="line"/>
      <point x="252" y="1412" type="line"/>
      <point x="1378" y="1412" type="line"/>
      <point x="1337" y="1237" type="line"/>
      <point x="876" y="1237" type="line"/>
      <point x="795" y="905" type="line"/>
      <point x="941" y="1001"/>
      <point x="1121" y="1001" type="qcurve" smooth="yes"/>
      <point x="1333" y="1001"/>
      <point x="1538" y="794"/>
      <point x="1538" y="608" type="qcurve" smooth="yes"/>
      <point x="1538" y="515"/>
      <point x="1512" y="403" type="qcurve" smooth="yes"/>
    </contour>
  </outline>
</glyph>
<glyph name="afii10018" format="2">
  <advance width="1262"/>
  <unicode hex="0411"/>
  <outline>
    <contour>
      <point x="595" y="0" type="qcurve" smooth="yes"/>
      <point x="85" y="0" type="line"/>
      <point x="411" y="1412" type="line"/>
      <point x="1193" y="1412" type="line"/>
      <point x="1150" y="1229" type="line"/>
      <point x="570" y="1229" type="line"/>
      <point x="476" y="817" type="line"/>
      <point x="788" y="817" type="line" smooth="yes"/>
      <point x="911" y="817"/>
      <point x="1071" y="741"/>
      <point x="1148" y="603"/>
      <point x="1148" y="510" type="qcurve" smooth="yes"/>
      <point x="1148" y="426"/>
      <point x="1091" y="249"/>
      <point x="1027" y="176" type="qcurve"/>
      <point x="944" y="87"/>
      <point x="719" y="0"/>
    </contour>
    <contour>
      <point x="632" y="191" type="line" smooth="yes"/>
      <point x="734" y="191"/>
      <point x="912" y="317"/>
      <point x="944" y="436" type="qcurve" smooth="yes"/>
      <point x="949" y="455"/>
      <point x="949" y="480" type="qcurve" smooth="yes"/>
      <point x="949" y="554"/>
      <point x="835" y="637"/>
      <point x="743" y="637" type="qcurve" smooth="yes"/>
      <point x="434" y="637" type="line"/>
      <point x="332" y="191" type="line"/>
    </contour>
  </outline>
</glyph>
<glyph name="afii10021" format="2">
  <advance width="1468"/>
  <unicode hex="0414"/>
  <outline>
    <contour>
      <point x="1248" y="-278" type="line"/>
      <point x="1045" y="-278" type="line"/>
      <point x="1110" y="0" type="line"/>
      <point x="129" y="0" type="line"/>
      <point x="64" y="-278" type="line"/>
      <point x="-138" y="-278" type="line"/>
      <point x="-33" y="182" type="line"/>
      <point x="102" y="182" type="line"/>
      <point x="861" y="1413" type="line"/>
      <point x="1023" y="1413" type="line"/>
      <point x="1216" y="182" type="line"/>
      <point x="1353" y="182" type="line"/>
    </contour>
    <contour>
      <point x="1002" y="182" type="line"/>
      <point x="878" y="1109" type="line"/>
      <point x="320" y="182" type="line"/>
    </contour>
  </outline>
</glyph>
<glyph name="afii10035" format="2">
  <advance width="1428"/>
  <unicode hex="0421"/>
  <outline>
    <contour>
      <point x="655" y="-20" type="qcurve" smooth="yes"/>
      <point x="475" y="-20"/>
      <point x="242" y="114"/>
      <point x="129" y="348"/>
      <point x="129" y="499" type="qcurve" smooth="yes"/>
      <point x="129" y="633"/>
      <point x="219" y="944"/>
      <point x="311" y="1084" type="qcurve" smooth="yes"/>
      <point x="418" y="1245"/>
      <point x="752" y="1436"/>
      <point x="964" y="1436" type="qcurve" smooth="yes"/>
      <point x="1178" y="1436"/>
      <point x="1439" y="1225"/>
      <point x="1479" y="1037" type="qcurve"/>
      <point x="1279" y="978" type="line"/>
      <point x="1264" y="1244"/>
      <point x="943" y="1244" type="qcurve" smooth="yes"/>
      <point x="784" y="1244"/>
      <point x="544" y="1098"/>
      <point x="387" y="853"/>
      <point x="352" y="699" type="qcurve" smooth="yes"/>
      <point x="329" y="599"/>
      <point x="329" y="515" type="qcurve" smooth="yes"/>
      <point x="329" y="355"/>
      <point x="497" y="171"/>
      <point x="674" y="171" type="qcurve" smooth="yes"/>
      <point x="982" y="171"/>
      <point x="1156" y="457" type="qcurve"/>
      <point x="1328" y="363" type="line"/>
      <point x="1198" y="166"/>
      <point x="848" y="-20"/>
    </contour>
  </outline>
</glyph>
<glyph name="afii10036" format="2">
  <advance width="1208"/>
  <unicode hex="0422"/>
  <outline>
    <contour>
      <point x="591" y="0" type="line"/>
      <point x="388" y="0" type="line"/>
      <point x="673" y="1237" type="line"/>
      <point x="211" y="1237" type="line"/>
      <point x="252" y="1412" type="line"/>
      <point x="1378" y="1412" type="line"/>
      <point x="1337" y="1237" type="line"/>
      <point x="875" y="1237" type="line"/>
    </contour>
  </outline>
</glyph>
<glyph name="afii10038" format="2">
  <advance width="1738"/>
  <unicode hex="0424"/>
  <outline>
    <contour>
      <point x="856" y="0" type="line"/>
      <point x="652" y="0" type="line"/>
      <point x="683" y="109" type="line"/>
      <point x="494" y="109"/>
      <point x="252" y="217"/>
      <point x="136" y="412"/>
      <point x="136" y="544" type="qcurve" smooth="yes"/>
      <point x="136" y="626"/>
      <point x="159" y="724" type="qcurve" smooth="yes"/>
      <point x="199" y="899"/>
      <point x="400" y="1165"/>
      <point x="570" y="1241" type="qcurve"/>
      <point x="732" y="1312"/>
      <point x="948" y="1312" type="qcurve"/>
      <point x="978" y="1412" type="line"/>
      <point x="1182" y="1412" type="line"/>
      <point x="1152" y="1312" type="line"/>
      <point x="1341" y="1312"/>
      <point x="1582" y="1201"/>
      <point x="1698" y="1001"/>
      <point x="1698" y="867" type="qcurve" smooth="yes"/>
      <point x="1698" y="781"/>
      <point x="1676" y="687" type="qcurve" smooth="yes"/>
      <point x="1636" y="512"/>
      <point x="1438" y="253"/>
      <point x="1114" y="109"/>
      <point x="887" y="109" type="qcurve"/>
    </contour>
    <contour>
      <point x="712" y="292" type="qcurve"/>
      <point x="918" y="1129" type="line"/>
      <point x="761" y="1129"/>
      <point x="532" y="1019"/>
      <point x="388" y="821"/>
      <point x="358" y="687" type="qcurve" smooth="yes"/>
      <point x="342" y="617"/>
      <point x="342" y="565" type="qcurve" smooth="yes"/>
      <point x="342" y="434"/>
      <point x="521" y="292"/>
    </contour>
    <contour>
      <point x="916" y="292" type="line"/>
      <point x="1073" y="292"/>
      <point x="1302" y="398"/>
      <point x="1446" y="591"/>
      <point x="1476" y="724" type="qcurve" smooth="yes"/>
      <point x="1491" y="790"/>
      <point x="1491" y="845" type="qcurve" smooth="yes"/>
      <point x="1491" y="977"/>
      <point x="1314" y="1129"/>
      <point x="1122" y="1129" type="qcurve"/>
    </contour>
  </outline>
</glyph>
<glyph name="afii10039" format="2">
  <advance width="1304"/>
  <unicode hex="0425"/>
  <outline>
    <contour>
      <point x="1134" y="0" type="line"/>
      <point x="898" y="0" type="line"/>
      <point x="668" y="558" type="line"/>
      <point x="182" y="0" type="line"/>
      <point x="-65" y="0" type="line"/>
      <point x="569" y="707" type="line"/>
      <point x="267" y="1413" type="line"/>
      <point x="506" y="1413" type="line"/>
      <point x="726" y="846" type="line"/>
      <point x="1217" y="1413" type="line"/>
      <point x="1463" y="1413" type="line"/>
      <point x="830" y="707" type="line"/>
    </contour>
  </outline>
</glyph>
<glyph name="afii10042" format="2">
  <advance width="1775"/>
  <unicode hex="0428"/>
  <outline>
    <contour>
      <point x="1461" y="0" type="line"/>
      <point x="85" y="0" type="line"/>
      <point x="411" y="1412" type="line"/>
      <point x="613" y="1412" type="line"/>
      <point x="329" y="182" type="line"/>
      <point x="711" y="182" type="line"/>
      <point x="996" y="1412" type="line"/>
      <point x="1199" y="1412" type="line"/>
      <point x="914" y="182" type="line"/>
      <point x="1299" y="182" type="line"/>
      <point x="1584" y="1412" type="line"/>
      <point x="1787" y="1412" type="line"/>
    </contour>
  </outline>
</glyph>
<glyph name="afii10044" format="2">
  <advance width="1385"/>
  <unicode hex="042A"/>
  <outline>
    <contour>
      <point x="735" y="0" type="qcurve" smooth="yes"/>
      <point x="312" y="0" type="line"/>
      <point x="597" y="1238" type="line"/>
      <point x="211" y="1238" type="line"/>
      <point x="252" y="1412" type="line"/>
      <point x="839" y="1412" type="line"/>
      <point x="698" y="799" type="line"/>
      <point x="908" y="799" type="line" smooth="yes"/>
      <point x="1027" y="799"/>
      <point x="1206" y="728"/>
      <point x="1305" y="590"/>
      <point x="1305" y="489" type="qcurve" smooth="yes"/>
      <point x="1305" y="321"/>
      <point x="1186" y="178" type="qcurve"/>
      <point x="1104" y="88"/>
      <point x="869" y="0"/>
    </contour>
    <contour>
      <point x="766" y="186" type="line" smooth="yes"/>
      <point x="907" y="186"/>
      <point x="1076" y="314"/>
      <point x="1100" y="421" type="qcurve" smooth="yes"/>
      <point x="1107" y="454"/>
      <point x="1107" y="473" type="qcurve" smooth="yes"/>
      <point x="1107" y="613"/>
      <point x="877" y="613" type="qcurve" smooth="yes"/>
      <point x="655" y="613" type="line"/>
      <point x="555" y="186" type="line"/>
    </contour>
  </outline>
</glyph>
<glyph name="afii10047" format="2">
  <advance width="1426"/>
  <unicode hex="042D"/>
  <outline>
    <contour>
      <point x="556" y="-20" type="qcurve" smooth="yes"/>
      <point x="353" y="-20"/>
      <point x="83" y="182"/>
      <point x="43" y="380" type="qcurve"/>
      <point x="241" y="440" type="line"/>
      <point x="261" y="302"/>
      <point x="423" y="171"/>
      <point x="576" y="171" type="qcurve" smooth="yes"/>
      <point x="719" y="171"/>
      <point x="943" y="291"/>
      <point x="1101" y="499"/>
      <point x="1145" y="632" type="qcurve"/>
      <point x="543" y="624" type="line"/>
      <point x="582" y="795" type="line"/>
      <point x="1186" y="804" type="line"/>
      <point x="1193" y="850"/>
      <point x="1193" y="901" type="qcurve" smooth="yes"/>
      <point x="1193" y="1059"/>
      <point x="1026" y="1244"/>
      <point x="852" y="1244" type="qcurve" smooth="yes"/>
      <point x="703" y="1244"/>
      <point x="448" y="1110"/>
      <point x="369" y="961" type="qcurve"/>
      <point x="196" y="1054" type="line"/>
      <point x="330" y="1251"/>
      <point x="678" y="1436"/>
      <point x="870" y="1436" type="qcurve" smooth="yes"/>
      <point x="1048" y="1436"/>
      <point x="1280" y="1302"/>
      <point x="1394" y="1067"/>
      <point x="1394" y="915" type="qcurve" smooth="yes"/>
      <point x="1394" y="777"/>
      <point x="1302" y="467"/>
      <point x="1212" y="331" type="qcurve"/>
      <point x="1103" y="170"/>
      <point x="769" y="-20"/>
    </contour>
  </outline>
</glyph>
<glyph name="afii10048" format="2">
  <advance width="1944"/>
  <unicode hex="042E"/>
  <outline>
    <contour>
      <point x="1075" y="-20" type="qcurve" smooth="yes"/>
      <point x="896" y="-20"/>
      <point x="663" y="113"/>
      <point x="550" y="346"/>
      <point x="550" y="495" type="qcurve" smooth="yes"/>
      <point x="550" y="551"/>
      <point x="560" y="624" type="qcurve"/>
      <point x="427" y="616" type="line"/>
      <point x="286" y="0" type="line"/>
      <point x="83" y="0" type="line"/>
      <point x="409" y="1412" type="line"/>
      <point x="611" y="1412" type="line"/>
      <point x="469" y="797" type="line"/>
      <point x="600" y="806" type="line"/>
      <point x="655" y="980"/>
      <point x="869" y="1265"/>
      <point x="1033" y="1352" type="qcurve" smooth="yes"/>
      <point x="1190" y="1434"/>
      <point x="1386" y="1434" type="qcurve" smooth="yes"/>
      <point x="1566" y="1434"/>
      <point x="1799" y="1301"/>
      <point x="1911" y="1066"/>
      <point x="1911" y="914" type="qcurve" smooth="yes"/>
      <point x="1911" y="770"/>
      <point x="1820" y="465"/>
      <point x="1732" y="332" type="qcurve" smooth="yes"/>
      <point x="1624" y="171"/>
      <point x="1289" y="-20"/>
    </contour>
    <contour>
      <point x="1092" y="163" type="qcurve" smooth="yes"/>
      <point x="1250" y="163"/>
      <point x="1372" y="240" type="qcurve"/>
      <point x="1497" y="321"/>
      <point x="1650" y="574"/>
      <point x="1684" y="725" type="qcurve" smooth="yes"/>
      <point x="1706" y="822"/>
      <point x="1706" y="905" type="qcurve" smooth="yes"/>
      <point x="1706" y="1063"/>
      <point x="1543" y="1250"/>
      <point x="1368" y="1250" type="qcurve" smooth="yes"/>
      <point x="1211" y="1250"/>
      <point x="1091" y="1174" type="qcurve"/>
      <point x="966" y="1092"/>
      <point x="813" y="839"/>
      <point x="779" y="688" type="qcurve"/>
      <point x="756" y="591"/>
      <point x="756" y="506" type="qcurve" smooth="yes"/>
      <point x="756" y="349"/>
      <point x="919" y="163"/>
    </contour>
  </outline>
</glyph>
<glyph name="afii10049" format="2">
  <advance width="1239"/>
  <unicode hex="042F"/>
  <outline>
    <contour>
      <point x="923" y="-2" type="line"/>
      <point x="719" y="-2" type="line"/>
      <point x="860" y="619" type="line"/>
      <point x="653" y="619" type="line"/>
      <point x="173" y="-2" type="line"/>
      <point x="-68" y="-2" type="line"/>
      <point x="460" y="639" type="line"/>
      <point x="363" y="678"/>
      <point x="270" y="846"/>
      <point x="270" y="948" type="qcurve" smooth="yes"/>
      <point x="270" y="1001"/>
      <point x="282" y="1055" type="qcurve" smooth="yes"/>
      <point x="325" y="1242"/>
      <point x="616" y="1412"/>
      <point x="825" y="1412" type="qcurve" smooth="yes"/>
      <point x="1247" y="1412" type="line"/>
    </contour>
    <contour>
      <point x="900" y="794" type="line"/>
      <point x="1000" y="1231" type="line"/>
      <point x="767" y="1231" type="line" smooth="yes"/>
      <point x="654" y="1231"/>
      <point x="491" y="1128"/>
      <point x="464" y="1025" type="qcurve" smooth="yes"/>
      <point x="457" y="996"/>
      <point x="457" y="967" type="qcurve" smooth="yes"/>
      <point x="457" y="885"/>
      <point x="568" y="799"/>
      <point x="658" y="794" type="qcurve"/>
    </contour>
  </outline>
</glyph>
<glyph name="afii10067" format="2">
  <advance width="1176"/>
  <unicode hex="0432"/>
  <outline>
    <contour>
      <point x="508" y="-20" type="qcurve" smooth="yes"/>
      <point x="388" y="-20"/>
      <point x="206" y="49"/>
      <point x="103" y="195"/>
      <point x="103" y="311" type="qcurve" smooth="yes"/>
      <point x="103" y="376"/>
      <point x="121" y="454" type="qcurve" smooth="yes"/>
      <point x="243" y="982" type="line" smooth="yes"/>
      <point x="298" y="1221"/>
      <point x="598" y="1434"/>
      <point x="810" y="1434" type="qcurve" smooth="yes"/>
      <point x="909" y="1434"/>
      <point x="1068" y="1373"/>
      <point x="1161" y="1246"/>
      <point x="1161" y="1149" type="qcurve" smooth="yes"/>
      <point x="1161" y="984"/>
      <point x="1030" y="855" type="qcurve"/>
      <point x="981" y="809"/>
      <point x="918" y="781" type="qcurve"/>
      <point x="996" y="755"/>
      <point x="1068" y="621"/>
      <point x="1068" y="532" type="qcurve" smooth="yes"/>
      <point x="1068" y="436"/>
      <point x="998" y="245"/>
      <point x="942" y="175" type="qcurve"/>
      <point x="858" y="74"/>
      <point x="633" y="-20"/>
    </contour>
    <contour>
      <point x="518" y="156" type="line" smooth="yes"/>
      <point x="662" y="156"/>
      <point x="829" y="315"/>
      <point x="860" y="454" type="qcurve" smooth="yes"/>
      <point x="869" y="496"/>
      <point x="869" y="530" type="qcurve" smooth="yes"/>
      <point x="869" y="616"/>
      <point x="764" y="694"/>
      <point x="677" y="694" type="qcurve" smooth="yes"/>
      <point x="560" y="694"/>
      <point x="472" y="637" type="qcurve"/>
      <point x="504" y="820" type="line"/>
      <point x="590" y="862"/>
      <point x="706" y="862" type="qcurve" smooth="yes"/>
      <point x="717" y="862" type="line" smooth="yes"/>
      <point x="781" y="862"/>
      <point x="880" y="925"/>
      <point x="944" y="1022"/>
      <point x="956" y="1075" type="qcurve" smooth="yes"/>
      <point x="963" y="1110"/>
      <point x="963" y="1129" type="qcurve" smooth="yes"/>
      <point x="963" y="1253"/>
      <point x="794" y="1253" type="qcurve" smooth="yes"/>
      <point x="654" y="1253"/>
      <point x="469" y="1111"/>
      <point x="429" y="936" type="qcurve" smooth="yes"/>
      <point x="315" y="445" type="line" smooth="yes"/>
      <point x="300" y="381"/>
      <point x="300" y="332" type="qcurve" smooth="yes"/>
      <point x="300" y="156"/>
      <point x="506" y="156" type="qcurve" smooth="yes"/>
    </contour>
  </outline>
</glyph>
<glyph name="afii10068" format="2">
  <advance width="890"/>
  <unicode hex="0433"/>
  <outline>
    <contour>
      <point x="332" y="-20" type="qcurve" smooth="yes"/>
      <point x="248" y="-20"/>
      <point x="105" y="32"/>
      <point x="17" y="141"/>
      <point x="17" y="225" type="qcurve" smooth="yes"/>
      <point x="17" y="285"/>
      <point x="64" y="411"/>
      <point x="107" y="456" type="qcurve"/>
      <point x="162" y="511"/>
      <point x="305" y="578"/>
      <point x="414" y="610" type="qcurve" smooth="yes"/>
      <point x="493" y="634"/>
      <point x="583" y="670"/>
      <point x="614" y="696" type="qcurve"/>
      <point x="636" y="716"/>
      <point x="660" y="767"/>
      <point x="660" y="787" type="qcurve" smooth="yes"/>
      <point x="660" y="852"/>
      <point x="542" y="852" type="qcurve" smooth="yes"/>
      <point x="397" y="852"/>
      <point x="296" y="719" type="qcurve"/>
      <point x="167" y="815" type="line"/>
      <point x="235" y="903"/>
      <point x="432" y="1014"/>
      <point x="557" y="1014" type="qcurve" smooth="yes"/>
      <point x="631" y="1014"/>
      <point x="761" y="963"/>
      <point x="841" y="859"/>
      <point x="841" y="781" type="qcurve" smooth="yes"/>
      <point x="841" y="702"/>
      <point x="779" y="582"/>
      <point x="685" y="501"/>
      <point x="634" y="480" type="qcurve" smooth="yes"/>
      <point x="567" y="452"/>
      <point x="462" y="422" type="qcurve"/>
      <point x="348" y="392"/>
      <point x="223" y="321"/>
      <point x="208" y="257" type="qcurve" smooth="yes"/>
      <point x="205" y="244"/>
      <point x="205" y="231" type="qcurve" smooth="yes"/>
      <point x="205" y="186"/>
      <point x="285" y="145"/>
      <point x="350" y="145" type="qcurve" smooth="yes"/>
      <point x="412" y="145"/>
      <point x="520" y="196"/>
      <point x="604" y="278"/>
      <point x="631" y="327" type="qcurve"/>
      <point x="773" y="233" type="line"/>
      <point x="734" y="164"/>
      <point x="603" y="49"/>
      <point x="430" y="-20"/>
    </contour>
  </outline>
</glyph>
<glyph name="afii10077" format="2">
  <advance width="971"/>
  <unicode hex="043B"/>
  <outline>
    <contour>
      <point x="842" y="0" type="line"/>
      <point x="633" y="0" type="line"/>
      <point x="548" y="748" type="line"/>
      <point x="112" y="0" type="line"/>
      <point x="-100" y="0" type="line"/>
      <point x="518" y="999" type="line"/>
      <point x="683" y="999" type="line"/>
    </contour>
  </outline>
</glyph>
<glyph name="afii10079" format="2">
  <advance width="1179"/>
  <unicode hex="043D"/>
  <outline>
    <contour>
      <point x="901" y="0" type="line"/>
      <point x="706" y="0" type="line"/>
      <point x="816" y="478" type="line"/>
      <point x="355" y="478" type="line"/>
      <point x="245" y="0" type="line"/>
      <point x="48" y="0" type="line"/>
      <point x="278" y="999" type="line"/>
      <point x="474" y="999" type="line"/>
      <point x="388" y="626" type="line"/>
      <point x="849" y="626" type="line"/>
      <point x="935" y="999" type="line"/>
      <point x="1131" y="999" type="line"/>
    </contour>
  </outline>
</glyph>
<glyph name="afii10081" format="2">
  <advance width="1149"/>
  <unicode hex="043F"/>
  <outline>
    <contour>
      <point x="901" y="0" type="line"/>
      <point x="706" y="0" type="line"/>
      <point x="841" y="589" type="line" smooth="yes"/>
      <point x="856" y="654"/>
      <point x="856" y="699" type="qcurve" smooth="yes"/>
      <point x="856" y="834"/>
      <point x="723" y="834" type="qcurve" smooth="yes"/>
      <point x="641" y="834"/>
      <point x="492" y="749"/>
      <point x="387" y="620"/>
      <point x="369" y="549" type="qcurve"/>
      <point x="244" y="0" type="line"/>
      <point x="48" y="0" type="line"/>
      <point x="278" y="999" type="line"/>
      <point x="473" y="999" type="line"/>
      <point x="439" y="867" type="line"/>
      <point x="512" y="944"/>
      <point x="685" y="1016"/>
      <point x="767" y="1016" type="qcurve" smooth="yes"/>
      <point x="914" y="1016"/>
      <point x="1054" y="856"/>
      <point x="1054" y="727" type="qcurve" smooth="yes"/>
      <point x="1054" y="667"/>
      <point x="1038" y="597" type="qcurve" smooth="yes"/>
    </contour>
  </outline>
</glyph>
<glyph name="afii10082" format="2">
  <advance width="1146"/>
  <unicode hex="0440"/>
  <outline>
    <contour>
      <point x="141" y="-438" type="line"/>
      <point x="-54" y="-438" type="line"/>
      <point x="278" y="999" type="line"/>
      <point x="473" y="999" type="line"/>
      <point x="444" y="886" type="line"/>
      <point x="574" y="1020"/>
      <point x="766" y="1020" type="qcurve" smooth="yes"/>
      <point x="873" y="1020"/>
      <point x="1017" y="924"/>
      <point x="1089" y="757"/>
      <point x="1089" y="650" type="qcurve" smooth="yes"/>
      <point x="1089" y="545"/>
      <point x="1024" y="324"/>
      <point x="963" y="229" type="qcurve" smooth="yes"/>
      <point x="892" y="117"/>
      <point x="682" y="-20"/>
      <point x="551" y="-20" type="qcurve" smooth="yes"/>
      <point x="447" y="-20"/>
      <point x="309" y="61"/>
      <point x="276" y="128" type="qcurve"/>
    </contour>
    <contour>
      <point x="517" y="155" type="qcurve" smooth="yes"/>
      <point x="611" y="155"/>
      <point x="757" y="252"/>
      <point x="855" y="415"/>
      <point x="878" y="517" type="qcurve" smooth="yes"/>
      <point x="893" y="580"/>
      <point x="893" y="636" type="qcurve" smooth="yes"/>
      <point x="893" y="697"/>
      <point x="854" y="793"/>
      <point x="770" y="847"/>
      <point x="701" y="847" type="qcurve" smooth="yes"/>
      <point x="608" y="847"/>
      <point x="463" y="748"/>
      <point x="366" y="583"/>
      <point x="343" y="481" type="qcurve" smooth="yes"/>
      <point x="328" y="418"/>
      <point x="328" y="361" type="qcurve" smooth="yes"/>
      <point x="328" y="270"/>
      <point x="416" y="155"/>
    </contour>
  </outline>
</glyph>
<glyph name="afii10088" format="2">
  <advance width="1167"/>
  <unicode hex="0446"/>
  <outline>
    <contour>
      <point x="908" y="-307" type="line"/>
      <point x="749" y="-307" type="line"/>
      <point x="821" y="-23" type="line"/>
      <point x="773" y="-23"/>
      <point x="707" y="61"/>
      <point x="707" y="118" type="qcurve"/>
      <point x="709" y="145" type="line"/>
      <point x="650" y="72"/>
      <point x="473" y="-23"/>
      <point x="377" y="-23" type="qcurve" smooth="yes"/>
      <point x="231" y="-23"/>
      <point x="91" y="142"/>
      <point x="91" y="276" type="qcurve" smooth="yes"/>
      <point x="91" y="343"/>
      <point x="108" y="417" type="qcurve" smooth="yes"/>
      <point x="242" y="999" type="line"/>
      <point x="439" y="999" type="line"/>
      <point x="302" y="404" type="line"/>
      <point x="286" y="340"/>
      <point x="286" y="289" type="qcurve" smooth="yes"/>
      <point x="286" y="154"/>
      <point x="417" y="154" type="qcurve" smooth="yes"/>
      <point x="499" y="154"/>
      <point x="650" y="242"/>
      <point x="756" y="374"/>
      <point x="774" y="445" type="qcurve"/>
      <point x="902" y="999" type="line"/>
      <point x="1098" y="999" type="line"/>
      <point x="918" y="219" type="line" smooth="yes"/>
      <point x="913" y="199"/>
      <point x="913" y="176" type="qcurve" smooth="yes"/>
      <point x="913" y="125"/>
      <point x="977" y="79"/>
      <point x="1029" y="79" type="qcurve"/>
    </contour>
  </outline>
</glyph>
<glyph name="afii10090" format="2">
  <advance width="1756"/>
  <unicode hex="0448"/>
  <outline>
    <contour>
      <point x="1030" y="-18" type="qcurve" smooth="yes"/>
      <point x="920" y="-18"/>
      <point x="790" y="80"/>
      <point x="768" y="161" type="qcurve"/>
      <point x="622" y="-16"/>
      <point x="414" y="-16" type="qcurve" smooth="yes"/>
      <point x="267" y="-16"/>
      <point x="125" y="145"/>
      <point x="125" y="274" type="qcurve" smooth="yes"/>
      <point x="125" y="334"/>
      <point x="141" y="404" type="qcurve" smooth="yes"/>
      <point x="278" y="999" type="line"/>
      <point x="474" y="999" type="line"/>
      <point x="338" y="410" type="line" smooth="yes"/>
      <point x="323" y="345"/>
      <point x="323" y="298" type="qcurve" smooth="yes"/>
      <point x="323" y="156"/>
      <point x="456" y="156" type="qcurve" smooth="yes"/>
      <point x="534" y="156"/>
      <point x="664" y="241"/>
      <point x="752" y="374"/>
      <point x="770" y="449" type="qcurve"/>
      <point x="896" y="999" type="line"/>
      <point x="1092" y="999" type="line"/>
      <point x="956" y="406" type="line" smooth="yes"/>
      <point x="941" y="339"/>
      <point x="941" y="293" type="qcurve" smooth="yes"/>
      <point x="941" y="156"/>
      <point x="1072" y="156" type="qcurve" smooth="yes"/>
      <point x="1150" y="156"/>
      <point x="1280" y="241"/>
      <point x="1369" y="374"/>
      <point x="1386" y="449" type="qcurve" smooth="yes"/>
      <point x="1512" y="999" type="line"/>
      <point x="1708" y="999" type="line"/>
      <point x="1478" y="0" type="line"/>
      <point x="1283" y="0" type="line"/>
      <point x="1315" y="133" type="line"/>
      <point x="1255" y="56"/>
      <point x="1104" y="-18"/>
    </contour>
  </outline>
</glyph>
<glyph name="afii10091" format="2">
  <advance width="1742"/>
  <unicode hex="0449"/>
  <outline>
    <contour>
      <point x="1483" y="-307" type="line"/>
      <point x="1325" y="-307" type="line"/>
      <point x="1396" y="-23" type="line"/>
      <point x="1349" y="-23"/>
      <point x="1283" y="63"/>
      <point x="1283" y="120" type="qcurve"/>
      <point x="1285" y="148" type="line"/>
      <point x="1222" y="64"/>
      <point x="1069" y="-18"/>
      <point x="996" y="-18" type="qcurve" smooth="yes"/>
      <point x="886" y="-18"/>
      <point x="755" y="80"/>
      <point x="734" y="161" type="qcurve"/>
      <point x="587" y="-16"/>
      <point x="379" y="-16" type="qcurve" smooth="yes"/>
      <point x="232" y="-16"/>
      <point x="91" y="145"/>
      <point x="91" y="275" type="qcurve" smooth="yes"/>
      <point x="91" y="338"/>
      <point x="106" y="404" type="qcurve" smooth="yes"/>
      <point x="243" y="999" type="line"/>
      <point x="439" y="999" type="line"/>
      <point x="304" y="410" type="line" smooth="yes"/>
      <point x="289" y="343"/>
      <point x="289" y="297" type="qcurve" smooth="yes"/>
      <point x="289" y="156"/>
      <point x="421" y="156" type="qcurve" smooth="yes"/>
      <point x="499" y="156"/>
      <point x="629" y="241"/>
      <point x="718" y="374"/>
      <point x="735" y="449" type="qcurve" smooth="yes"/>
      <point x="861" y="999" type="line"/>
      <point x="1058" y="999" type="line"/>
      <point x="921" y="406" type="line" smooth="yes"/>
      <point x="906" y="339"/>
      <point x="906" y="293" type="qcurve" smooth="yes"/>
      <point x="906" y="156"/>
      <point x="1038" y="156" type="qcurve" smooth="yes"/>
      <point x="1116" y="156"/>
      <point x="1246" y="241"/>
      <point x="1334" y="374"/>
      <point x="1352" y="449" type="qcurve"/>
      <point x="1478" y="999" type="line"/>
      <point x="1673" y="999" type="line"/>
      <point x="1494" y="219" type="line" smooth="yes"/>
      <point x="1488" y="195"/>
      <point x="1488" y="174" type="qcurve" smooth="yes"/>
      <point x="1488" y="124"/>
      <point x="1553" y="79"/>
      <point x="1604" y="79" type="qcurve"/>
    </contour>
  </outline>
</glyph>
<glyph name="afii10092" format="2">
  <advance width="1191"/>
  <unicode hex="044A"/>
  <outline>
    <contour>
      <point x="551" y="-20" type="qcurve" smooth="yes"/>
      <point x="390" y="-20"/>
      <point x="202" y="139"/>
      <point x="202" y="291" type="qcurve" smooth="yes"/>
      <point x="202" y="346"/>
      <point x="218" y="418" type="qcurve"/>
      <point x="318" y="847" type="line"/>
      <point x="94" y="847" type="line"/>
      <point x="128" y="999" type="line"/>
      <point x="536" y="999" type="line"/>
      <point x="465" y="708" type="line"/>
      <point x="522" y="756"/>
      <point x="673" y="818"/>
      <point x="758" y="818" type="qcurve" smooth="yes"/>
      <point x="875" y="818"/>
      <point x="1031" y="741"/>
      <point x="1108" y="602"/>
      <point x="1108" y="509" type="qcurve" smooth="yes"/>
      <point x="1108" y="455"/>
      <point x="1092" y="381" type="qcurve"/>
      <point x="1044" y="186"/>
      <point x="749" y="-20"/>
    </contour>
    <contour>
      <point x="575" y="149" type="qcurve" smooth="yes"/>
      <point x="656" y="149"/>
      <point x="784" y="220"/>
      <point x="869" y="341"/>
      <point x="887" y="417" type="qcurve" smooth="yes"/>
      <point x="894" y="445"/>
      <point x="894" y="475" type="qcurve" smooth="yes"/>
      <point x="894" y="548"/>
      <point x="803" y="649"/>
      <point x="711" y="649" type="qcurve" smooth="yes"/>
      <point x="632" y="649"/>
      <point x="503" y="584"/>
      <point x="417" y="478"/>
      <point x="402" y="414" type="qcurve" smooth="yes"/>
      <point x="397" y="392" type="line"/>
      <point x="390" y="369"/>
      <point x="384" y="334"/>
      <point x="384" y="310" type="qcurve" smooth="yes"/>
      <point x="384" y="239"/>
      <point x="477" y="149"/>
    </contour>
  </outline>
</glyph>
<glyph name="afii10094" format="2">
  <advance width="1118"/>
  <unicode hex="044C"/>
  <outline>
    <contour>
      <point x="473" y="-20" type="qcurve" smooth="yes"/>
      <point x="313" y="-20"/>
      <point x="121" y="140"/>
      <point x="121" y="293" type="qcurve" smooth="yes"/>
      <point x="121" y="352"/>
      <point x="136" y="418" type="qcurve" smooth="yes"/>
      <point x="270" y="999" type="line"/>
      <point x="454" y="999" type="line"/>
      <point x="383" y="708" type="line"/>
      <point x="513" y="818"/>
      <point x="660" y="818" type="qcurve" smooth="yes"/>
      <point x="830" y="818"/>
      <point x="1024" y="652"/>
      <point x="1024" y="501" type="qcurve" smooth="yes"/>
      <point x="1024" y="409"/>
      <point x="962" y="234"/>
      <point x="905" y="167" type="qcurve" smooth="yes"/>
      <point x="823" y="73"/>
      <point x="598" y="-20"/>
    </contour>
    <contour>
      <point x="488" y="149" type="qcurve" smooth="yes"/>
      <point x="570" y="149"/>
      <point x="700" y="220"/>
      <point x="787" y="341"/>
      <point x="805" y="417" type="qcurve" smooth="yes"/>
      <point x="812" y="445"/>
      <point x="812" y="475" type="qcurve" smooth="yes"/>
      <point x="812" y="547"/>
      <point x="721" y="649"/>
      <point x="628" y="649" type="qcurve" smooth="yes"/>
      <point x="550" y="649"/>
      <point x="424" y="584"/>
      <point x="338" y="478"/>
      <point x="319" y="414" type="qcurve"/>
      <point x="314" y="391" type="line"/>
      <point x="309" y="371"/>
      <point x="304" y="341"/>
      <point x="304" y="316" type="qcurve" smooth="yes"/>
      <point x="304" y="241"/>
      <point x="395" y="149"/>
    </contour>
  </outline>
</glyph>
<glyph name="afii10099" format="2">
  <advance width="1137"/>
  <unicode hex="0452"/>
  <outline>
    <contour>
      <point x="403" y="-448" type="qcurve" smooth="yes"/>
      <point x="319" y="-448"/>
      <point x="188" y="-387"/>
      <point x="126" y="-325" type="qcurve"/>
      <point x="250" y="-191" type="line"/>
      <point x="323" y="-270"/>
      <point x="410" y="-270" type="qcurve" smooth="yes"/>
      <point x="532" y="-270"/>
      <point x="675" y="-98"/>
      <point x="709" y="48" type="qcurve" smooth="yes"/>
      <point x="834" y="591" type="line" smooth="yes"/>
      <point x="849" y="656"/>
      <point x="849" y="699" type="qcurve" smooth="yes"/>
      <point x="849" y="764"/>
      <point x="785" y="831"/>
      <point x="714" y="831" type="qcurve" smooth="yes"/>
      <point x="601" y="831"/>
      <point x="394" y="663"/>
      <point x="359" y="523" type="qcurve"/>
      <point x="239" y="0" type="line"/>
      <point x="43" y="0" type="line"/>
      <point x="305" y="1138" type="line"/>
      <point x="138" y="1138" type="line"/>
      <point x="170" y="1277" type="line"/>
      <point x="336" y="1277" type="line"/>
      <point x="369" y="1413" type="line"/>
      <point x="564" y="1413" type="line"/>
      <point x="532" y="1277" type="line"/>
      <point x="805" y="1277" type="line"/>
      <point x="773" y="1138" type="line"/>
      <point x="501" y="1138" type="line"/>
      <point x="435" y="871" type="line"/>
      <point x="506" y="947"/>
      <point x="672" y="1018"/>
      <point x="753" y="1018" type="qcurve" smooth="yes"/>
      <point x="904" y="1018"/>
      <point x="1046" y="857"/>
      <point x="1046" y="726" type="qcurve" smooth="yes"/>
      <point x="1046" y="657"/>
      <point x="1030" y="592" type="qcurve"/>
      <point x="911" y="74" type="line" smooth="yes"/>
      <point x="868" y="-110"/>
      <point x="727" y="-341"/>
      <point x="530" y="-448"/>
    </contour>
  </outline>
</glyph>
<glyph name="afii10100" format="2">
  <advance width="780"/>
  <unicode hex="0453"/>
  <outline>
    <contour>
      <point x="617" y="1124" type="line"/>
      <point x="466" y="1124" type="line"/>
      <point x="752" y="1413" type="line"/>
      <point x="969" y="1413" type="line"/>
    </contour>
    <contour>
      <point x="236" y="0" type="line"/>
      <point x="40" y="0" type="line"/>
      <point x="270" y="999" type="line"/>
      <point x="882" y="999" type="line"/>
      <point x="849" y="851" type="line"/>
      <point x="432" y="851" type="line"/>
    </contour>
  </outline>
</glyph>
<glyph name="afii10101" format="2">
  <advance width="985"/>
  <unicode hex="0454"/>
  <outline>
    <contour>
      <point x="421" y="-20" type="qcurve" smooth="yes"/>
      <point x="298" y="-20"/>
      <point x="136" y="79"/>
      <point x="56" y="252"/>
      <point x="56" y="361" type="qcurve" smooth="yes"/>
      <point x="56" y="567"/>
      <point x="182" y="764" type="qcurve"/>
      <point x="230" y="837"/>
      <point x="364" y="950"/>
      <point x="533" y="1016"/>
      <point x="634" y="1016" type="qcurve" smooth="yes"/>
      <point x="734" y="1016"/>
      <point x="880" y="943"/>
      <point x="970" y="816"/>
      <point x="987" y="732" type="qcurve"/>
      <point x="794" y="675" type="line"/>
      <point x="790" y="759"/>
      <point x="693" y="840"/>
      <point x="618" y="840" type="qcurve" smooth="yes"/>
      <point x="499" y="840"/>
      <point x="328" y="675"/>
      <point x="286" y="554" type="qcurve"/>
      <point x="665" y="563" type="line"/>
      <point x="632" y="418" type="line"/>
      <point x="252" y="409" type="line"/>
      <point x="250" y="368" type="line"/>
      <point x="250" y="271"/>
      <point x="337" y="155"/>
      <point x="434" y="155" type="qcurve" smooth="yes"/>
      <point x="524" y="155"/>
      <point x="671" y="259"/>
      <point x="712" y="338" type="qcurve"/>
      <point x="870" y="251" type="line"/>
      <point x="788" y="113"/>
      <point x="553" y="-20"/>
    </contour>
  </outline>
</glyph>
<glyph name="afii10102" format="2">
  <advance width="884"/>
  <unicode hex="0455"/>
  <outline>
    <contour>
      <point x="343" y="-20" type="qcurve" smooth="yes"/>
      <point x="240" y="-20"/>
      <point x="92" y="57"/>
      <point x="8" y="179"/>
      <point x="1" y="250" type="qcurve"/>
      <point x="168" y="310" type="line"/>
      <point x="172" y="264"/>
      <point x="215" y="190"/>
      <point x="293" y="145"/>
      <point x="352" y="145" type="qcurve" smooth="yes"/>
      <point x="434" y="145"/>
      <point x="563" y="229"/>
      <point x="583" y="307" type="qcurve" smooth="yes"/>
      <point x="586" y="319"/>
      <point x="586" y="330" type="qcurve" smooth="yes"/>
      <point x="586" y="389"/>
      <point x="508" y="416" type="qcurve" smooth="yes"/>
      <point x="476" y="427"/>
      <point x="425" y="441" type="qcurve" smooth="yes"/>
      <point x="343" y="464"/>
      <point x="278" y="489" type="qcurve"/>
      <point x="152" y="541"/>
      <point x="152" y="667" type="qcurve" smooth="yes"/>
      <point x="152" y="719"/>
      <point x="194" y="838"/>
      <point x="241" y="888" type="qcurve" smooth="yes"/>
      <point x="304" y="953"/>
      <point x="466" y="1014"/>
      <point x="547" y="1014" type="qcurve" smooth="yes"/>
      <point x="672" y="1014"/>
      <point x="828" y="892"/>
      <point x="859" y="798" type="qcurve"/>
      <point x="706" y="736" type="line"/>
      <point x="673" y="852"/>
      <point x="535" y="852" type="qcurve" smooth="yes"/>
      <point x="465" y="852"/>
      <point x="354" y="784"/>
      <point x="339" y="720" type="qcurve"/>
      <point x="337" y="714"/>
      <point x="337" y="702" type="qcurve" smooth="yes"/>
      <point x="337" y="662"/>
      <point x="418" y="622"/>
      <point x="499" y="601" type="qcurve" smooth="yes"/>
      <point x="588" y="577"/>
      <point x="643" y="552" type="qcurve" smooth="yes"/>
      <point x="775" y="493"/>
      <point x="775" y="360" type="qcurve" smooth="yes"/>
      <point x="775" y="300"/>
      <point x="727" y="169"/>
      <point x="678" y="117" type="qcurve"/>
      <point x="608" y="46"/>
      <point x="431" y="-20"/>
    </contour>
  </outline>
</glyph>
<glyph name="afii10105" format="2">
  <advance width="511"/>
  <unicode hex="0458"/>
  <outline>
    <contour>
      <point x="526" y="1197" type="line"/>
      <point x="312" y="1197" type="line"/>
      <point x="364" y="1416" type="line"/>
      <point x="577" y="1416" type="line"/>
    </contour>
    <contour>
      <point x="-123" y="-438" type="qcurve" smooth="yes"/>
      <point x="-204" y="-438"/>
      <point x="-280" y="-408" type="qcurve"/>
      <point x="-284" y="-406" type="line"/>
      <point x="-207" y="-256" type="line"/>
      <point x="-151" y="-263"/>
      <point x="-114" y="-263" type="qcurve" smooth="yes"/>
      <point x="-16" y="-263"/>
      <point x="11" y="-142" type="qcurve"/>
      <point x="274" y="999" type="line"/>
      <point x="470" y="999" type="line"/>
      <point x="208" y="-139" type="line" smooth="yes"/>
      <point x="188" y="-227"/>
      <point x="103" y="-362"/>
      <point x="-31" y="-438"/>
    </contour>
  </outline>
</glyph>
<glyph name="afii10106" format="2">
  <advance width="1648"/>
  <unicode hex="0459"/>
  <outline>
    <contour>
      <point x="105" y="-21" type="qcurve" smooth="yes"/>
      <point x="26" y="-21"/>
      <point x="-71" y="31" type="qcurve"/>
      <point x="4" y="155" type="line"/>
      <point x="15" y="146"/>
      <point x="56" y="131"/>
      <point x="72" y="131" type="qcurve" smooth="yes"/>
      <point x="123" y="131"/>
      <point x="245" y="382"/>
      <point x="302" y="624" type="qcurve"/>
      <point x="388" y="999" type="line"/>
      <point x="1092" y="999" type="line"/>
      <point x="1020" y="684" type="line"/>
      <point x="1183" y="684" type="line" smooth="yes"/>
      <point x="1358" y="684"/>
      <point x="1541" y="571"/>
      <point x="1541" y="441" type="qcurve" smooth="yes"/>
      <point x="1541" y="389"/>
      <point x="1526" y="325" type="qcurve" smooth="yes"/>
      <point x="1485" y="158"/>
      <point x="1228" y="0"/>
      <point x="1038" y="0" type="qcurve" smooth="yes"/>
      <point x="667" y="0" type="line"/>
      <point x="864" y="851" type="line"/>
      <point x="550" y="851" type="line"/>
      <point x="493" y="609" type="line" smooth="yes"/>
      <point x="437" y="367"/>
      <point x="315" y="91"/>
      <point x="181" y="-21"/>
    </contour>
    <contour>
      <point x="1062" y="164" type="line" smooth="yes"/>
      <point x="1275" y="164"/>
      <point x="1319" y="362" type="qcurve" smooth="yes"/>
      <point x="1325" y="391"/>
      <point x="1325" y="412" type="qcurve" smooth="yes"/>
      <point x="1325" y="472"/>
      <point x="1238" y="520"/>
      <point x="1156" y="520" type="qcurve" smooth="yes"/>
      <point x="982" y="520" type="line"/>
      <point x="900" y="164" type="line"/>
    </contour>
  </outline>
</glyph>
<glyph name="afii10109" format="2">
  <advance width="996"/>
  <unicode hex="045C"/>
  <outline>
    <contour>
      <point x="717" y="1124" type="line"/>
      <point x="566" y="1124" type="line"/>
      <point x="852" y="1413" type="line"/>
      <point x="1070" y="1413" type="line"/>
    </contour>
    <contour>
      <point x="853" y="0" type="line"/>
      <point x="628" y="0" type="line"/>
      <point x="592" y="364" type="line"/>
      <point x="584" y="429"/>
      <point x="530" y="484"/>
      <point x="475" y="484" type="qcurve" smooth="yes"/>
      <point x="353" y="484" type="line"/>
      <point x="242" y="0" type="line"/>
      <point x="48" y="0" type="line"/>
      <point x="278" y="999" type="line"/>
      <point x="472" y="999" type="line"/>
      <point x="388" y="635" type="line"/>
      <point x="485" y="635" type="line"/>
      <point x="796" y="999" type="line"/>
      <point x="1030" y="999" type="line"/>
      <point x="658" y="604" type="line"/>
      <point x="708" y="604"/>
      <point x="771" y="498"/>
      <point x="782" y="436" type="qcurve"/>
    </contour>
  </outline>
</glyph>
<glyph name="afii10193" format="2">
  <advance width="1179"/>
  <unicode hex="045F"/>
  <outline>
    <contour>
      <point x="500" y="-307" type="line"/>
      <point x="305" y="-307" type="line"/>
      <point x="377" y="0" type="line"/>
      <point x="48" y="0" type="line"/>
      <point x="278" y="999" type="line"/>
      <point x="473" y="999" type="line"/>
      <point x="277" y="149" type="line"/>
      <point x="740" y="149" type="line"/>
      <point x="936" y="999" type="line"/>
      <point x="1131" y="999" type="line"/>
      <point x="901" y="0" type="line"/>
      <point x="572" y="0" type="line"/>
    </contour>
  </outline>
</glyph>
<glyph name="afii10146" format="2">
  <advance width="1281"/>
  <unicode hex="0462"/>
  <outline>
    <contour>
      <point x="632" y="0" type="qcurve" smooth="yes"/>
      <point x="208" y="0" type="line"/>
      <point x="457" y="1079" type="line"/>
      <point x="185" y="1079" type="line"/>
      <point x="226" y="1260" type="line"/>
      <point x="498" y="1260" type="line"/>
      <point x="533" y="1412" type="line"/>
      <point x="736" y="1412" type="line"/>
      <point x="700" y="1260" type="line"/>
      <point x="1022" y="1260" type="line"/>
      <point x="981" y="1079" type="line"/>
      <point x="659" y="1079" type="line"/>
      <point x="594" y="799" type="line"/>
      <point x="805" y="799" type="line" smooth="yes"/>
      <point x="990" y="799"/>
      <point x="1201" y="635"/>
      <point x="1201" y="488" type="qcurve" smooth="yes"/>
      <point x="1201" y="412"/>
      <point x="1144" y="246"/>
      <point x="1083" y="178" type="qcurve" smooth="yes"/>
      <point x="1001" y="88"/>
      <point x="766" y="0"/>
    </contour>
    <contour>
      <point x="662" y="186" type="line" smooth="yes"/>
      <point x="803" y="186"/>
      <point x="972" y="314"/>
      <point x="996" y="421" type="qcurve" smooth="yes"/>
      <point x="1002" y="448"/>
      <point x="1002" y="472" type="qcurve" smooth="yes"/>
      <point x="1002" y="541"/>
      <point x="892" y="613"/>
      <point x="773" y="613" type="qcurve" smooth="yes"/>
      <point x="551" y="613" type="line"/>
      <point x="452" y="186" type="line"/>
    </contour>
  </outline>
</glyph>
<glyph name="afii10194" format="2">
  <advance width="1023"/>
  <unicode hex="0463"/>
  <outline>
    <contour>
      <point x="412" y="0" type="qcurve" smooth="yes"/>
      <point x="43" y="0" type="line"/>
      <point x="305" y="1138" type="line"/>
      <point x="113" y="1138" type="line"/>
      <point x="145" y="1277" type="line"/>
      <point x="336" y="1277" type="line"/>
      <point x="369" y="1412" type="line"/>
      <point x="563" y="1412" type="line"/>
      <point x="531" y="1277" type="line"/>
      <point x="784" y="1277" type="line"/>
      <point x="752" y="1138" type="line"/>
      <point x="499" y="1138" type="line"/>
      <point x="395" y="684" type="line"/>
      <point x="557" y="684" type="line" smooth="yes"/>
      <point x="742" y="684"/>
      <point x="916" y="565"/>
      <point x="916" y="440" type="qcurve" smooth="yes"/>
      <point x="916" y="385"/>
      <point x="902" y="325" type="qcurve" smooth="yes"/>
      <point x="861" y="158"/>
      <point x="603" y="0"/>
    </contour>
    <contour>
      <point x="436" y="164" type="line" smooth="yes"/>
      <point x="651" y="164"/>
      <point x="695" y="362" type="qcurve" smooth="yes"/>
      <point x="701" y="391"/>
      <point x="701" y="412" type="qcurve" smooth="yes"/>
      <point x="701" y="472"/>
      <point x="615" y="520"/>
      <point x="531" y="520" type="qcurve" smooth="yes"/>
      <point x="356" y="520" type="line"/>
      <point x="274" y="164" type="line"/>
    </contour>
  </outline>
</glyph>
<glyph name="eiotifiedcyrillic" format="2">
  <advance width="1419"/>
  <unicode hex="0465"/>
  <outline>
    <contour>
      <point x="855" y="-20" type="qcurve" smooth="yes"/>
      <point x="731" y="-20"/>
      <point x="569" y="79"/>
      <point x="490" y="249"/>
      <point x="490" y="355" type="qcurve" smooth="yes"/>
      <point x="490" y="400"/>
      <point x="498" y="453" type="qcurve"/>
      <point x="345" y="445" type="line"/>
      <point x="244" y="0" type="line"/>
      <point x="48" y="0" type="line"/>
      <point x="278" y="999" type="line"/>
      <point x="473" y="999" type="line"/>
      <point x="379" y="593" type="line"/>
      <point x="535" y="602" type="line"/>
      <point x="577" y="717"/>
      <point x="725" y="904"/>
      <point x="934" y="1016"/>
      <point x="1068" y="1016" type="qcurve" smooth="yes"/>
      <point x="1168" y="1016"/>
      <point x="1314" y="943"/>
      <point x="1405" y="816"/>
      <point x="1421" y="732" type="qcurve"/>
      <point x="1228" y="675" type="line"/>
      <point x="1223" y="759"/>
      <point x="1127" y="840"/>
      <point x="1052" y="840" type="qcurve" smooth="yes"/>
      <point x="969" y="840"/>
      <point x="837" y="758"/>
      <point x="747" y="642"/>
      <point x="728" y="585" type="qcurve"/>
      <point x="1106" y="593" type="line"/>
      <point x="1073" y="448" type="line"/>
      <point x="694" y="440" type="line"/>
      <point x="687" y="389"/>
      <point x="687" y="358" type="qcurve" smooth="yes"/>
      <point x="687" y="266"/>
      <point x="772" y="155"/>
      <point x="868" y="155" type="qcurve" smooth="yes"/>
      <point x="958" y="155"/>
      <point x="1106" y="259"/>
      <point x="1146" y="338" type="qcurve"/>
      <point x="1303" y="251" type="line"/>
      <point x="1223" y="115"/>
      <point x="989" y="-20"/>
    </contour>
  </outline>
</glyph>
<glyph name="Yuslittlecyrillic" format="2">
  <advance width="1323"/>
  <unicode hex="0466"/>
  <outline>
    <contour>
      <point x="1169" y="0" type="line"/>
      <point x="953" y="0" type="line"/>
      <point x="896" y="466" type="line"/>
      <point x="757" y="466" type="line"/>
      <point x="651" y="0" type="line"/>
      <point x="449" y="0" type="line"/>
      <point x="555" y="466" type="line"/>
      <point x="421" y="466" type="line"/>
      <point x="149" y="0" type="line"/>
      <point x="-75" y="0" type="line"/>
      <point x="796" y="1412" type="line"/>
      <point x="950" y="1412" type="line"/>
    </contour>
    <contour>
      <point x="871" y="638" type="line"/>
      <point x="811" y="1114" type="line"/>
      <point x="528" y="638" type="line"/>
    </contour>
  </outline>
</glyph>
<glyph name="yuslittlecyrillic" format="2">
  <advance width="992"/>
  <unicode hex="0467"/>
  <outline>
    <contour>
      <point x="836" y="0" type="line"/>
      <point x="641" y="0" type="line"/>
      <point x="621" y="269" type="line"/>
      <point x="520" y="269" type="line"/>
      <point x="459" y="0" type="line"/>
      <point x="306" y="0" type="line"/>
      <point x="367" y="269" type="line"/>
      <point x="273" y="269" type="line"/>
      <point x="116" y="0" type="line"/>
      <point x="-77" y="0" type="line"/>
      <point x="533" y="999" type="line"/>
      <point x="687" y="999" type="line"/>
    </contour>
    <contour>
      <point x="608" y="413" type="line"/>
      <point x="562" y="764" type="line"/>
      <point x="353" y="413" type="line"/>
    </contour>
  </outline>
</glyph>
<glyph name="yuslittleiotifiedcyrillic" format="2">
  <advance width="1392"/>
  <unicode hex="0469"/>
  <outline>
    <contour>
      <point x="1236" y="0" type="line"/>
      <point x="1041" y="0" type="line"/>
      <point x="1021" y="269" type="line"/>
      <point x="920" y="269" type="line"/>
      <point x="859" y="0" type="line"/>
      <point x="705" y="0" type="line"/>
      <point x="767" y="269" type="line"/>
      <point x="674" y="269" type="line"/>
      <point x="516" y="0" type="line"/>
      <point x="322" y="0" type="line"/>
      <point x="564" y="397" type="line"/>
      <point x="335" y="397" type="line"/>
      <point x="244" y="0" type="line"/>
      <point x="48" y="0" type="line"/>
      <point x="278" y="999" type="line"/>
      <point x="473" y="999" type="line"/>
      <point x="368" y="545" type="line"/>
      <point x="654" y="545" type="line"/>
      <point x="932" y="999" type="line"/>
      <point x="1087" y="999" type="line"/>
    </contour>
    <contour>
      <point x="1009" y="413" type="line"/>
      <point x="963" y="764" type="line"/>
      <point x="753" y="413" type="line"/>
    </contour>
  </outline>
</glyph>
<glyph name="Yusbigcyrillic" format="2">
  <advance width="1572"/>
  <unicode hex="046A"/>
  <outline>
    <contour>
      <point x="1405" y="0" type="line"/>
      <point x="1178" y="0" type="line"/>
      <point x="1107" y="497" type="line" smooth="yes"/>
      <point x="1098" y="562"/>
      <point x="1045" y="653"/>
      <point x="977" y="653" type="qcurve" smooth="yes"/>
      <point x="913" y="653" type="line"/>
      <point x="764" y="0" type="line"/>
      <point x="561" y="0" type="line"/>
      <point x="711" y="653" type="line"/>
      <point x="661" y="653" type="line" smooth="yes"/>
      <point x="593" y="653"/>
      <point x="484" y="545"/>
      <point x="449" y="480" type="qcurve"/>
      <point x="152" y="0" type="line"/>
      <point x="-68" y="0" type="line"/>
      <point x="287" y="594" type="line" smooth="yes"/>
      <point x="339" y="681"/>
      <point x="508" y="799"/>
      <point x="609" y="799" type="qcurve"/>
      <point x="400" y="1231" type="line"/>
      <point x="439" y="1412" type="line"/>
      <point x="1536" y="1412" type="line"/>
      <point x="1496" y="1231" type="line"/>
      <point x="1072" y="799" type="line"/>
      <point x="1139" y="799"/>
      <point x="1236" y="734"/>
      <point x="1293" y="633"/>
      <point x="1301" y="577" type="qcurve"/>
    </contour>
    <contour>
      <point x="848" y="822" type="line"/>
      <point x="1241" y="1231" type="line"/>
      <point x="643" y="1231" type="line"/>
    </contour>
  </outline>
</glyph>
<glyph name="yusbigcyrillic" format="2">
  <advance width="1268"/>
  <unicode hex="046B"/>
  <outline>
    <contour>
      <point x="1112" y="0" type="line"/>
      <point x="888" y="0" type="line"/>
      <point x="851" y="364" type="line" smooth="yes"/>
      <point x="845" y="421"/>
      <point x="787" y="469"/>
      <point x="722" y="470" type="qcurve"/>
      <point x="608" y="0" type="line"/>
      <point x="430" y="0" type="line"/>
      <point x="544" y="468" type="line"/>
      <point x="416" y="465"/>
      <point x="357" y="347" type="qcurve"/>
      <point x="154" y="0" type="line"/>
      <point x="-77" y="0" type="line"/>
      <point x="196" y="453" type="line"/>
      <point x="290" y="604"/>
      <point x="418" y="604" type="qcurve"/>
      <point x="279" y="851" type="line"/>
      <point x="310" y="999" type="line"/>
      <point x="1186" y="999" type="line"/>
      <point x="1155" y="851" type="line"/>
      <point x="891" y="604" type="line"/>
      <point x="1014" y="604"/>
      <point x="1042" y="436" type="qcurve"/>
    </contour>
    <contour>
      <point x="657" y="610" type="line"/>
      <point x="910" y="851" type="line"/>
      <point x="521" y="851" type="line"/>
    </contour>
  </outline>
</glyph>
<glyph name="Yusbigiotifiedcyrillic" format="2">
  <advance width="1994"/>
  <unicode hex="046C"/>
  <outline>
    <contour>
      <point x="1827" y="0" type="line"/>
      <point x="1608" y="0" type="line"/>
      <point x="1537" y="497" type="line" smooth="yes"/>
      <point x="1528" y="563"/>
      <point x="1475" y="653"/>
      <point x="1407" y="653" type="qcurve" smooth="yes"/>
      <point x="1345" y="653" type="line"/>
      <point x="1195" y="0" type="line"/>
      <point x="992" y="0" type="line"/>
      <point x="1141" y="653" type="line"/>
      <point x="1093" y="653" type="line" smooth="yes"/>
      <point x="977" y="653"/>
      <point x="879" y="480" type="qcurve"/>
      <point x="582" y="0" type="line"/>
      <point x="372" y="0" type="line"/>
      <point x="702" y="552" type="line"/>
      <point x="748" y="622" type="line"/>
      <point x="427" y="614" type="line"/>
      <point x="286" y="0" type="line"/>
      <point x="83" y="0" type="line"/>
      <point x="409" y="1412" type="line"/>
      <point x="611" y="1412" type="line"/>
      <point x="468" y="794" type="line"/>
      <point x="1050" y="794" type="line"/>
      <point x="831" y="1231" type="line"/>
      <point x="870" y="1412" type="line"/>
      <point x="1966" y="1412" type="line"/>
      <point x="1926" y="1231" type="line"/>
      <point x="1503" y="799" type="line"/>
      <point x="1569" y="799"/>
      <point x="1661" y="735"/>
      <point x="1714" y="634"/>
      <point x="1723" y="577" type="qcurve"/>
    </contour>
    <contour>
      <point x="1279" y="822" type="line"/>
      <point x="1672" y="1231" type="line"/>
      <point x="1074" y="1231" type="line"/>
    </contour>
  </outline>
</glyph>
<glyph name="afii10147" format="2">
  <advance width="1526"/>
  <unicode hex="0472"/>
  <outline>
    <contour>
      <point x="655" y="-20" type="qcurve" smooth="yes"/>
      <point x="477" y="-20"/>
      <point x="244" y="113"/>
      <point x="131" y="347"/>
      <point x="131" y="498" type="qcurve" smooth="yes"/>
      <point x="131" y="638"/>
      <point x="223" y="948"/>
      <point x="312" y="1083" type="qcurve" smooth="yes"/>
      <point x="419" y="1243"/>
      <point x="753" y="1434"/>
      <point x="966" y="1434" type="qcurve" smooth="yes"/>
      <point x="1146" y="1434"/>
      <point x="1378" y="1300"/>
      <point x="1491" y="1065"/>
      <point x="1491" y="913" type="qcurve" smooth="yes"/>
      <point x="1491" y="773"/>
      <point x="1401" y="468"/>
      <point x="1311" y="332" type="qcurve" smooth="yes"/>
      <point x="1203" y="171"/>
      <point x="868" y="-20"/>
    </contour>
    <contour>
      <point x="383" y="781" type="qcurve"/>
      <point x="1277" y="798" type="line"/>
      <point x="1284" y="848"/>
      <point x="1284" y="902" type="qcurve" smooth="yes"/>
      <point x="1284" y="1062"/>
      <point x="1121" y="1250"/>
      <point x="947" y="1250" type="qcurve" smooth="yes"/>
      <point x="803" y="1250"/>
      <point x="580" y="1125"/>
      <point x="425" y="914"/>
    </contour>
    <contour>
      <point x="672" y="163" type="qcurve" smooth="yes"/>
      <point x="820" y="163"/>
      <point x="1047" y="294"/>
      <point x="1202" y="514"/>
      <point x="1243" y="652" type="qcurve"/>
      <point x="348" y="635" type="line"/>
      <point x="337" y="575"/>
      <point x="337" y="507" type="qcurve" smooth="yes"/>
      <point x="337" y="349"/>
      <point x="500" y="163"/>
    </contour>
  </outline>
</glyph>
<glyph name="afii10195" format="2">
  <advance width="1137"/>
  <unicode hex="0473"/>
  <outline>
    <contour>
      <point x="460" y="-20" type="qcurve" smooth="yes"/>
      <point x="332" y="-20"/>
      <point x="152" y="86"/>
      <point x="58" y="268"/>
      <point x="58" y="381" type="qcurve" smooth="yes"/>
      <point x="58" y="468"/>
      <point x="122" y="670"/>
      <point x="194" y="765" type="qcurve" smooth="yes"/>
      <point x="279" y="876"/>
      <point x="526" y="1012"/>
      <point x="673" y="1012" type="qcurve" smooth="yes"/>
      <point x="802" y="1012"/>
      <point x="982" y="906"/>
      <point x="1075" y="725"/>
      <point x="1075" y="612" type="qcurve" smooth="yes"/>
      <point x="1075" y="492"/>
      <point x="985" y="273"/>
      <point x="828" y="101"/>
      <point x="727" y="47" type="qcurve" smooth="yes"/>
      <point x="601" y="-20"/>
    </contour>
    <contour>
      <point x="305" y="570" type="qcurve"/>
      <point x="865" y="587" type="line"/>
      <point x="867" y="626" type="line"/>
      <point x="867" y="725"/>
      <point x="769" y="843"/>
      <point x="658" y="843" type="qcurve" smooth="yes"/>
      <point x="532" y="843"/>
      <point x="352" y="690"/>
    </contour>
    <contour>
      <point x="475" y="149" type="qcurve" smooth="yes"/>
      <point x="606" y="149"/>
      <point x="788" y="314"/>
      <point x="830" y="441" type="qcurve"/>
      <point x="269" y="424" type="line"/>
      <point x="265" y="384"/>
      <point x="265" y="366" type="qcurve" smooth="yes"/>
      <point x="265" y="268"/>
      <point x="363" y="149"/>
    </contour>
  </outline>
</glyph>
<glyph name="afii10148" format="2">
  <advance width="1322"/>
  <unicode hex="0474"/>
  <outline>
    <contour>
      <point x="589" y="0" type="line"/>
      <point x="426" y="0" type="line"/>
      <point x="234" y="1413" type="line"/>
      <point x="449" y="1413" type="line"/>
      <point x="572" y="305" type="line"/>
      <point x="997" y="1011" type="line" smooth="yes"/>
      <point x="1120" y="1215"/>
      <point x="1356" y="1401"/>
      <point x="1497" y="1414" type="qcurve"/>
      <point x="1463" y="1221" type="line"/>
      <point x="1379" y="1189"/>
      <point x="1247" y="1058"/>
      <point x="1178" y="949" type="qcurve"/>
    </contour>
  </outline>
</glyph>
<glyph name="afii10196" format="2">
  <advance width="990"/>
  <unicode hex="0475"/>
  <outline>
    <contour>
      <point x="439" y="0" type="line"/>
      <point x="273" y="0" type="line"/>
      <point x="134" y="999" type="line"/>
      <point x="342" y="999" type="line"/>
      <point x="408" y="252" type="line"/>
      <point x="629" y="629" type="line" smooth="yes"/>
      <point x="745" y="826"/>
      <point x="962" y="987"/>
      <point x="1077" y="1001" type="qcurve"/>
      <point x="1045" y="809" type="line"/>
      <point x="993" y="794"/>
      <point x="891" y="713"/>
      <point x="823" y="604" type="qcurve"/>
    </contour>
  </outline>
</glyph>
<glyph name="afii10098" format="2">
  <advance width="782"/>
  <unicode hex="0491"/>
  <outline>
    <contour>
      <point x="236" y="0" type="line"/>
      <point x="40" y="0" type="line"/>
      <point x="270" y="999" type="line"/>
      <point x="687" y="999" type="line"/>
      <point x="759" y="1307" type="line"/>
      <point x="954" y="1307" type="line"/>
      <point x="849" y="851" type="line"/>
      <point x="432" y="851" type="line"/>
    </contour>
  </outline>
</glyph>
<glyph name="ustraightcyrillic" format="2">
  <advance width="985"/>
  <unicode hex="04AF"/>
  <outline>
    <contour>
      <point x="474" y="0" type="line"/>
      <point x="280" y="0" type="line"/>
      <point x="382" y="436" type="line"/>
      <point x="145" y="999" type="line"/>
      <point x="369" y="999" type="line"/>
      <point x="515" y="622" type="line"/>
      <point x="839" y="999" type="line"/>
      <point x="1074" y="999" type="line"/>
      <point x="576" y="436" type="line"/>
    </contour>
  </outline>
</glyph>
<glyph name="Ustraightstrokecyrillic" format="2">
  <advance width="1361"/>
  <unicode hex="04B0"/>
  <outline>
    <contour>
      <point x="665" y="0" type="line"/>
      <point x="464" y="0" type="line"/>
      <point x="533" y="295" type="line"/>
      <point x="264" y="295" type="line"/>
      <point x="319" y="464" type="line"/>
      <point x="572" y="464" type="line"/>
      <point x="593" y="552" type="line"/>
      <point x="236" y="1413" type="line"/>
      <point x="470" y="1413" type="line"/>
      <point x="730" y="743" type="line"/>
      <point x="1305" y="1413" type="line"/>
      <point x="1546" y="1413" type="line"/>
      <point x="794" y="552" type="line"/>
      <point x="773" y="464" type="line"/>
      <point x="1060" y="464" type="line"/>
      <point x="1004" y="295" type="line"/>
      <point x="734" y="295" type="line"/>
    </contour>
  </outline>
</glyph>
<glyph name="Chedescendercyrillic" format="2">
  <advance width="1338"/>
  <unicode hex="04B6"/>
  <outline>
    <contour>
      <point x="1135" y="-238" type="line"/>
      <point x="943" y="-238" type="line"/>
      <point x="998" y="0" type="line"/>
      <point x="820" y="0" type="line"/>
      <point x="941" y="507" type="line"/>
      <point x="796" y="410"/>
      <point x="615" y="410" type="qcurve" smooth="yes"/>
      <point x="404" y="410"/>
      <point x="199" y="617"/>
      <point x="199" y="801" type="qcurve" smooth="yes"/>
      <point x="199" y="891"/>
      <point x="226" y="1009" type="qcurve" smooth="yes"/>
      <point x="319" y="1412" type="line"/>
      <point x="522" y="1412" type="line"/>
      <point x="427" y="1002" type="line" smooth="yes"/>
      <point x="402" y="896"/>
      <point x="402" y="820" type="qcurve" smooth="yes"/>
      <point x="402" y="709"/>
      <point x="517" y="606"/>
      <point x="635" y="606" type="qcurve" smooth="yes"/>
      <point x="747" y="606"/>
      <point x="928" y="688"/>
      <point x="989" y="746" type="qcurve"/>
      <point x="1146" y="1412" type="line"/>
      <point x="1350" y="1412" type="line"/>
      <point x="1063" y="168" type="line"/>
      <point x="1230" y="168" type="line"/>
    </contour>
  </outline>
</glyph>
<glyph name="chedescendercyrillic" format="2">
  <advance width="1097"/>
  <unicode hex="04B7"/>
  <outline>
    <contour>
      <point x="933" y="-238" type="line"/>
      <point x="741" y="-238" type="line"/>
      <point x="796" y="0" type="line"/>
      <point x="623" y="0" type="line"/>
      <point x="719" y="401" type="line"/>
      <point x="661" y="334"/>
      <point x="485" y="243"/>
      <point x="389" y="243" type="qcurve" smooth="yes"/>
      <point x="243" y="243"/>
      <point x="104" y="407"/>
      <point x="104" y="541" type="qcurve" smooth="yes"/>
      <point x="104" y="608"/>
      <point x="121" y="682" type="qcurve" smooth="yes"/>
      <point x="193" y="999" type="line"/>
      <point x="390" y="999" type="line"/>
      <point x="314" y="669" type="line" smooth="yes"/>
      <point x="299" y="602"/>
      <point x="299" y="555" type="qcurve" smooth="yes"/>
      <point x="299" y="491"/>
      <point x="359" y="419"/>
      <point x="429" y="419" type="qcurve" smooth="yes"/>
      <point x="512" y="419"/>
      <point x="663" y="507"/>
      <point x="770" y="639"/>
      <point x="787" y="710" type="qcurve"/>
      <point x="853" y="999" type="line"/>
      <point x="1049" y="999" type="line"/>
      <point x="859" y="168" type="line"/>
      <point x="1028" y="168" type="line"/>
    </contour>
  </outline>
</glyph>
<glyph name="afii10846" format="2">
  <advance width="1045"/>
  <unicode hex="04D9"/>
  <outline>
    <contour>
      <point x="411" y="-12" type="qcurve" smooth="yes"/>
      <point x="222" y="-12"/>
      <point x="53" y="176"/>
      <point x="53" y="334" type="qcurve" smooth="yes"/>
      <point x="53" y="417"/>
      <point x="78" y="529" type="qcurve"/>
      <point x="85" y="556"/>
      <point x="93" y="572" type="qcurve"/>
      <point x="786" y="572" type="line"/>
      <point x="792" y="610"/>
      <point x="792" y="641" type="qcurve" smooth="yes"/>
      <point x="792" y="730"/>
      <point x="694" y="836"/>
      <point x="590" y="836" type="qcurve" smooth="yes"/>
      <point x="496" y="836"/>
      <point x="356" y="784"/>
      <point x="292" y="729" type="qcurve"/>
      <point x="179" y="855" type="line"/>
      <point x="274" y="937"/>
      <point x="478" y="1012"/>
      <point x="603" y="1012" type="qcurve" smooth="yes"/>
      <point x="733" y="1012"/>
      <point x="904" y="915"/>
      <point x="988" y="745"/>
      <point x="988" y="637" type="qcurve" smooth="yes"/>
      <point x="988" y="540"/>
      <point x="924" y="334"/>
      <point x="864" y="241" type="qcurve" smooth="yes"/>
      <point x="816" y="168"/>
      <point x="682" y="54"/>
      <point x="512" y="-12"/>
    </contour>
    <contour>
      <point x="424" y="154" type="qcurve" smooth="yes"/>
      <point x="543" y="154"/>
      <point x="713" y="308"/>
      <point x="750" y="424" type="qcurve"/>
      <point x="238" y="407" type="line"/>
      <point x="230" y="362"/>
      <point x="230" y="330" type="qcurve" smooth="yes"/>
      <point x="230" y="248"/>
      <point x="323" y="154"/>
    </contour>
  </outline>
</glyph>
<glyph name="endash" format="2">
  <advance width="1036"/>
  <unicode hex="2013"/>
  <outline>
    <contour>
      <point x="894" y="545" type="line"/>
      <point x="163" y="545" type="line"/>
      <point x="198" y="692" type="line"/>
      <point x="928" y="692" type="line"/>
    </contour>
  </outline>
</glyph>
<glyph name="afii00208" format="2">
  <advance width="1527"/>
  <unicode hex="2015"/>
  <outline>
    <contour>
      <point x="1385" y="545" type="line"/>
      <point x="163" y="545" type="line"/>
      <point x="198" y="692" type="line"/>
      <point x="1420" y="692" type="line"/>
    </contour>
  </outline>
</glyph>
<glyph name="quoteleft" format="2">
  <advance width="569"/>
  <unicode hex="2018"/>
  <outline>
    <contour>
      <point x="531" y="893" type="line"/>
      <point x="409" y="893" type="line"/>
      <point x="294" y="1413" type="line"/>
      <point x="524" y="1413" type="line"/>
    </contour>
  </outline>
</glyph>
<glyph name="quoteright" format="2">
  <advance width="568"/>
  <unicode hex="2019"/>
  <outline>
    <contour>
      <point x="343" y="893" type="line"/>
      <point x="214" y="893" type="line"/>
      <point x="463" y="1413" type="line"/>
      <point x="700" y="1413" type="line"/>
    </contour>
  </outline>
</glyph>
<glyph name="quotesinglbase" format="2">
  <advance width="561"/>
  <unicode hex="201A"/>
  <outline>
    <contour>
      <point x="78" y="-225" type="line"/>
      <point x="-41" y="-225" type="line"/>
      <point x="198" y="264" type="line"/>
      <point x="425" y="264" type="line"/>
    </contour>
  </outline>
</glyph>
<glyph name="quotedblright" format="2">
  <advance width="915"/>
  <unicode hex="201D"/>
  <outline>
    <contour>
      <point x="343" y="893" type="line"/>
      <point x="214" y="893" type="line"/>
      <point x="463" y="1413" type="line"/>
      <point x="700" y="1413" type="line"/>
    </contour>
    <contour>
      <point x="691" y="893" type="line"/>
      <point x="560" y="893" type="line"/>
      <point x="810" y="1413" type="line"/>
      <point x="1046" y="1413" type="line"/>
    </contour>
  </outline>
</glyph>
<glyph name="quotedblbase" format="2">
  <advance width="888"/>
  <unicode hex="201E"/>
  <outline>
    <contour>
      <point x="78" y="-225" type="line"/>
      <point x="-41" y="-225" type="line"/>
      <point x="198" y="264" type="line"/>
      <point x="425" y="264" type="line"/>
    </contour>
    <contour>
      <point x="409" y="-225" type="line"/>
      <point x="289" y="-225" type="line"/>
      <point x="529" y="264" type="line"/>
      <point x="756" y="264" type="line"/>
    </contour>
  </outline>
</glyph>
<glyph name="dagger" format="2">
  <advance width="798"/>
  <unicode hex="2020"/>
  <outline>
    <contour>
      <point x="329" y="-205" type="line"/>
      <point x="145" y="-205" type="line"/>
      <point x="383" y="828" type="line"/>
      <point x="162" y="828" type="line"/>
      <point x="205" y="1011" type="line"/>
      <point x="426" y="1011" type="line"/>
      <point x="518" y="1413" type="line"/>
      <point x="702" y="1413" type="line"/>
      <point x="610" y="1011" type="line"/>
      <point x="831" y="1011" type="line"/>
      <point x="788" y="828" type="line"/>
      <point x="567" y="828" type="line"/>
    </contour>
  </outline>
</glyph>
<glyph name="bullet" format="2">
  <advance width="796"/>
  <unicode hex="2022"/>
  <outline>
    <contour>
      <point x="351" y="244" type="qcurve" smooth="yes"/>
      <point x="260" y="244"/>
      <point x="153" y="358"/>
      <point x="153" y="441" type="qcurve" smooth="yes"/>
      <point x="153" y="520"/>
      <point x="238" y="645"/>
      <point x="368" y="719"/>
      <point x="436" y="719" type="qcurve" smooth="yes"/>
      <point x="527" y="719"/>
      <point x="634" y="603"/>
      <point x="634" y="521" type="qcurve" smooth="yes"/>
      <point x="634" y="442"/>
      <point x="549" y="317"/>
      <point x="419" y="244"/>
    </contour>
  </outline>
</glyph>
<glyph name="twodotenleader" format="2">
  <advance width="1072"/>
  <unicode hex="2025"/>
  <outline>
    <contour>
      <point x="325" y="0" type="line"/>
      <point x="104" y="0" type="line"/>
      <point x="156" y="227" type="line"/>
      <point x="376" y="227" type="line"/>
    </contour>
    <contour>
      <point x="739" y="0" type="line"/>
      <point x="518" y="0" type="line"/>
      <point x="570" y="227" type="line"/>
      <point x="790" y="227" type="line"/>
    </contour>
  </outline>
</glyph>
<glyph name="guilsinglleft" format="2">
  <advance width="601"/>
  <unicode hex="2039"/>
  <outline>
    <contour>
      <point x="367" y="171" type="line"/>
      <point x="47" y="511" type="line"/>
      <point x="520" y="851" type="line"/>
      <point x="481" y="666" type="line"/>
      <point x="257" y="511" type="line"/>
      <point x="406" y="356" type="line"/>
    </contour>
  </outline>
</glyph>
